<svg width="390" height="844" viewBox="0 0 390 844" fill="none" xmlns="http://www.w3.org/2000/svg">
<rect width="390" height="844" fill="#FCFDFF"/>
<rect opacity="0.1" x="16" y="298" width="44" height="44" rx="10" fill="url(#paint0_linear_54_1346)"/>
<path d="M35.8474 309.004C35.4919 309.019 35.144 309.087 34.86 309.318C34.5759 309.548 34.4367 309.942 34.4592 310.333C34.5043 311.114 34.9913 312.057 36.0092 313.517C36.5429 314.282 36.8596 314.854 37.2532 315.565C36.8225 315.811 36.5252 316.267 36.5252 316.79C36.5252 317.109 36.6384 317.402 36.8209 317.639C35.2402 318.451 33.5771 319.755 32.8247 321.537C31.2941 321.72 30.0986 323.019 30.0986 324.585C30.0986 325.509 30.5154 326.338 31.1706 326.901C30.7881 327.132 30.5272 327.545 30.5272 328.017C30.5272 328.214 30.5757 328.4 30.6564 328.569C30.2671 328.797 30 329.214 30 329.691C30 330.407 30.5959 330.998 31.3175 330.998C33.9084 331.005 36.7658 330.988 39.1332 330.998C41.4329 330.998 43.9052 329.923 44.9555 328.268C46.0569 326.653 46.2657 324.496 45.6835 322.203C45.6826 322.202 45.6811 322.197 45.6797 322.196C45.1115 320.092 43.2525 318.572 41.4929 317.66C41.6847 317.419 41.8034 317.118 41.8034 316.79C41.8034 316.359 41.6023 315.975 41.293 315.714C41.933 315.205 42.8081 314.441 43.5849 313.565C44.1483 312.929 44.6448 312.257 44.9098 311.57C45.1748 310.883 45.1733 310.076 44.6188 309.526C44.3112 309.221 43.8792 309.195 43.5254 309.251C43.1715 309.307 42.8267 309.438 42.4887 309.575C42.1506 309.712 41.8214 309.858 41.5468 309.952C41.2722 310.046 41.0505 310.065 41.0094 310.057C40.1764 309.891 39.2183 309.621 38.3102 309.394C37.4022 309.167 36.5583 308.973 35.8473 309.003L35.8474 309.004ZM35.8864 309.949C36.3735 309.928 37.192 310.09 38.0788 310.311C38.9657 310.533 39.9329 310.808 40.8235 310.985C41.1982 311.059 41.523 310.96 41.8565 310.846C42.1901 310.731 42.529 310.58 42.8477 310.451C43.1663 310.322 43.4692 310.219 43.677 310.186C44.2797 310.153 44.1273 310.95 44.0211 311.232C43.9074 311.527 43.7041 311.864 43.4548 312.21C41.1617 312.854 38.8366 312.438 36.0157 311.742C35.6163 311.034 35.4218 310.527 35.4076 310.28C35.4076 310.018 35.6255 309.949 35.8864 309.949V309.949ZM36.7353 312.887C37.2388 313.004 37.7301 313.103 38.2164 313.191L38.4136 315.371H38.2341C37.7027 314.431 37.2186 313.59 36.7353 312.887ZM39.1862 313.343C39.4856 313.383 39.7836 313.415 40.0788 313.437L39.3745 315.371L39.1862 313.343ZM42.4618 313.382C41.7446 314.12 40.9604 314.777 40.4721 315.155L41.0774 313.472C41.5408 313.471 42.0021 313.446 42.4618 313.382V313.382ZM37.9561 316.316H40.3772C40.6492 316.316 40.8514 316.521 40.8514 316.79C40.8514 317.06 40.6492 317.262 40.3772 317.262H37.9561C37.6841 317.262 37.4782 317.06 37.4782 316.79C37.4782 316.521 37.6841 316.316 37.9561 316.316ZM40.4292 318.207C42.1913 318.985 44.2384 320.518 44.7592 322.437C45.2927 324.541 45.076 326.403 44.1651 327.738C43.2536 329.075 41.6306 329.952 39.1219 330.018C37.5339 330.011 36.6339 330.017 35.9542 330.018C35.9823 329.913 36.0016 329.804 36.0016 329.691C36.0016 329.493 35.9526 329.306 35.8714 329.137C36.2596 328.908 36.5251 328.493 36.5251 328.017C36.5251 327.367 36.0331 326.824 35.4028 326.729C35.95 326.175 36.2898 325.419 36.2898 324.585C36.2898 323.118 35.2414 321.886 33.851 321.585C34.6487 320.069 36.351 318.866 37.8435 318.207H39.3824V319.622C39.3824 320.252 40.3345 320.252 40.3345 319.622V318.207H40.4292ZM38.7046 321.809V321.987H38.2611C38.2459 321.986 38.2307 321.986 38.2155 321.987C37.972 322.011 37.7866 322.215 37.7869 322.458V324.24C37.7878 324.5 37.9996 324.71 38.2611 324.711H39.6213V325.764H38.2611C37.6119 325.749 37.6119 326.723 38.2611 326.708H38.7046V326.886C38.7046 327.517 39.6567 327.517 39.6567 326.886V326.708H40.0993C40.3607 326.707 40.5724 326.497 40.5734 326.238V324.24C40.5744 323.979 40.3622 323.767 40.0993 323.766H38.739V322.932H40.0993C40.7484 322.947 40.7484 321.973 40.0993 321.987H39.6567V321.809C39.6617 321.541 39.4412 321.323 39.1748 321.328C38.9083 321.334 38.6996 321.548 38.7046 321.809ZM33.1938 322.458C34.3828 322.458 35.3378 323.405 35.3378 324.585C35.3378 325.765 34.3828 326.709 33.1938 326.709C32.0048 326.709 31.0506 325.765 31.0506 324.585C31.0506 323.405 32.0048 322.458 33.1938 322.458ZM31.8447 327.654H35.2077C35.4183 327.654 35.5731 327.808 35.5731 328.017C35.5731 328.226 35.4183 328.38 35.2077 328.38H31.8447C31.634 328.38 31.4793 328.226 31.4793 328.017C31.4793 327.808 31.634 327.654 31.8447 327.654ZM31.3175 329.328H34.6842C34.8948 329.328 35.0496 329.482 35.0496 329.691C35.0496 329.9 34.8948 330.053 34.6842 330.053H31.3175C31.1068 330.053 30.9521 329.9 30.9521 329.691C30.9521 329.482 31.1069 329.328 31.3175 329.328Z" fill="#4B4B4B"/>
<path d="M77.7164 326V315.818H81.276C81.9853 315.818 82.5703 315.941 83.031 316.186C83.4917 316.428 83.8347 316.754 84.0601 317.165C84.2855 317.573 84.3982 318.026 84.3982 318.523C84.3982 318.96 84.3203 319.321 84.1645 319.607C84.012 319.892 83.8099 320.117 83.558 320.283C83.3094 320.448 83.0393 320.571 82.7476 320.651V320.75C83.0592 320.77 83.3724 320.879 83.6872 321.078C84.0021 321.277 84.2656 321.562 84.4777 321.933C84.6898 322.304 84.7959 322.759 84.7959 323.295C84.7959 323.806 84.6799 324.265 84.4479 324.673C84.2159 325.08 83.8496 325.403 83.3492 325.642C82.8487 325.881 82.1974 326 81.3953 326H77.7164ZM78.9493 324.906H81.3953C82.2007 324.906 82.7725 324.75 83.1105 324.439C83.4519 324.124 83.6226 323.743 83.6226 323.295C83.6226 322.951 83.5348 322.633 83.3591 322.341C83.1834 322.046 82.9332 321.811 82.6084 321.635C82.2836 321.456 81.8991 321.366 81.455 321.366H78.9493V324.906ZM78.9493 320.293H81.2362C81.6075 320.293 81.9422 320.22 82.2405 320.074C82.5421 319.928 82.7807 319.723 82.9564 319.457C83.1354 319.192 83.2249 318.881 83.2249 318.523C83.2249 318.075 83.0691 317.696 82.7575 317.384C82.446 317.069 81.9521 316.912 81.276 316.912H78.9493V320.293ZM91.4752 322.878V318.364H92.6485V326H91.4752V324.707H91.3957C91.2167 325.095 90.9383 325.425 90.5605 325.697C90.1826 325.965 89.7053 326.099 89.1286 326.099C88.6514 326.099 88.2271 325.995 87.8559 325.786C87.4847 325.574 87.193 325.256 86.9809 324.832C86.7688 324.404 86.6627 323.866 86.6627 323.216V318.364H87.836V323.136C87.836 323.693 87.9918 324.137 88.3034 324.469C88.6182 324.8 89.0193 324.966 89.5065 324.966C89.7981 324.966 90.0948 324.891 90.3964 324.742C90.7013 324.593 90.9565 324.364 91.162 324.056C91.3708 323.748 91.4752 323.355 91.4752 322.878ZM95.5532 328.864C95.3543 328.864 95.177 328.847 95.0212 328.814C94.8654 328.784 94.7577 328.754 94.6981 328.724L94.9964 327.69C95.2814 327.763 95.5333 327.79 95.752 327.77C95.9708 327.75 96.1647 327.652 96.3337 327.477C96.5061 327.304 96.6635 327.024 96.806 326.636L97.0248 326.04L94.2009 318.364H95.4736L97.5816 324.449H97.6611L99.7691 318.364H101.042L97.8003 327.114C97.6545 327.508 97.4739 327.835 97.2584 328.093C97.043 328.355 96.7928 328.549 96.5077 328.675C96.226 328.801 95.9078 328.864 95.5532 328.864Z" fill="#4B4B4B"/>
<rect opacity="0.1" x="16" y="358" width="44" height="44" rx="10" fill="url(#paint1_linear_54_1346)"/>
<path d="M47.4589 376.916V373.725L44.2516 372.121L41.1331 369L38 369.783L34.8669 369L31.7484 372.121L28.5411 373.725V376.916L27 380L28.5411 383.084V386.275L31.7484 387.879L34.8669 391L38 390.217L41.1331 391L44.2516 387.879L47.4589 386.275V383.084L49 380L47.4589 376.916ZM46.0037 382.741V385.375L43.4949 386.63L40.6878 389.387L38 388.714L35.3122 389.387L32.6928 386.765L29.9948 385.373V382.741L28.6269 380L29.9963 377.259V374.625L32.5051 373.37L35.3137 370.612L38.0015 371.285L40.6892 370.612L43.3086 373.233L46.0066 374.625V377.259L47.3731 380L46.0037 382.741Z" fill="#4B4B4B"/>
<path d="M41.8506 375.117L33.1197 383.854L34.1487 384.884L42.8796 376.147L41.8506 375.117Z" fill="#4B4B4B"/>
<path d="M35.0897 379.272C36.2932 379.272 37.2725 378.292 37.2725 377.088C37.2725 375.883 36.2932 374.903 35.0897 374.903C33.8862 374.903 32.9069 375.883 32.9069 377.088C32.9069 378.292 33.8862 379.272 35.0897 379.272ZM35.0897 376.36C35.4913 376.36 35.8173 376.686 35.8173 377.088C35.8173 377.489 35.4913 377.816 35.0897 377.816C34.688 377.816 34.3621 377.489 34.3621 377.088C34.3621 376.686 34.688 376.36 35.0897 376.36Z" fill="#4B4B4B"/>
<path d="M40.9106 380.728C39.7071 380.728 38.7278 381.708 38.7278 382.912C38.7278 384.117 39.7071 385.097 40.9106 385.097C42.1141 385.097 43.0934 384.117 43.0934 382.912C43.0934 381.708 42.1141 380.728 40.9106 380.728ZM40.9106 383.64C40.509 383.64 40.183 383.314 40.183 382.912C40.183 382.51 40.509 382.184 40.9106 382.184C41.3123 382.184 41.6382 382.51 41.6382 382.912C41.6382 383.314 41.3123 383.64 40.9106 383.64Z" fill="#4B4B4B"/>
<path d="M77.3863 386V375.818H80.8266C81.6254 375.818 82.2783 375.962 82.7854 376.251C83.2958 376.536 83.6737 376.922 83.9189 377.409C84.1642 377.896 84.2868 378.44 84.2868 379.04C84.2868 379.64 84.1642 380.185 83.9189 380.675C83.677 381.166 83.3025 381.557 82.7954 381.849C82.2883 382.137 81.6386 382.281 80.8465 382.281H78.3806V381.188H80.8067C81.3536 381.188 81.7928 381.093 82.1242 380.904C82.4556 380.715 82.6959 380.46 82.8451 380.138C82.9975 379.814 83.0738 379.447 83.0738 379.04C83.0738 378.632 82.9975 378.268 82.8451 377.946C82.6959 377.625 82.454 377.373 82.1192 377.19C81.7845 377.005 81.3403 376.912 80.7868 376.912H78.6192V386H77.3863ZM86.1139 386V378.364H87.2474V379.517H87.327C87.4662 379.139 87.7181 378.833 88.0827 378.597C88.4472 378.362 88.8582 378.244 89.3156 378.244C89.4018 378.244 89.5095 378.246 89.6388 378.249C89.768 378.253 89.8658 378.258 89.9321 378.264V379.457C89.8923 379.447 89.8012 379.433 89.6586 379.413C89.5194 379.389 89.372 379.378 89.2162 379.378C88.845 379.378 88.5135 379.456 88.2219 379.612C87.9335 379.764 87.7048 379.976 87.5358 380.248C87.3701 380.516 87.2872 380.823 87.2872 381.168V386H86.1139ZM94.1927 386.159C93.5033 386.159 92.8985 385.995 92.3781 385.667C91.8611 385.339 91.4567 384.88 91.165 384.29C90.8767 383.7 90.7325 383.01 90.7325 382.222C90.7325 381.426 90.8767 380.732 91.165 380.138C91.4567 379.545 91.8611 379.085 92.3781 378.756C92.8985 378.428 93.5033 378.264 94.1927 378.264C94.8821 378.264 95.4854 378.428 96.0024 378.756C96.5228 379.085 96.9271 379.545 97.2155 380.138C97.5071 380.732 97.653 381.426 97.653 382.222C97.653 383.01 97.5071 383.7 97.2155 384.29C96.9271 384.88 96.5228 385.339 96.0024 385.667C95.4854 385.995 94.8821 386.159 94.1927 386.159ZM94.1927 385.105C94.7164 385.105 95.1473 384.971 95.4854 384.702C95.8234 384.434 96.0737 384.081 96.2361 383.643C96.3985 383.206 96.4797 382.732 96.4797 382.222C96.4797 381.711 96.3985 381.236 96.2361 380.795C96.0737 380.354 95.8234 379.998 95.4854 379.726C95.1473 379.454 94.7164 379.318 94.1927 379.318C93.6691 379.318 93.2382 379.454 92.9001 379.726C92.5621 379.998 92.3118 380.354 92.1494 380.795C91.987 381.236 91.9058 381.711 91.9058 382.222C91.9058 382.732 91.987 383.206 92.1494 383.643C92.3118 384.081 92.5621 384.434 92.9001 384.702C93.2382 384.971 93.6691 385.105 94.1927 385.105ZM99.444 386V378.364H100.578V379.557H100.677C100.836 379.149 101.093 378.833 101.448 378.607C101.802 378.379 102.228 378.264 102.725 378.264C103.229 378.264 103.648 378.379 103.983 378.607C104.321 378.833 104.585 379.149 104.774 379.557H104.853C105.049 379.162 105.342 378.849 105.733 378.617C106.124 378.382 106.593 378.264 107.14 378.264C107.823 378.264 108.381 378.478 108.815 378.906C109.25 379.33 109.467 379.991 109.467 380.889V386H108.293V380.889C108.293 380.326 108.139 379.923 107.831 379.681C107.523 379.439 107.16 379.318 106.742 379.318C106.205 379.318 105.789 379.481 105.494 379.805C105.199 380.127 105.052 380.535 105.052 381.028V386H103.859V380.77C103.859 380.336 103.718 379.986 103.436 379.721C103.154 379.452 102.792 379.318 102.347 379.318C102.042 379.318 101.757 379.399 101.492 379.562C101.23 379.724 101.018 379.95 100.856 380.238C100.697 380.523 100.617 380.853 100.617 381.227V386H99.444ZM114.714 386.159C114.025 386.159 113.42 385.995 112.9 385.667C112.383 385.339 111.978 384.88 111.687 384.29C111.398 383.7 111.254 383.01 111.254 382.222C111.254 381.426 111.398 380.732 111.687 380.138C111.978 379.545 112.383 379.085 112.9 378.756C113.42 378.428 114.025 378.264 114.714 378.264C115.404 378.264 116.007 378.428 116.524 378.756C117.044 379.085 117.449 379.545 117.737 380.138C118.029 380.732 118.174 381.426 118.174 382.222C118.174 383.01 118.029 383.7 117.737 384.29C117.449 384.88 117.044 385.339 116.524 385.667C116.007 385.995 115.404 386.159 114.714 386.159ZM114.714 385.105C115.238 385.105 115.669 384.971 116.007 384.702C116.345 384.434 116.595 384.081 116.758 383.643C116.92 383.206 117.001 382.732 117.001 382.222C117.001 381.711 116.92 381.236 116.758 380.795C116.595 380.354 116.345 379.998 116.007 379.726C115.669 379.454 115.238 379.318 114.714 379.318C114.191 379.318 113.76 379.454 113.422 379.726C113.084 379.998 112.833 380.354 112.671 380.795C112.508 381.236 112.427 381.711 112.427 382.222C112.427 382.732 112.508 383.206 112.671 383.643C112.833 384.081 113.084 384.434 113.422 384.702C113.76 384.971 114.191 385.105 114.714 385.105ZM127.005 386.159C126.289 386.159 125.673 385.99 125.156 385.652C124.639 385.314 124.241 384.848 123.963 384.255C123.684 383.662 123.545 382.984 123.545 382.222C123.545 381.446 123.688 380.762 123.973 380.168C124.261 379.572 124.662 379.106 125.176 378.771C125.693 378.433 126.296 378.264 126.985 378.264C127.522 378.264 128.006 378.364 128.437 378.562C128.868 378.761 129.221 379.04 129.496 379.398C129.771 379.756 129.942 380.173 130.008 380.651H128.835C128.745 380.303 128.546 379.994 128.238 379.726C127.933 379.454 127.522 379.318 127.005 379.318C126.548 379.318 126.147 379.437 125.802 379.676C125.461 379.911 125.194 380.245 125.002 380.675C124.813 381.103 124.718 381.605 124.718 382.182C124.718 382.772 124.811 383.286 124.997 383.723C125.186 384.161 125.451 384.5 125.792 384.742C126.137 384.984 126.541 385.105 127.005 385.105C127.31 385.105 127.587 385.052 127.835 384.946C128.084 384.84 128.295 384.688 128.467 384.489C128.639 384.29 128.762 384.051 128.835 383.773H130.008C129.942 384.223 129.778 384.629 129.516 384.991C129.257 385.349 128.914 385.634 128.487 385.846C128.063 386.055 127.569 386.159 127.005 386.159ZM134.826 386.159C134.136 386.159 133.531 385.995 133.011 385.667C132.494 385.339 132.09 384.88 131.798 384.29C131.509 383.7 131.365 383.01 131.365 382.222C131.365 381.426 131.509 380.732 131.798 380.138C132.09 379.545 132.494 379.085 133.011 378.756C133.531 378.428 134.136 378.264 134.826 378.264C135.515 378.264 136.118 378.428 136.635 378.756C137.156 379.085 137.56 379.545 137.848 380.138C138.14 380.732 138.286 381.426 138.286 382.222C138.286 383.01 138.14 383.7 137.848 384.29C137.56 384.88 137.156 385.339 136.635 385.667C136.118 385.995 135.515 386.159 134.826 386.159ZM134.826 385.105C135.349 385.105 135.78 384.971 136.118 384.702C136.456 384.434 136.706 384.081 136.869 383.643C137.031 383.206 137.112 382.732 137.112 382.222C137.112 381.711 137.031 381.236 136.869 380.795C136.706 380.354 136.456 379.998 136.118 379.726C135.78 379.454 135.349 379.318 134.826 379.318C134.302 379.318 133.871 379.454 133.533 379.726C133.195 379.998 132.945 380.354 132.782 380.795C132.62 381.236 132.539 381.711 132.539 382.222C132.539 382.732 132.62 383.206 132.782 383.643C132.945 384.081 133.195 384.434 133.533 384.702C133.871 384.971 134.302 385.105 134.826 385.105ZM142.96 386.159C142.324 386.159 141.762 385.998 141.275 385.677C140.788 385.352 140.407 384.895 140.131 384.305C139.856 383.711 139.719 383.01 139.719 382.202C139.719 381.4 139.856 380.704 140.131 380.114C140.407 379.524 140.789 379.068 141.28 378.746C141.77 378.425 142.337 378.264 142.98 378.264C143.477 378.264 143.87 378.347 144.158 378.513C144.45 378.675 144.672 378.861 144.825 379.07C144.98 379.275 145.101 379.444 145.188 379.577H145.287V375.818H146.46V386H145.327V384.827H145.188C145.101 384.966 144.979 385.142 144.82 385.354C144.661 385.562 144.434 385.75 144.139 385.915C143.844 386.078 143.451 386.159 142.96 386.159ZM143.119 385.105C143.59 385.105 143.988 384.982 144.313 384.737C144.637 384.489 144.884 384.146 145.053 383.708C145.222 383.267 145.307 382.759 145.307 382.182C145.307 381.612 145.224 381.113 145.058 380.685C144.893 380.254 144.647 379.92 144.323 379.681C143.998 379.439 143.597 379.318 143.119 379.318C142.622 379.318 142.208 379.446 141.877 379.701C141.548 379.953 141.301 380.296 141.136 380.73C140.973 381.161 140.892 381.645 140.892 382.182C140.892 382.725 140.975 383.219 141.141 383.663C141.31 384.104 141.558 384.455 141.886 384.717C142.218 384.976 142.629 385.105 143.119 385.105ZM151.974 386.159C151.238 386.159 150.603 385.997 150.07 385.672C149.539 385.344 149.13 384.886 148.842 384.3C148.557 383.71 148.414 383.024 148.414 382.241C148.414 381.459 148.557 380.77 148.842 380.173C149.13 379.573 149.531 379.106 150.045 378.771C150.562 378.433 151.165 378.264 151.854 378.264C152.252 378.264 152.645 378.33 153.033 378.463C153.421 378.596 153.774 378.811 154.092 379.109C154.41 379.404 154.663 379.795 154.852 380.283C155.041 380.77 155.136 381.37 155.136 382.082V382.58H149.249V381.565H153.943C153.943 381.134 153.856 380.75 153.684 380.412C153.515 380.074 153.273 379.807 152.958 379.612C152.647 379.416 152.279 379.318 151.854 379.318C151.387 379.318 150.983 379.434 150.641 379.666C150.303 379.895 150.043 380.193 149.861 380.561C149.679 380.929 149.587 381.323 149.587 381.744V382.42C149.587 382.997 149.687 383.486 149.886 383.887C150.088 384.285 150.368 384.588 150.726 384.797C151.084 385.002 151.5 385.105 151.974 385.105C152.282 385.105 152.56 385.062 152.809 384.976C153.061 384.886 153.278 384.754 153.46 384.578C153.643 384.399 153.783 384.177 153.883 383.912L155.016 384.23C154.897 384.615 154.697 384.953 154.415 385.244C154.133 385.533 153.785 385.758 153.371 385.92C152.957 386.08 152.491 386.159 151.974 386.159Z" fill="#4B4B4B"/>
<rect opacity="0.1" x="16" y="418" width="44" height="44" rx="10" fill="url(#paint2_linear_54_1346)"/>
<path d="M37.0027 431.612C38.3533 431.978 39.1934 432.581 39.2085 433.336L39.209 438.65C39.1923 439.675 37.7833 440.183 37.0027 440.394C34.5176 441.067 30.6909 441.067 28.2057 440.394C26.8551 440.029 26.0153 439.426 26 438.671V433.336C26.0153 432.581 26.8551 431.978 28.2057 431.612C30.6909 430.94 34.5176 430.94 37.0027 431.612V431.612ZM43.31 435.075C42.8639 434.411 43.8476 433.712 44.2937 434.377L44.7955 435.127L46.8195 432.636C47.3239 432.016 48.242 432.806 47.7373 433.426L45.2083 436.537C44.957 436.846 44.4841 436.828 44.2581 436.492L43.31 435.075V435.075ZM45.54 430C48.0031 430 50 432.054 50 434.587C50 437.12 48.0031 439.174 45.54 439.174C43.0771 439.174 41.0802 437.12 41.0802 434.587C41.0802 432.054 43.0771 430 45.54 430ZM45.54 431.233C43.739 431.233 42.2792 432.735 42.2792 434.587C42.2792 436.439 43.739 437.94 45.54 437.94C47.341 437.94 48.8011 436.439 48.8011 434.587C48.8011 432.735 47.341 431.233 45.54 431.233ZM45.9566 447.752V446.488C45.6654 446.626 45.3273 446.747 44.9495 446.849C42.4644 447.521 38.6376 447.521 36.1525 446.849C35.7746 446.747 35.4366 446.626 35.1454 446.488V447.752C35.1454 447.884 35.6466 448.087 36.457 448.306C38.7309 448.921 42.371 448.921 44.645 448.306C45.4553 448.087 45.9566 447.884 45.9566 447.752ZM45.9566 445.105V443.841C45.6654 443.979 45.3273 444.1 44.9495 444.202C42.4649 444.875 38.637 444.875 36.1525 444.202C35.7743 444.1 35.4366 443.979 35.1454 443.841V445.105C35.1454 445.238 35.6466 445.44 36.457 445.659C38.7309 446.275 42.371 446.275 44.645 445.659C45.4553 445.44 45.9566 445.238 45.9566 445.105ZM47.1555 447.752C47.1387 448.777 45.7298 449.284 44.9495 449.496C42.4644 450.168 38.6376 450.168 36.1525 449.496C35.3722 449.284 33.9632 448.777 33.9465 447.752L33.9467 442.437C33.9618 441.682 34.8019 441.079 36.1525 440.714C38.6376 440.041 42.4644 440.041 44.9495 440.714C46.3001 441.079 47.1402 441.682 47.1552 442.437L47.1555 447.752ZM44.645 441.904C42.371 441.288 38.7309 441.288 36.457 441.904C35.6466 442.123 35.1454 442.325 35.1454 442.458C35.1454 442.591 35.6466 442.793 36.457 443.012C38.7303 443.628 42.3716 443.628 44.645 443.012C45.4553 442.793 45.9566 442.591 45.9566 442.458C45.9566 442.325 45.4553 442.123 44.645 441.904ZM38.0098 434.74C37.7189 434.877 37.3809 434.998 37.0027 435.101C34.5185 435.773 30.6903 435.773 28.2057 435.101C27.8279 434.998 27.4899 434.877 27.1986 434.74V436.003C27.1986 436.136 27.6999 436.338 28.5102 436.558C30.7842 437.173 34.4246 437.173 36.6982 436.558C37.5086 436.338 38.0098 436.136 38.0098 436.003V434.74V434.74ZM38.0098 437.387C37.7189 437.524 37.3809 437.645 37.0027 437.747C34.5176 438.42 30.6909 438.42 28.2057 437.747C27.8279 437.645 27.4899 437.524 27.1986 437.387V438.65C27.1986 438.783 27.6999 438.985 28.5102 439.204C30.7842 439.82 34.4246 439.82 36.6982 439.204C37.5086 438.985 38.0098 438.783 38.0098 438.65V437.387ZM36.6982 432.802C34.4246 432.187 30.7842 432.187 28.5102 432.802C27.6999 433.021 27.1986 433.223 27.1986 433.357C27.1986 433.489 27.6999 433.691 28.5102 433.911C30.7836 434.526 34.4249 434.526 36.6985 433.911C37.5086 433.691 38.0098 433.489 38.0098 433.357C38.0098 433.223 37.5086 433.021 36.6982 432.802Z" fill="#4B4B4B"/>
<path d="M78.0129 446H76.7203L80.4589 435.818H81.7316L85.4703 446H84.1776L81.135 437.429H81.0555L78.0129 446ZM78.4901 442.023H83.7004V443.116H78.4901V442.023ZM89.7806 446.159C89.1443 446.159 88.5825 445.998 88.0953 445.677C87.608 445.352 87.2269 444.895 86.9518 444.305C86.6767 443.711 86.5392 443.01 86.5392 442.202C86.5392 441.4 86.6767 440.704 86.9518 440.114C87.2269 439.524 87.6097 439.068 88.1002 438.746C88.5908 438.425 89.1575 438.264 89.8005 438.264C90.2977 438.264 90.6904 438.347 90.9788 438.513C91.2704 438.675 91.4925 438.861 91.645 439.07C91.8008 439.275 91.9217 439.444 92.0079 439.577H92.1073V435.818H93.2806V446H92.1471V444.827H92.0079C91.9217 444.966 91.7991 445.142 91.64 445.354C91.4809 445.562 91.2539 445.75 90.9589 445.915C90.6639 446.078 90.2712 446.159 89.7806 446.159ZM89.9397 445.105C90.4104 445.105 90.8081 444.982 91.1329 444.737C91.4577 444.489 91.7046 444.146 91.8737 443.708C92.0427 443.267 92.1272 442.759 92.1272 442.182C92.1272 441.612 92.0444 441.113 91.8786 440.685C91.7129 440.254 91.4677 439.92 91.1428 439.681C90.818 439.439 90.417 439.318 89.9397 439.318C89.4426 439.318 89.0283 439.446 88.6968 439.701C88.3687 439.953 88.1218 440.296 87.9561 440.73C87.7936 441.161 87.7124 441.645 87.7124 442.182C87.7124 442.725 87.7953 443.219 87.961 443.663C88.1301 444.104 88.3786 444.455 88.7068 444.717C89.0382 444.976 89.4492 445.105 89.9397 445.105ZM98.4759 446.159C97.8396 446.159 97.2778 445.998 96.7906 445.677C96.3034 445.352 95.9222 444.895 95.6471 444.305C95.372 443.711 95.2345 443.01 95.2345 442.202C95.2345 441.4 95.372 440.704 95.6471 440.114C95.9222 439.524 96.305 439.068 96.7955 438.746C97.2861 438.425 97.8528 438.264 98.4958 438.264C98.993 438.264 99.3857 438.347 99.6741 438.513C99.9658 438.675 100.188 438.861 100.34 439.07C100.496 439.275 100.617 439.444 100.703 439.577H100.803V435.818H101.976V446H100.842V444.827H100.703C100.617 444.966 100.494 445.142 100.335 445.354C100.176 445.562 99.9492 445.75 99.6542 445.915C99.3592 446.078 98.9665 446.159 98.4759 446.159ZM98.635 445.105C99.1057 445.105 99.5034 444.982 99.8282 444.737C100.153 444.489 100.4 444.146 100.569 443.708C100.738 443.267 100.823 442.759 100.823 442.182C100.823 441.612 100.74 441.113 100.574 440.685C100.408 440.254 100.163 439.92 99.8382 439.681C99.5133 439.439 99.1123 439.318 98.635 439.318C98.1379 439.318 97.7236 439.446 97.3921 439.701C97.064 439.953 96.8171 440.296 96.6514 440.73C96.489 441.161 96.4078 441.645 96.4078 442.182C96.4078 442.725 96.4906 443.219 96.6563 443.663C96.8254 444.104 97.074 444.455 97.4021 444.717C97.7335 444.976 98.1445 445.105 98.635 445.105ZM104.288 446V438.364H105.461V446H104.288ZM104.884 437.091C104.656 437.091 104.458 437.013 104.293 436.857C104.13 436.701 104.049 436.514 104.049 436.295C104.049 436.077 104.13 435.889 104.293 435.734C104.458 435.578 104.656 435.5 104.884 435.5C105.113 435.5 105.309 435.578 105.471 435.734C105.637 435.889 105.72 436.077 105.72 436.295C105.72 436.514 105.637 436.701 105.471 436.857C105.309 437.013 105.113 437.091 104.884 437.091ZM110.931 438.364V439.358H106.974V438.364H110.931ZM108.127 436.534H109.3V443.812C109.3 444.144 109.348 444.393 109.445 444.558C109.544 444.721 109.67 444.83 109.822 444.886C109.978 444.939 110.142 444.966 110.315 444.966C110.444 444.966 110.55 444.959 110.633 444.946C110.716 444.929 110.782 444.916 110.832 444.906L111.07 445.96C110.991 445.99 110.88 446.02 110.737 446.05C110.595 446.083 110.414 446.099 110.195 446.099C109.864 446.099 109.539 446.028 109.221 445.886C108.906 445.743 108.644 445.526 108.435 445.234C108.23 444.943 108.127 444.575 108.127 444.131V436.534ZM112.696 446V438.364H113.869V446H112.696ZM113.293 437.091C113.064 437.091 112.867 437.013 112.701 436.857C112.539 436.701 112.457 436.514 112.457 436.295C112.457 436.077 112.539 435.889 112.701 435.734C112.867 435.578 113.064 435.5 113.293 435.5C113.521 435.5 113.717 435.578 113.879 435.734C114.045 435.889 114.128 436.077 114.128 436.295C114.128 436.514 114.045 436.701 113.879 436.857C113.717 437.013 113.521 437.091 113.293 437.091ZM119.12 446.159C118.431 446.159 117.826 445.995 117.306 445.667C116.789 445.339 116.384 444.88 116.093 444.29C115.804 443.7 115.66 443.01 115.66 442.222C115.66 441.426 115.804 440.732 116.093 440.138C116.384 439.545 116.789 439.085 117.306 438.756C117.826 438.428 118.431 438.264 119.12 438.264C119.81 438.264 120.413 438.428 120.93 438.756C121.45 439.085 121.855 439.545 122.143 440.138C122.435 440.732 122.581 441.426 122.581 442.222C122.581 443.01 122.435 443.7 122.143 444.29C121.855 444.88 121.45 445.339 120.93 445.667C120.413 445.995 119.81 446.159 119.12 446.159ZM119.12 445.105C119.644 445.105 120.075 444.971 120.413 444.702C120.751 444.434 121.001 444.081 121.164 443.643C121.326 443.206 121.407 442.732 121.407 442.222C121.407 441.711 121.326 441.236 121.164 440.795C121.001 440.354 120.751 439.998 120.413 439.726C120.075 439.454 119.644 439.318 119.12 439.318C118.597 439.318 118.166 439.454 117.828 439.726C117.49 439.998 117.24 440.354 117.077 440.795C116.915 441.236 116.834 441.711 116.834 442.222C116.834 442.732 116.915 443.206 117.077 443.643C117.24 444.081 117.49 444.434 117.828 444.702C118.166 444.971 118.597 445.105 119.12 445.105ZM125.545 441.406V446H124.372V438.364H125.505V439.557H125.605C125.784 439.169 126.055 438.857 126.42 438.622C126.785 438.384 127.255 438.264 127.832 438.264C128.349 438.264 128.801 438.37 129.189 438.582C129.577 438.791 129.879 439.109 130.094 439.537C130.309 439.961 130.417 440.498 130.417 441.148V446H129.244V441.227C129.244 440.627 129.088 440.16 128.777 439.825C128.465 439.487 128.037 439.318 127.494 439.318C127.119 439.318 126.785 439.399 126.49 439.562C126.198 439.724 125.968 439.961 125.799 440.273C125.63 440.584 125.545 440.962 125.545 441.406ZM134.808 446.179C134.324 446.179 133.885 446.088 133.491 445.906C133.096 445.72 132.783 445.453 132.551 445.105C132.319 444.754 132.203 444.33 132.203 443.832C132.203 443.395 132.289 443.04 132.462 442.768C132.634 442.493 132.864 442.278 133.153 442.122C133.441 441.966 133.759 441.85 134.107 441.774C134.459 441.695 134.812 441.632 135.166 441.585C135.63 441.526 136.006 441.481 136.295 441.451C136.587 441.418 136.799 441.363 136.931 441.287C137.067 441.211 137.135 441.078 137.135 440.889V440.849C137.135 440.359 137.001 439.978 136.732 439.706C136.467 439.434 136.064 439.298 135.524 439.298C134.964 439.298 134.525 439.421 134.207 439.666C133.889 439.911 133.665 440.173 133.536 440.452L132.422 440.054C132.621 439.59 132.886 439.229 133.217 438.97C133.552 438.708 133.917 438.526 134.311 438.423C134.709 438.317 135.1 438.264 135.484 438.264C135.73 438.264 136.011 438.294 136.33 438.354C136.651 438.41 136.961 438.528 137.259 438.707C137.561 438.886 137.811 439.156 138.01 439.517C138.209 439.878 138.308 440.362 138.308 440.969V446H137.135V444.966H137.075C136.996 445.132 136.863 445.309 136.678 445.498C136.492 445.687 136.245 445.848 135.937 445.98C135.629 446.113 135.252 446.179 134.808 446.179ZM134.987 445.125C135.451 445.125 135.842 445.034 136.161 444.852C136.482 444.669 136.724 444.434 136.886 444.146C137.052 443.857 137.135 443.554 137.135 443.236V442.162C137.085 442.222 136.976 442.276 136.807 442.326C136.641 442.372 136.449 442.414 136.23 442.45C136.015 442.483 135.804 442.513 135.599 442.54C135.397 442.563 135.233 442.583 135.107 442.599C134.802 442.639 134.517 442.704 134.252 442.793C133.99 442.879 133.778 443.01 133.615 443.186C133.456 443.358 133.377 443.594 133.377 443.892C133.377 444.3 133.527 444.608 133.829 444.817C134.134 445.022 134.52 445.125 134.987 445.125ZM141.623 435.818V446H140.45V435.818H141.623ZM147.71 446V438.364H148.883V446H147.71ZM148.306 437.091C148.078 437.091 147.88 437.013 147.715 436.857C147.552 436.701 147.471 436.514 147.471 436.295C147.471 436.077 147.552 435.889 147.715 435.734C147.88 435.578 148.078 435.5 148.306 435.5C148.535 435.5 148.73 435.578 148.893 435.734C149.059 435.889 149.141 436.077 149.141 436.295C149.141 436.514 149.059 436.701 148.893 436.857C148.73 437.013 148.535 437.091 148.306 437.091ZM152.205 441.406V446H151.032V438.364H152.165V439.557H152.265C152.444 439.169 152.716 438.857 153.08 438.622C153.445 438.384 153.915 438.264 154.492 438.264C155.009 438.264 155.462 438.37 155.849 438.582C156.237 438.791 156.539 439.109 156.754 439.537C156.97 439.961 157.077 440.498 157.077 441.148V446H155.904V441.227C155.904 440.627 155.748 440.16 155.437 439.825C155.125 439.487 154.698 439.318 154.154 439.318C153.78 439.318 153.445 439.399 153.15 439.562C152.858 439.724 152.628 439.961 152.459 440.273C152.29 440.584 152.205 440.962 152.205 441.406ZM162.324 446.159C161.608 446.159 160.991 445.99 160.474 445.652C159.957 445.314 159.559 444.848 159.281 444.255C159.003 443.662 158.863 442.984 158.863 442.222C158.863 441.446 159.006 440.762 159.291 440.168C159.579 439.572 159.98 439.106 160.494 438.771C161.011 438.433 161.614 438.264 162.304 438.264C162.841 438.264 163.325 438.364 163.755 438.562C164.186 438.761 164.539 439.04 164.814 439.398C165.089 439.756 165.26 440.173 165.326 440.651H164.153C164.064 440.303 163.865 439.994 163.557 439.726C163.252 439.454 162.841 439.318 162.324 439.318C161.866 439.318 161.465 439.437 161.12 439.676C160.779 439.911 160.512 440.245 160.32 440.675C160.131 441.103 160.037 441.605 160.037 442.182C160.037 442.772 160.129 443.286 160.315 443.723C160.504 444.161 160.769 444.5 161.111 444.742C161.455 444.984 161.86 445.105 162.324 445.105C162.629 445.105 162.905 445.052 163.154 444.946C163.402 444.84 163.613 444.688 163.785 444.489C163.958 444.29 164.08 444.051 164.153 443.773H165.326C165.26 444.223 165.096 444.629 164.834 444.991C164.576 445.349 164.233 445.634 163.805 445.846C163.381 446.055 162.887 446.159 162.324 446.159ZM170.144 446.159C169.455 446.159 168.85 445.995 168.329 445.667C167.812 445.339 167.408 444.88 167.116 444.29C166.828 443.7 166.684 443.01 166.684 442.222C166.684 441.426 166.828 440.732 167.116 440.138C167.408 439.545 167.812 439.085 168.329 438.756C168.85 438.428 169.455 438.264 170.144 438.264C170.833 438.264 171.437 438.428 171.954 438.756C172.474 439.085 172.878 439.545 173.167 440.138C173.458 440.732 173.604 441.426 173.604 442.222C173.604 443.01 173.458 443.7 173.167 444.29C172.878 444.88 172.474 445.339 171.954 445.667C171.437 445.995 170.833 446.159 170.144 446.159ZM170.144 445.105C170.668 445.105 171.098 444.971 171.437 444.702C171.775 444.434 172.025 444.081 172.187 443.643C172.35 443.206 172.431 442.732 172.431 442.222C172.431 441.711 172.35 441.236 172.187 440.795C172.025 440.354 171.775 439.998 171.437 439.726C171.098 439.454 170.668 439.318 170.144 439.318C169.62 439.318 169.189 439.454 168.851 439.726C168.513 439.998 168.263 440.354 168.101 440.795C167.938 441.236 167.857 441.711 167.857 442.222C167.857 442.732 167.938 443.206 168.101 443.643C168.263 444.081 168.513 444.434 168.851 444.702C169.189 444.971 169.62 445.105 170.144 445.105ZM175.395 446V438.364H176.529V439.557H176.628C176.787 439.149 177.044 438.833 177.399 438.607C177.753 438.379 178.179 438.264 178.676 438.264C179.18 438.264 179.599 438.379 179.934 438.607C180.272 438.833 180.536 439.149 180.725 439.557H180.804C181 439.162 181.293 438.849 181.684 438.617C182.075 438.382 182.544 438.264 183.091 438.264C183.774 438.264 184.332 438.478 184.767 438.906C185.201 439.33 185.418 439.991 185.418 440.889V446H184.245V440.889C184.245 440.326 184.09 439.923 183.782 439.681C183.474 439.439 183.111 439.318 182.693 439.318C182.157 439.318 181.741 439.481 181.446 439.805C181.151 440.127 181.003 440.535 181.003 441.028V446H179.81V440.77C179.81 440.336 179.669 439.986 179.387 439.721C179.106 439.452 178.743 439.318 178.299 439.318C177.994 439.318 177.709 439.399 177.443 439.562C177.182 439.724 176.969 439.95 176.807 440.238C176.648 440.523 176.568 440.853 176.568 441.227V446H175.395ZM190.765 446.159C190.029 446.159 189.394 445.997 188.861 445.672C188.33 445.344 187.921 444.886 187.633 444.3C187.348 443.71 187.205 443.024 187.205 442.241C187.205 441.459 187.348 440.77 187.633 440.173C187.921 439.573 188.322 439.106 188.836 438.771C189.353 438.433 189.956 438.264 190.646 438.264C191.043 438.264 191.436 438.33 191.824 438.463C192.212 438.596 192.565 438.811 192.883 439.109C193.201 439.404 193.454 439.795 193.643 440.283C193.832 440.77 193.927 441.37 193.927 442.082V442.58H188.04V441.565H192.734C192.734 441.134 192.647 440.75 192.475 440.412C192.306 440.074 192.064 439.807 191.749 439.612C191.438 439.416 191.07 439.318 190.646 439.318C190.178 439.318 189.774 439.434 189.432 439.666C189.094 439.895 188.834 440.193 188.652 440.561C188.47 440.929 188.378 441.323 188.378 441.744V442.42C188.378 442.997 188.478 443.486 188.677 443.887C188.879 444.285 189.159 444.588 189.517 444.797C189.875 445.002 190.291 445.105 190.765 445.105C191.073 445.105 191.351 445.062 191.6 444.976C191.852 444.886 192.069 444.754 192.251 444.578C192.434 444.399 192.574 444.177 192.674 443.912L193.807 444.23C193.688 444.615 193.488 444.953 193.206 445.244C192.924 445.533 192.576 445.758 192.162 445.92C191.748 446.08 191.282 446.159 190.765 446.159Z" fill="#4B4B4B"/>
<rect opacity="0.1" x="16" y="472" width="44" height="44" rx="10" fill="url(#paint3_linear_54_1346)"/>
<path fill-rule="evenodd" clip-rule="evenodd" d="M35.6629 489.869C35.8361 489.779 36.0451 489.792 36.2051 489.904L41.4432 493.571C41.5833 493.669 41.6667 493.829 41.6667 494C41.6667 494.171 41.5833 494.331 41.4432 494.429L36.2051 498.096C36.0451 498.208 35.8361 498.222 35.6629 498.131C35.4896 498.041 35.381 497.862 35.381 497.667V490.333C35.381 490.138 35.4896 489.959 35.6629 489.869ZM36.4286 491.339V496.661L40.2294 494L36.4286 491.339Z" fill="#4B4B4B"/>
<path fill-rule="evenodd" clip-rule="evenodd" d="M38 484.048C32.5034 484.048 28.0476 488.503 28.0476 494C28.0476 499.497 32.5034 503.952 38 503.952C43.4965 503.952 47.9524 499.497 47.9524 494C47.9524 488.503 43.4965 484.048 38 484.048ZM27 494C27 487.925 31.9249 483 38 483C44.0751 483 49 487.925 49 494C49 500.075 44.0751 505 38 505C31.9249 505 27 500.075 27 494Z" fill="#4B4B4B"/>
<path fill-rule="evenodd" clip-rule="evenodd" d="M38 487.714C34.5285 487.714 31.7143 490.529 31.7143 494C31.7143 497.472 34.5285 500.286 38 500.286C41.4715 500.286 44.2857 497.472 44.2857 494C44.2857 490.529 41.4715 487.714 38 487.714ZM30.6667 494C30.6667 489.95 33.9499 486.667 38 486.667C42.0501 486.667 45.3333 489.95 45.3333 494C45.3333 498.05 42.0501 501.333 38 501.333C33.9499 501.333 30.6667 498.05 30.6667 494Z" fill="#4B4B4B"/>
<path d="M82.9037 492.364C82.844 491.86 82.6021 491.469 82.1778 491.19C81.7536 490.912 81.2332 490.773 80.6167 490.773C80.166 490.773 79.7716 490.846 79.4335 490.991C79.0988 491.137 78.8369 491.338 78.648 491.593C78.4624 491.848 78.3696 492.138 78.3696 492.463C78.3696 492.735 78.4342 492.969 78.5635 493.164C78.6961 493.356 78.8651 493.517 79.0706 493.646C79.2761 493.772 79.4915 493.877 79.7169 493.96C79.9423 494.039 80.1494 494.104 80.3383 494.153L81.3724 494.432C81.6376 494.501 81.9326 494.598 82.2574 494.72C82.5855 494.843 82.8987 495.01 83.197 495.222C83.4986 495.431 83.7472 495.7 83.9427 496.028C84.1383 496.356 84.2361 496.759 84.2361 497.236C84.2361 497.786 84.0919 498.283 83.8035 498.727C83.5185 499.171 83.1009 499.524 82.5507 499.786C82.0038 500.048 81.3393 500.179 80.5571 500.179C79.8279 500.179 79.1965 500.061 78.6629 499.826C78.1326 499.591 77.715 499.263 77.4101 498.842C77.1085 498.421 76.9378 497.932 76.898 497.375H78.1707C78.2039 497.759 78.3331 498.078 78.5585 498.33C78.7872 498.578 79.0756 498.764 79.4236 498.886C79.7749 499.006 80.1527 499.065 80.5571 499.065C81.0277 499.065 81.4503 498.989 81.8248 498.837C82.1994 498.681 82.496 498.465 82.7148 498.19C82.9335 497.912 83.0429 497.587 83.0429 497.216C83.0429 496.878 82.9484 496.603 82.7595 496.391C82.5706 496.179 82.322 496.006 82.0138 495.874C81.7055 495.741 81.3724 495.625 81.0145 495.526L79.7616 495.168C78.9662 494.939 78.3364 494.612 77.8724 494.188C77.4084 493.764 77.1764 493.209 77.1764 492.523C77.1764 491.953 77.3305 491.455 77.6388 491.031C77.9503 490.604 78.3679 490.272 78.8916 490.037C79.4186 489.798 80.0069 489.679 80.6565 489.679C81.3128 489.679 81.8961 489.797 82.4065 490.032C82.9169 490.264 83.3213 490.582 83.6196 490.987C83.9212 491.391 84.0803 491.85 84.0969 492.364H82.9037ZM89.2064 500.159C88.517 500.159 87.9121 499.995 87.3918 499.667C86.8747 499.339 86.4704 498.88 86.1787 498.29C85.8904 497.7 85.7462 497.01 85.7462 496.222C85.7462 495.426 85.8904 494.732 86.1787 494.138C86.4704 493.545 86.8747 493.085 87.3918 492.756C87.9121 492.428 88.517 492.264 89.2064 492.264C89.8958 492.264 90.499 492.428 91.0161 492.756C91.5364 493.085 91.9408 493.545 92.2291 494.138C92.5208 494.732 92.6666 495.426 92.6666 496.222C92.6666 497.01 92.5208 497.7 92.2291 498.29C91.9408 498.88 91.5364 499.339 91.0161 499.667C90.499 499.995 89.8958 500.159 89.2064 500.159ZM89.2064 499.105C89.7301 499.105 90.161 498.971 90.499 498.702C90.8371 498.434 91.0873 498.081 91.2497 497.643C91.4121 497.206 91.4933 496.732 91.4933 496.222C91.4933 495.711 91.4121 495.236 91.2497 494.795C91.0873 494.354 90.8371 493.998 90.499 493.726C90.161 493.454 89.7301 493.318 89.2064 493.318C88.6827 493.318 88.2519 493.454 87.9138 493.726C87.5757 493.998 87.3255 494.354 87.1631 494.795C87.0007 495.236 86.9195 495.711 86.9195 496.222C86.9195 496.732 87.0007 497.206 87.1631 497.643C87.3255 498.081 87.5757 498.434 87.9138 498.702C88.2519 498.971 88.6827 499.105 89.2064 499.105ZM97.5599 500.159C96.844 500.159 96.2275 499.99 95.7105 499.652C95.1934 499.314 94.7957 498.848 94.5173 498.255C94.2389 497.662 94.0997 496.984 94.0997 496.222C94.0997 495.446 94.2422 494.762 94.5273 494.168C94.8156 493.572 95.2166 493.106 95.7304 492.771C96.2474 492.433 96.8506 492.264 97.54 492.264C98.077 492.264 98.5609 492.364 98.9917 492.562C99.4226 492.761 99.7756 493.04 100.051 493.398C100.326 493.756 100.496 494.173 100.563 494.651H99.3895C99.3 494.303 99.1011 493.994 98.7929 493.726C98.488 493.454 98.077 493.318 97.5599 493.318C97.1025 493.318 96.7015 493.437 96.3568 493.676C96.0154 493.911 95.7486 494.245 95.5564 494.675C95.3675 495.103 95.273 495.605 95.273 496.182C95.273 496.772 95.3658 497.286 95.5514 497.723C95.7403 498.161 96.0055 498.5 96.3469 498.742C96.6916 498.984 97.0959 499.105 97.5599 499.105C97.8648 499.105 98.1416 499.052 98.3902 498.946C98.6388 498.84 98.8492 498.688 99.0216 498.489C99.1939 498.29 99.3166 498.051 99.3895 497.773H100.563C100.496 498.223 100.332 498.629 100.071 498.991C99.8121 499.349 99.469 499.634 99.0415 499.846C98.6172 500.055 98.1234 500.159 97.5599 500.159ZM102.278 500V492.364H103.451V500H102.278ZM102.875 491.091C102.646 491.091 102.449 491.013 102.283 490.857C102.121 490.701 102.039 490.514 102.039 490.295C102.039 490.077 102.121 489.889 102.283 489.734C102.449 489.578 102.646 489.5 102.875 489.5C103.103 489.5 103.299 489.578 103.461 489.734C103.627 489.889 103.71 490.077 103.71 490.295C103.71 490.514 103.627 490.701 103.461 490.857C103.299 491.013 103.103 491.091 102.875 491.091ZM107.847 500.179C107.363 500.179 106.924 500.088 106.53 499.906C106.136 499.72 105.822 499.453 105.59 499.105C105.358 498.754 105.242 498.33 105.242 497.832C105.242 497.395 105.328 497.04 105.501 496.768C105.673 496.493 105.903 496.278 106.192 496.122C106.48 495.966 106.798 495.85 107.146 495.774C107.498 495.695 107.851 495.632 108.205 495.585C108.669 495.526 109.046 495.481 109.334 495.451C109.626 495.418 109.838 495.363 109.97 495.287C110.106 495.211 110.174 495.078 110.174 494.889V494.849C110.174 494.359 110.04 493.978 109.771 493.706C109.506 493.434 109.104 493.298 108.563 493.298C108.003 493.298 107.564 493.421 107.246 493.666C106.928 493.911 106.704 494.173 106.575 494.452L105.461 494.054C105.66 493.59 105.925 493.229 106.256 492.97C106.591 492.708 106.956 492.526 107.35 492.423C107.748 492.317 108.139 492.264 108.524 492.264C108.769 492.264 109.051 492.294 109.369 492.354C109.69 492.41 110 492.528 110.298 492.707C110.6 492.886 110.85 493.156 111.049 493.517C111.248 493.878 111.347 494.362 111.347 494.969V500H110.174V498.966H110.114C110.035 499.132 109.902 499.309 109.717 499.498C109.531 499.687 109.284 499.848 108.976 499.98C108.668 500.113 108.292 500.179 107.847 500.179ZM108.026 499.125C108.49 499.125 108.881 499.034 109.2 498.852C109.521 498.669 109.763 498.434 109.926 498.146C110.091 497.857 110.174 497.554 110.174 497.236V496.162C110.124 496.222 110.015 496.276 109.846 496.326C109.68 496.372 109.488 496.414 109.269 496.45C109.054 496.483 108.843 496.513 108.638 496.54C108.436 496.563 108.272 496.583 108.146 496.599C107.841 496.639 107.556 496.704 107.291 496.793C107.029 496.879 106.817 497.01 106.654 497.186C106.495 497.358 106.416 497.594 106.416 497.892C106.416 498.3 106.566 498.608 106.868 498.817C107.173 499.022 107.559 499.125 108.026 499.125ZM114.662 489.818V500H113.489V489.818H114.662ZM120.749 500V492.364H121.882V493.557H121.982C122.141 493.149 122.398 492.833 122.752 492.607C123.107 492.379 123.533 492.264 124.03 492.264C124.534 492.264 124.953 492.379 125.288 492.607C125.626 492.833 125.889 493.149 126.078 493.557H126.158C126.353 493.162 126.647 492.849 127.038 492.617C127.429 492.382 127.898 492.264 128.445 492.264C129.127 492.264 129.686 492.478 130.12 492.906C130.554 493.33 130.771 493.991 130.771 494.889V500H129.598V494.889C129.598 494.326 129.444 493.923 129.136 493.681C128.828 493.439 128.465 493.318 128.047 493.318C127.51 493.318 127.094 493.481 126.799 493.805C126.504 494.127 126.357 494.535 126.357 495.028V500H125.163V494.77C125.163 494.336 125.023 493.986 124.741 493.721C124.459 493.452 124.096 493.318 123.652 493.318C123.347 493.318 123.062 493.399 122.797 493.562C122.535 493.724 122.323 493.95 122.161 494.238C122.002 494.523 121.922 494.853 121.922 495.227V500H120.749ZM136.118 500.159C135.383 500.159 134.748 499.997 134.214 499.672C133.684 499.344 133.275 498.886 132.986 498.3C132.701 497.71 132.559 497.024 132.559 496.241C132.559 495.459 132.701 494.77 132.986 494.173C133.275 493.573 133.676 493.106 134.189 492.771C134.706 492.433 135.31 492.264 135.999 492.264C136.397 492.264 136.79 492.33 137.177 492.463C137.565 492.596 137.918 492.811 138.236 493.109C138.554 493.404 138.808 493.795 138.997 494.283C139.186 494.77 139.28 495.37 139.28 496.082V496.58H133.394V495.565H138.087C138.087 495.134 138.001 494.75 137.829 494.412C137.66 494.074 137.418 493.807 137.103 493.612C136.791 493.416 136.423 493.318 135.999 493.318C135.532 493.318 135.127 493.434 134.786 493.666C134.448 493.895 134.188 494.193 134.005 494.561C133.823 494.929 133.732 495.323 133.732 495.744V496.42C133.732 496.997 133.831 497.486 134.03 497.887C134.232 498.285 134.513 498.588 134.87 498.797C135.228 499.002 135.644 499.105 136.118 499.105C136.427 499.105 136.705 499.062 136.954 498.976C137.205 498.886 137.423 498.754 137.605 498.578C137.787 498.399 137.928 498.177 138.027 497.912L139.161 498.23C139.042 498.615 138.841 498.953 138.559 499.244C138.278 499.533 137.93 499.758 137.515 499.92C137.101 500.08 136.635 500.159 136.118 500.159ZM143.949 500.159C143.312 500.159 142.75 499.998 142.263 499.677C141.776 499.352 141.395 498.895 141.12 498.305C140.845 497.711 140.707 497.01 140.707 496.202C140.707 495.4 140.845 494.704 141.12 494.114C141.395 493.524 141.778 493.068 142.268 492.746C142.759 492.425 143.325 492.264 143.968 492.264C144.466 492.264 144.858 492.347 145.147 492.513C145.438 492.675 145.66 492.861 145.813 493.07C145.969 493.275 146.09 493.444 146.176 493.577H146.275V489.818H147.449V500H146.315V498.827H146.176C146.09 498.966 145.967 499.142 145.808 499.354C145.649 499.562 145.422 499.75 145.127 499.915C144.832 500.078 144.439 500.159 143.949 500.159ZM144.108 499.105C144.578 499.105 144.976 498.982 145.301 498.737C145.626 498.489 145.873 498.146 146.042 497.708C146.211 497.267 146.295 496.759 146.295 496.182C146.295 495.612 146.212 495.113 146.047 494.685C145.881 494.254 145.636 493.92 145.311 493.681C144.986 493.439 144.585 493.318 144.108 493.318C143.611 493.318 143.196 493.446 142.865 493.701C142.537 493.953 142.29 494.296 142.124 494.73C141.962 495.161 141.88 495.645 141.88 496.182C141.88 496.725 141.963 497.219 142.129 497.663C142.298 498.104 142.547 498.455 142.875 498.717C143.206 498.976 143.617 499.105 144.108 499.105ZM149.76 500V492.364H150.934V500H149.76ZM150.357 491.091C150.128 491.091 149.931 491.013 149.765 490.857C149.603 490.701 149.522 490.514 149.522 490.295C149.522 490.077 149.603 489.889 149.765 489.734C149.931 489.578 150.128 489.5 150.357 489.5C150.586 489.5 150.781 489.578 150.944 489.734C151.109 489.889 151.192 490.077 151.192 490.295C151.192 490.514 151.109 490.701 150.944 490.857C150.781 491.013 150.586 491.091 150.357 491.091ZM155.33 500.179C154.846 500.179 154.407 500.088 154.012 499.906C153.618 499.72 153.305 499.453 153.073 499.105C152.841 498.754 152.725 498.33 152.725 497.832C152.725 497.395 152.811 497.04 152.983 496.768C153.156 496.493 153.386 496.278 153.674 496.122C153.963 495.966 154.281 495.85 154.629 495.774C154.98 495.695 155.333 495.632 155.688 495.585C156.152 495.526 156.528 495.481 156.816 495.451C157.108 495.418 157.32 495.363 157.453 495.287C157.589 495.211 157.657 495.078 157.657 494.889V494.849C157.657 494.359 157.522 493.978 157.254 493.706C156.989 493.434 156.586 493.298 156.046 493.298C155.486 493.298 155.046 493.421 154.728 493.666C154.41 493.911 154.186 494.173 154.057 494.452L152.943 494.054C153.142 493.59 153.407 493.229 153.739 492.97C154.074 492.708 154.438 492.526 154.833 492.423C155.23 492.317 155.621 492.264 156.006 492.264C156.251 492.264 156.533 492.294 156.851 492.354C157.173 492.41 157.483 492.528 157.781 492.707C158.082 492.886 158.333 493.156 158.532 493.517C158.73 493.878 158.83 494.362 158.83 494.969V500H157.657V498.966H157.597C157.517 499.132 157.385 499.309 157.199 499.498C157.014 499.687 156.767 499.848 156.458 499.98C156.15 500.113 155.774 500.179 155.33 500.179ZM155.509 499.125C155.973 499.125 156.364 499.034 156.682 498.852C157.004 498.669 157.246 498.434 157.408 498.146C157.574 497.857 157.657 497.554 157.657 497.236V496.162C157.607 496.222 157.497 496.276 157.328 496.326C157.163 496.372 156.97 496.414 156.752 496.45C156.536 496.483 156.326 496.513 156.12 496.54C155.918 496.563 155.754 496.583 155.628 496.599C155.323 496.639 155.038 496.704 154.773 496.793C154.511 496.879 154.299 497.01 154.137 497.186C153.978 497.358 153.898 497.594 153.898 497.892C153.898 498.3 154.049 498.608 154.35 498.817C154.655 499.022 155.041 499.125 155.509 499.125Z" fill="#4B4B4B"/>
<defs>
<linearGradient id="paint0_linear_54_1346" x1="16" y1="299.06" x2="61.8997" y2="301.197" gradientUnits="userSpaceOnUse">
<stop stop-color="#BFC3FC"/>
<stop offset="1" stop-color="#A2C3FC"/>
</linearGradient>
<linearGradient id="paint1_linear_54_1346" x1="16" y1="359.06" x2="61.8997" y2="361.197" gradientUnits="userSpaceOnUse">
<stop stop-color="#BFC3FC"/>
<stop offset="1" stop-color="#A2C3FC"/>
</linearGradient>
<linearGradient id="paint2_linear_54_1346" x1="16" y1="419.06" x2="61.8997" y2="421.197" gradientUnits="userSpaceOnUse">
<stop stop-color="#BFC3FC"/>
<stop offset="1" stop-color="#A2C3FC"/>
</linearGradient>
<linearGradient id="paint3_linear_54_1346" x1="16" y1="473.06" x2="61.8997" y2="475.197" gradientUnits="userSpaceOnUse">
<stop stop-color="#BFC3FC"/>
<stop offset="1" stop-color="#A2C3FC"/>
</linearGradient>
</defs>
</svg>
