<svg width="196" height="44" viewBox="0 0 196 44" fill="none" xmlns="http://www.w3.org/2000/svg">
<rect opacity="0.1" width="44" height="44" rx="10" fill="url(#paint0_linear_44_499)"/>
<path d="M24.6481 20.7355C23.8662 21.2331 22.9445 21.5 21.9998 21.5C20.7323 21.5 19.5214 21.0203 18.6323 20.1735C17.744 19.3275 17.2498 18.1854 17.2498 17C17.2498 16.1156 17.525 15.2488 18.0439 14.5093C18.5629 13.7695 19.3033 13.1892 20.1742 12.8457C21.0451 12.5021 22.0048 12.4119 22.9309 12.5873C23.8569 12.7628 24.7044 13.1952 25.3672 13.8265C26.0298 14.4576 26.4781 15.2586 26.6594 16.1268C26.8407 16.9948 26.7479 17.8947 26.3916 18.714C26.0351 19.5336 25.4297 20.2381 24.6481 20.7355ZM24.3516 13.6086C23.6534 13.1644 22.835 12.9286 21.9998 12.9286C20.8802 12.9286 19.802 13.3519 19.0033 14.1126C18.2038 14.874 17.7498 15.9121 17.7498 17C17.7498 17.8108 18.0023 18.6013 18.4724 19.2713C18.9423 19.9411 19.6075 20.4595 20.3812 20.7647C21.1548 21.0699 22.0047 21.1494 22.8244 20.9941C23.6442 20.8388 24.4004 20.4549 24.9962 19.8875C25.5923 19.3198 26.0012 18.5935 26.1671 17.799C26.3331 17.0043 26.2477 16.1808 25.9228 15.4339C25.5981 14.6872 25.05 14.0531 24.3516 13.6086Z" stroke="#4B4B4B"/>
<path d="M14.0484 30.5131L13.9829 31.0714H14.545H29.455H30.0171L29.9516 30.5131C29.752 28.8131 28.9023 27.2481 27.5723 26.1146C26.2429 24.9817 24.526 24.358 22.7502 24.3572H22.75L21.25 24.3572L21.2498 24.3572C19.474 24.358 17.7571 24.9817 16.4277 26.1146C15.0977 27.2481 14.248 28.8131 14.0484 30.5131ZM21.25 23.9286H22.75C24.8131 23.9286 26.7871 24.7093 28.2388 26.092C29.6897 27.4738 30.5 29.3426 30.5 31.2857C30.5 31.3345 30.4799 31.3865 30.4355 31.4287C30.3903 31.4718 30.324 31.5 30.25 31.5H13.75C13.676 31.5 13.6097 31.4718 13.5645 31.4287C13.5201 31.3865 13.5 31.3345 13.5 31.2857C13.5 29.3426 14.3103 27.4738 15.7612 26.092C17.2129 24.7093 19.1869 23.9286 21.25 23.9286Z" stroke="#4B4B4B"/>
<path d="M61.2427 28V17.8182H64.6831C65.4818 17.8182 66.1348 17.9624 66.6419 18.2507C67.1523 18.5357 67.5301 18.9219 67.7754 19.4091C68.0207 19.8963 68.1433 20.4399 68.1433 21.0398C68.1433 21.6397 68.0207 22.1849 67.7754 22.6754C67.5334 23.166 67.1589 23.5571 66.6518 23.8487C66.1447 24.1371 65.4951 24.2812 64.7029 24.2812H62.237V23.1875H64.6632C65.21 23.1875 65.6492 23.093 65.9806 22.9041C66.3121 22.7152 66.5524 22.46 66.7015 22.1385C66.854 21.8137 66.9302 21.4474 66.9302 21.0398C66.9302 20.6321 66.854 20.2675 66.7015 19.946C66.5524 19.6245 66.3104 19.3726 65.9757 19.1903C65.6409 19.0047 65.1968 18.9119 64.6433 18.9119H62.4757V28H61.2427ZM73.09 28.1591C72.3542 28.1591 71.7195 27.9967 71.1859 27.6719C70.6556 27.3438 70.2463 26.8864 69.9579 26.2997C69.6729 25.7098 69.5304 25.0237 69.5304 24.2415C69.5304 23.4593 69.6729 22.7699 69.9579 22.1733C70.2463 21.5734 70.6473 21.1061 71.161 20.7713C71.6781 20.4332 72.2813 20.2642 72.9707 20.2642C73.3684 20.2642 73.7612 20.3305 74.149 20.4631C74.5368 20.5956 74.8897 20.8111 75.2079 21.1094C75.5261 21.4044 75.7797 21.7955 75.9686 22.2827C76.1575 22.7699 76.252 23.3698 76.252 24.0824V24.5795H70.3656V23.5653H75.0588C75.0588 23.1345 74.9726 22.75 74.8002 22.4119C74.6312 22.0739 74.3893 21.8071 74.0744 21.6115C73.7628 21.416 73.3949 21.3182 72.9707 21.3182C72.5034 21.3182 72.099 21.4342 71.7576 21.6662C71.4196 21.8949 71.1594 22.1932 70.9771 22.5611C70.7948 22.929 70.7037 23.3234 70.7037 23.7443V24.4205C70.7037 24.9972 70.8031 25.486 71.002 25.8871C71.2041 26.2848 71.4842 26.5881 71.8422 26.7969C72.2001 27.0024 72.6161 27.1051 73.09 27.1051C73.3983 27.1051 73.6767 27.062 73.9252 26.9759C74.1771 26.8864 74.3942 26.7538 74.5765 26.5781C74.7588 26.3991 74.8997 26.1771 74.9991 25.9119L76.1326 26.2301C76.0133 26.6146 75.8128 26.9527 75.5311 27.2443C75.2493 27.5327 74.9013 27.758 74.487 27.9205C74.0727 28.0795 73.6071 28.1591 73.09 28.1591ZM78.0368 28V20.3636H79.1703V21.517H79.2498C79.389 21.1392 79.6409 20.8326 80.0055 20.5973C80.3701 20.362 80.7811 20.2443 81.2385 20.2443C81.3246 20.2443 81.4324 20.246 81.5616 20.2493C81.6909 20.2526 81.7886 20.2576 81.8549 20.2642V21.4574C81.8152 21.4474 81.724 21.4325 81.5815 21.4126C81.4423 21.3894 81.2948 21.3778 81.139 21.3778C80.7678 21.3778 80.4364 21.4557 80.1447 21.6115C79.8564 21.764 79.6277 21.9761 79.4586 22.2479C79.2929 22.5163 79.21 22.8229 79.21 23.1676V28H78.0368ZM88.6548 22.0739L87.6009 22.3722C87.5346 22.1965 87.4368 22.0258 87.3075 21.8601C87.1816 21.6911 87.0092 21.5518 86.7905 21.4425C86.5717 21.3331 86.2917 21.2784 85.9503 21.2784C85.483 21.2784 85.0935 21.3861 84.782 21.6016C84.4737 21.8137 84.3196 22.0838 84.3196 22.4119C84.3196 22.7036 84.4257 22.9339 84.6378 23.103C84.8499 23.272 85.1813 23.4129 85.6321 23.5256L86.7656 23.804C87.4484 23.9697 87.9571 24.2232 88.2919 24.5646C88.6267 24.9027 88.794 25.3385 88.794 25.8722C88.794 26.3097 88.6681 26.7008 88.4162 27.0455C88.1676 27.3902 87.8196 27.6619 87.3722 27.8608C86.9247 28.0597 86.4044 28.1591 85.8111 28.1591C85.0322 28.1591 84.3875 27.9901 83.8771 27.652C83.3667 27.3139 83.0436 26.8201 82.9077 26.1705L84.0213 25.892C84.1274 26.303 84.3279 26.6113 84.6229 26.8168C84.9212 27.0223 85.3106 27.125 85.7912 27.125C86.3381 27.125 86.7723 27.009 87.0938 26.777C87.4186 26.5417 87.581 26.2599 87.581 25.9318C87.581 25.6667 87.4882 25.4446 87.3026 25.2656C87.117 25.0833 86.8319 24.9474 86.4474 24.858L85.1747 24.5597C84.4754 24.3939 83.9616 24.1371 83.6335 23.7891C83.3087 23.4377 83.1463 22.9986 83.1463 22.4716C83.1463 22.0407 83.2673 21.6596 83.5092 21.3281C83.7545 20.9967 84.0876 20.7365 84.5085 20.5476C84.9328 20.3587 85.4134 20.2642 85.9503 20.2642C86.706 20.2642 87.2992 20.4299 87.7301 20.7614C88.1643 21.0928 88.4725 21.5303 88.6548 22.0739ZM93.6625 28.1591C92.9731 28.1591 92.3682 27.995 91.8478 27.6669C91.3308 27.3388 90.9264 26.8797 90.6348 26.2898C90.3464 25.6998 90.2022 25.0104 90.2022 24.2216C90.2022 23.4261 90.3464 22.7318 90.6348 22.1385C90.9264 21.5452 91.3308 21.0845 91.8478 20.7564C92.3682 20.4283 92.9731 20.2642 93.6625 20.2642C94.3519 20.2642 94.9551 20.4283 95.4721 20.7564C95.9925 21.0845 96.3968 21.5452 96.6852 22.1385C96.9769 22.7318 97.1227 23.4261 97.1227 24.2216C97.1227 25.0104 96.9769 25.6998 96.6852 26.2898C96.3968 26.8797 95.9925 27.3388 95.4721 27.6669C94.9551 27.995 94.3519 28.1591 93.6625 28.1591ZM93.6625 27.1051C94.1861 27.1051 94.617 26.9709 94.9551 26.7024C95.2931 26.4339 95.5434 26.081 95.7058 25.6435C95.8682 25.206 95.9494 24.732 95.9494 24.2216C95.9494 23.7112 95.8682 23.2356 95.7058 22.7947C95.5434 22.3539 95.2931 21.9976 94.9551 21.7259C94.617 21.4541 94.1861 21.3182 93.6625 21.3182C93.1388 21.3182 92.7079 21.4541 92.3699 21.7259C92.0318 21.9976 91.7815 22.3539 91.6191 22.7947C91.4567 23.2356 91.3755 23.7112 91.3755 24.2216C91.3755 24.732 91.4567 25.206 91.6191 25.6435C91.7815 26.081 92.0318 26.4339 92.3699 26.7024C92.7079 26.9709 93.1388 27.1051 93.6625 27.1051ZM100.087 23.4062V28H98.9137V20.3636H100.047V21.5568H100.147C100.326 21.169 100.597 20.8575 100.962 20.6222C101.327 20.3835 101.797 20.2642 102.374 20.2642C102.891 20.2642 103.343 20.3703 103.731 20.5824C104.119 20.7912 104.421 21.1094 104.636 21.5369C104.851 21.9612 104.959 22.4981 104.959 23.1477V28H103.786V23.2273C103.786 22.6274 103.63 22.16 103.319 21.8253C103.007 21.4872 102.579 21.3182 102.036 21.3182C101.661 21.3182 101.327 21.3994 101.032 21.5618C100.74 21.7242 100.51 21.9612 100.341 22.2727C100.172 22.5843 100.087 22.9621 100.087 23.4062ZM109.35 28.179C108.866 28.179 108.427 28.0878 108.033 27.9055C107.638 27.7199 107.325 27.4531 107.093 27.1051C106.861 26.7538 106.745 26.3295 106.745 25.8324C106.745 25.3949 106.831 25.0402 107.004 24.7685C107.176 24.4934 107.406 24.2779 107.695 24.1222C107.983 23.9664 108.301 23.8504 108.649 23.7741C109.001 23.6946 109.354 23.6316 109.708 23.5852C110.172 23.5256 110.548 23.4808 110.837 23.451C111.128 23.4179 111.341 23.3632 111.473 23.2869C111.609 23.2107 111.677 23.0781 111.677 22.8892V22.8494C111.677 22.3589 111.543 21.9777 111.274 21.706C111.009 21.4342 110.606 21.2983 110.066 21.2983C109.506 21.2983 109.067 21.4209 108.749 21.6662C108.431 21.9115 108.207 22.1733 108.078 22.4517L106.964 22.054C107.163 21.59 107.428 21.2287 107.759 20.9702C108.094 20.7083 108.459 20.526 108.853 20.4233C109.251 20.3172 109.642 20.2642 110.026 20.2642C110.272 20.2642 110.553 20.294 110.872 20.3537C111.193 20.41 111.503 20.5277 111.801 20.7067C112.103 20.8857 112.353 21.1558 112.552 21.517C112.751 21.8783 112.85 22.3622 112.85 22.9688V28H111.677V26.9659H111.617C111.538 27.1316 111.405 27.3089 111.22 27.4979C111.034 27.6868 110.787 27.8475 110.479 27.9801C110.171 28.1127 109.794 28.179 109.35 28.179ZM109.529 27.125C109.993 27.125 110.384 27.0339 110.703 26.8516C111.024 26.6693 111.266 26.4339 111.428 26.1456C111.594 25.8572 111.677 25.554 111.677 25.2358V24.1619C111.627 24.2216 111.518 24.2763 111.349 24.326C111.183 24.3724 110.991 24.4138 110.772 24.4503C110.557 24.4834 110.346 24.5133 110.141 24.5398C109.939 24.563 109.775 24.5829 109.649 24.5994C109.344 24.6392 109.059 24.7038 108.794 24.7933C108.532 24.8795 108.32 25.0104 108.157 25.1861C107.998 25.3584 107.919 25.5937 107.919 25.892C107.919 26.2997 108.069 26.608 108.371 26.8168C108.676 27.0223 109.062 27.125 109.529 27.125ZM116.165 17.8182V28H114.992V17.8182H116.165ZM122.252 28V20.3636H123.425V28H122.252ZM122.848 19.0909C122.619 19.0909 122.422 19.013 122.257 18.8572C122.094 18.7015 122.013 18.5142 122.013 18.2955C122.013 18.0767 122.094 17.8894 122.257 17.7337C122.422 17.5779 122.619 17.5 122.848 17.5C123.077 17.5 123.272 17.5779 123.435 17.7337C123.601 17.8894 123.683 18.0767 123.683 18.2955C123.683 18.5142 123.601 18.7015 123.435 18.8572C123.272 19.013 123.077 19.0909 122.848 19.0909ZM126.747 23.4062V28H125.574V20.3636H126.707V21.5568H126.807C126.986 21.169 127.258 20.8575 127.622 20.6222C127.987 20.3835 128.457 20.2642 129.034 20.2642C129.551 20.2642 130.004 20.3703 130.391 20.5824C130.779 20.7912 131.081 21.1094 131.296 21.5369C131.512 21.9612 131.619 22.4981 131.619 23.1477V28H130.446V23.2273C130.446 22.6274 130.29 22.16 129.979 21.8253C129.667 21.4872 129.24 21.3182 128.696 21.3182C128.321 21.3182 127.987 21.3994 127.692 21.5618C127.4 21.7242 127.17 21.9612 127.001 22.2727C126.832 22.5843 126.747 22.9621 126.747 23.4062ZM137.164 20.3636V21.358H133.047V20.3636H137.164ZM134.28 28V19.3097C134.28 18.8722 134.383 18.5076 134.589 18.2159C134.794 17.9242 135.061 17.7055 135.389 17.5597C135.717 17.4138 136.064 17.3409 136.428 17.3409C136.716 17.3409 136.952 17.3641 137.134 17.4105C137.316 17.4569 137.452 17.5 137.542 17.5398L137.204 18.554C137.144 18.5341 137.061 18.5092 136.955 18.4794C136.852 18.4496 136.716 18.4347 136.547 18.4347C136.16 18.4347 135.88 18.5324 135.707 18.728C135.538 18.9235 135.454 19.2102 135.454 19.5881V28H134.28ZM141.596 28.1591C140.907 28.1591 140.302 27.995 139.781 27.6669C139.264 27.3388 138.86 26.8797 138.568 26.2898C138.28 25.6998 138.136 25.0104 138.136 24.2216C138.136 23.4261 138.28 22.7318 138.568 22.1385C138.86 21.5452 139.264 21.0845 139.781 20.7564C140.302 20.4283 140.907 20.2642 141.596 20.2642C142.285 20.2642 142.889 20.4283 143.406 20.7564C143.926 21.0845 144.33 21.5452 144.619 22.1385C144.91 22.7318 145.056 23.4261 145.056 24.2216C145.056 25.0104 144.91 25.6998 144.619 26.2898C144.33 26.8797 143.926 27.3388 143.406 27.6669C142.889 27.995 142.285 28.1591 141.596 28.1591ZM141.596 27.1051C142.12 27.1051 142.551 26.9709 142.889 26.7024C143.227 26.4339 143.477 26.081 143.639 25.6435C143.802 25.206 143.883 24.732 143.883 24.2216C143.883 23.7112 143.802 23.2356 143.639 22.7947C143.477 22.3539 143.227 21.9976 142.889 21.7259C142.551 21.4541 142.12 21.3182 141.596 21.3182C141.072 21.3182 140.642 21.4541 140.303 21.7259C139.965 21.9976 139.715 22.3539 139.553 22.7947C139.39 23.2356 139.309 23.7112 139.309 24.2216C139.309 24.732 139.39 25.206 139.553 25.6435C139.715 26.081 139.965 26.4339 140.303 26.7024C140.642 26.9709 141.072 27.1051 141.596 27.1051ZM146.847 28V20.3636H147.981V21.517H148.06C148.2 21.1392 148.451 20.8326 148.816 20.5973C149.181 20.362 149.592 20.2443 150.049 20.2443C150.135 20.2443 150.243 20.246 150.372 20.2493C150.501 20.2526 150.599 20.2576 150.665 20.2642V21.4574C150.626 21.4474 150.535 21.4325 150.392 21.4126C150.253 21.3894 150.105 21.3778 149.95 21.3778C149.578 21.3778 149.247 21.4557 148.955 21.6115C148.667 21.764 148.438 21.9761 148.269 22.2479C148.103 22.5163 148.021 22.8229 148.021 23.1676V28H146.847ZM152.056 28V20.3636H153.19V21.5568H153.289C153.448 21.1491 153.705 20.8326 154.06 20.6072C154.414 20.3786 154.84 20.2642 155.338 20.2642C155.841 20.2642 156.261 20.3786 156.595 20.6072C156.933 20.8326 157.197 21.1491 157.386 21.5568H157.465C157.661 21.1624 157.954 20.8492 158.345 20.6172C158.736 20.3819 159.205 20.2642 159.752 20.2642C160.435 20.2642 160.994 20.478 161.428 20.9055C161.862 21.3298 162.079 21.991 162.079 22.8892V28H160.906V22.8892C160.906 22.3258 160.752 21.9231 160.443 21.6811C160.135 21.4392 159.772 21.3182 159.355 21.3182C158.818 21.3182 158.402 21.4806 158.107 21.8054C157.812 22.1269 157.664 22.5346 157.664 23.0284V28H156.471V22.7699C156.471 22.3357 156.33 21.986 156.048 21.7209C155.767 21.4524 155.404 21.3182 154.96 21.3182C154.655 21.3182 154.37 21.3994 154.105 21.5618C153.843 21.7242 153.631 21.9496 153.468 22.2379C153.309 22.523 153.23 22.8527 153.23 23.2273V28H152.056ZM166.471 28.179C165.988 28.179 165.548 28.0878 165.154 27.9055C164.76 27.7199 164.446 27.4531 164.214 27.1051C163.982 26.7538 163.866 26.3295 163.866 25.8324C163.866 25.3949 163.952 25.0402 164.125 24.7685C164.297 24.4934 164.528 24.2779 164.816 24.1222C165.104 23.9664 165.422 23.8504 165.77 23.7741C166.122 23.6946 166.475 23.6316 166.829 23.5852C167.293 23.5256 167.67 23.4808 167.958 23.451C168.25 23.4179 168.462 23.3632 168.594 23.2869C168.73 23.2107 168.798 23.0781 168.798 22.8892V22.8494C168.798 22.3589 168.664 21.9777 168.395 21.706C168.13 21.4342 167.728 21.2983 167.187 21.2983C166.627 21.2983 166.188 21.4209 165.87 21.6662C165.552 21.9115 165.328 22.1733 165.199 22.4517L164.085 22.054C164.284 21.59 164.549 21.2287 164.881 20.9702C165.215 20.7083 165.58 20.526 165.974 20.4233C166.372 20.3172 166.763 20.2642 167.148 20.2642C167.393 20.2642 167.675 20.294 167.993 20.3537C168.314 20.41 168.624 20.5277 168.922 20.7067C169.224 20.8857 169.474 21.1558 169.673 21.517C169.872 21.8783 169.971 22.3622 169.971 22.9688V28H168.798V26.9659H168.738C168.659 27.1316 168.526 27.3089 168.341 27.4979C168.155 27.6868 167.908 27.8475 167.6 27.9801C167.292 28.1127 166.916 28.179 166.471 28.179ZM166.65 27.125C167.114 27.125 167.506 27.0339 167.824 26.8516C168.145 26.6693 168.387 26.4339 168.55 26.1456C168.715 25.8572 168.798 25.554 168.798 25.2358V24.1619C168.748 24.2216 168.639 24.2763 168.47 24.326C168.304 24.3724 168.112 24.4138 167.893 24.4503C167.678 24.4834 167.467 24.5133 167.262 24.5398C167.06 24.563 166.896 24.5829 166.77 24.5994C166.465 24.6392 166.18 24.7038 165.915 24.7933C165.653 24.8795 165.441 25.0104 165.278 25.1861C165.119 25.3584 165.04 25.5937 165.04 25.892C165.04 26.2997 165.19 26.608 165.492 26.8168C165.797 27.0223 166.183 27.125 166.65 27.125ZM175.434 20.3636V21.358H171.477V20.3636H175.434ZM172.63 18.5341H173.803V25.8125C173.803 26.1439 173.851 26.3925 173.947 26.5582C174.047 26.7206 174.173 26.83 174.325 26.8864C174.481 26.9394 174.645 26.9659 174.817 26.9659C174.947 26.9659 175.053 26.9593 175.136 26.946C175.219 26.9295 175.285 26.9162 175.335 26.9062L175.573 27.9602C175.494 27.9901 175.383 28.0199 175.24 28.0497C175.098 28.0829 174.917 28.0994 174.698 28.0994C174.367 28.0994 174.042 28.0282 173.724 27.8857C173.409 27.7431 173.147 27.526 172.938 27.2344C172.733 26.9427 172.63 26.5748 172.63 26.1307V18.5341ZM177.199 28V20.3636H178.372V28H177.199ZM177.795 19.0909C177.567 19.0909 177.37 19.013 177.204 18.8572C177.041 18.7015 176.96 18.5142 176.96 18.2955C176.96 18.0767 177.041 17.8894 177.204 17.7337C177.37 17.5779 177.567 17.5 177.795 17.5C178.024 17.5 178.22 17.5779 178.382 17.7337C178.548 17.8894 178.631 18.0767 178.631 18.2955C178.631 18.5142 178.548 18.7015 178.382 18.8572C178.22 19.013 178.024 19.0909 177.795 19.0909ZM183.623 28.1591C182.934 28.1591 182.329 27.995 181.809 27.6669C181.292 27.3388 180.887 26.8797 180.596 26.2898C180.307 25.6998 180.163 25.0104 180.163 24.2216C180.163 23.4261 180.307 22.7318 180.596 22.1385C180.887 21.5452 181.292 21.0845 181.809 20.7564C182.329 20.4283 182.934 20.2642 183.623 20.2642C184.313 20.2642 184.916 20.4283 185.433 20.7564C185.953 21.0845 186.358 21.5452 186.646 22.1385C186.938 22.7318 187.084 23.4261 187.084 24.2216C187.084 25.0104 186.938 25.6998 186.646 26.2898C186.358 26.8797 185.953 27.3388 185.433 27.6669C184.916 27.995 184.313 28.1591 183.623 28.1591ZM183.623 27.1051C184.147 27.1051 184.578 26.9709 184.916 26.7024C185.254 26.4339 185.504 26.081 185.667 25.6435C185.829 25.206 185.91 24.732 185.91 24.2216C185.91 23.7112 185.829 23.2356 185.667 22.7947C185.504 22.3539 185.254 21.9976 184.916 21.7259C184.578 21.4541 184.147 21.3182 183.623 21.3182C183.1 21.3182 182.669 21.4541 182.331 21.7259C181.993 21.9976 181.742 22.3539 181.58 22.7947C181.418 23.2356 181.336 23.7112 181.336 24.2216C181.336 24.732 181.418 25.206 181.58 25.6435C181.742 26.081 181.993 26.4339 182.331 26.7024C182.669 26.9709 183.1 27.1051 183.623 27.1051ZM190.048 23.4062V28H188.875V20.3636H190.008V21.5568H190.108C190.287 21.169 190.558 20.8575 190.923 20.6222C191.288 20.3835 191.758 20.2642 192.335 20.2642C192.852 20.2642 193.304 20.3703 193.692 20.5824C194.08 20.7912 194.382 21.1094 194.597 21.5369C194.812 21.9612 194.92 22.4981 194.92 23.1477V28H193.747V23.2273C193.747 22.6274 193.591 22.16 193.279 21.8253C192.968 21.4872 192.54 21.3182 191.997 21.3182C191.622 21.3182 191.288 21.3994 190.993 21.5618C190.701 21.7242 190.471 21.9612 190.301 22.2727C190.132 22.5843 190.048 22.9621 190.048 23.4062Z" fill="#4B4B4B"/>
<defs>
<linearGradient id="paint0_linear_44_499" x1="-5.35724e-08" y1="1.06024" x2="45.8997" y2="3.19724" gradientUnits="userSpaceOnUse">
<stop stop-color="#BFC3FC"/>
<stop offset="1" stop-color="#A2C3FC"/>
</linearGradient>
</defs>
</svg>
