<svg width="366" height="52" viewBox="0 0 366 52" fill="none" xmlns="http://www.w3.org/2000/svg">
<g filter="url(#filter0_d_12_1181)">
<rect x="4" width="358" height="44" rx="15" fill="url(#paint0_linear_12_1181)"/>
<path d="M176.578 16.8182V27H175.166L169.99 19.5327H169.896V27H168.36V16.8182H169.781L174.962 24.2955H175.056V16.8182H176.578ZM181.69 27.1541C180.938 27.1541 180.29 26.9934 179.747 26.6719C179.206 26.3471 178.789 25.8913 178.494 25.3047C178.202 24.7147 178.056 24.0237 178.056 23.2315C178.056 22.4493 178.202 21.7599 178.494 21.1634C178.789 20.5668 179.2 20.1011 179.727 19.7663C180.257 19.4316 180.877 19.2642 181.586 19.2642C182.017 19.2642 182.435 19.3355 182.839 19.478C183.243 19.6205 183.606 19.8442 183.928 20.1491C184.249 20.4541 184.503 20.8501 184.688 21.3374C184.874 21.8213 184.967 22.4096 184.967 23.1023V23.6293H178.896V22.5156H183.51C183.51 22.1245 183.431 21.7782 183.271 21.4766C183.112 21.1716 182.889 20.9313 182.6 20.7557C182.315 20.58 181.98 20.4922 181.596 20.4922C181.178 20.4922 180.814 20.5949 180.502 20.8004C180.194 21.0026 179.955 21.2678 179.786 21.5959C179.621 21.9207 179.538 22.2737 179.538 22.6548V23.5249C179.538 24.0353 179.627 24.4695 179.806 24.8274C179.989 25.1854 180.242 25.4588 180.567 25.6477C180.892 25.8333 181.271 25.9261 181.705 25.9261C181.987 25.9261 182.244 25.8864 182.476 25.8068C182.708 25.724 182.909 25.6013 183.078 25.4389C183.247 25.2765 183.376 25.076 183.465 24.8374L184.872 25.0909C184.76 25.5052 184.557 25.8681 184.266 26.1797C183.977 26.4879 183.614 26.7282 183.177 26.9006C182.743 27.0696 182.247 27.1541 181.69 27.1541ZM187.312 19.3636L188.997 22.3366L190.697 19.3636H192.323L189.942 23.1818L192.343 27H190.717L188.997 24.1463L187.282 27H185.651L188.028 23.1818L185.681 19.3636H187.312ZM197.114 19.3636V20.5568H192.943V19.3636H197.114ZM194.061 17.5341H195.548V24.7578C195.548 25.0462 195.591 25.2633 195.677 25.4091C195.763 25.5516 195.874 25.6494 196.01 25.7024C196.149 25.7521 196.3 25.777 196.463 25.777C196.582 25.777 196.686 25.7687 196.776 25.7521C196.865 25.7356 196.935 25.7223 196.985 25.7124L197.253 26.9403C197.167 26.9735 197.044 27.0066 196.885 27.0398C196.726 27.0762 196.527 27.0961 196.289 27.0994C195.898 27.1061 195.533 27.0365 195.195 26.8906C194.857 26.7448 194.583 26.5194 194.375 26.2145C194.166 25.9096 194.061 25.5268 194.061 25.0661V17.5341Z" fill="#4B4B4B"/>
</g>
<defs>
<filter id="filter0_d_12_1181" x="0" y="0" width="366" height="52" filterUnits="userSpaceOnUse" color-interpolation-filters="sRGB">
<feFlood flood-opacity="0" result="BackgroundImageFix"/>
<feColorMatrix in="SourceAlpha" type="matrix" values="0 0 0 0 0 0 0 0 0 0 0 0 0 0 0 0 0 0 127 0" result="hardAlpha"/>
<feOffset dy="4"/>
<feGaussianBlur stdDeviation="2"/>
<feComposite in2="hardAlpha" operator="out"/>
<feColorMatrix type="matrix" values="0 0 0 0 0 0 0 0 0 0 0 0 0 0 0 0 0 0 0.25 0"/>
<feBlend mode="normal" in2="BackgroundImageFix" result="effect1_dropShadow_12_1181"/>
<feBlend mode="normal" in="SourceGraphic" in2="effect1_dropShadow_12_1181" result="shape"/>
</filter>
<linearGradient id="paint0_linear_12_1181" x1="4" y1="1.06024" x2="331.299" y2="125.046" gradientUnits="userSpaceOnUse">
<stop stop-color="#BFC3FC"/>
<stop offset="1" stop-color="#A2C3FC"/>
</linearGradient>
</defs>
</svg>
