<svg width="358" height="44" viewBox="0 0 358 44" fill="none" xmlns="http://www.w3.org/2000/svg">
<rect width="358" height="44" rx="15" fill="url(#paint0_linear_17_102)"/>
<path d="M166.862 20.1293H165.311C165.252 19.7978 165.141 19.5062 164.978 19.2543C164.816 19.0024 164.617 18.7886 164.382 18.6129C164.146 18.4373 163.883 18.3047 163.591 18.2152C163.303 18.1257 162.996 18.081 162.671 18.081C162.085 18.081 161.559 18.2285 161.095 18.5234C160.635 18.8184 160.27 19.2509 160.002 19.821C159.736 20.3911 159.604 21.0871 159.604 21.9091C159.604 22.7377 159.736 23.437 160.002 24.0071C160.27 24.5772 160.636 25.008 161.1 25.2997C161.564 25.5914 162.086 25.7372 162.666 25.7372C162.988 25.7372 163.293 25.6941 163.581 25.608C163.873 25.5185 164.136 25.3875 164.372 25.2152C164.607 25.0429 164.806 24.8324 164.968 24.5838C165.134 24.3319 165.248 24.0436 165.311 23.7188L166.862 23.7237C166.78 24.2242 166.619 24.6849 166.38 25.1058C166.145 25.5234 165.842 25.8847 165.47 26.1896C165.102 26.4912 164.682 26.7249 164.208 26.8906C163.734 27.0563 163.217 27.1392 162.656 27.1392C161.775 27.1392 160.989 26.9304 160.3 26.5128C159.61 26.0919 159.067 25.4903 158.669 24.7081C158.275 23.9259 158.078 22.9929 158.078 21.9091C158.078 20.822 158.276 19.889 158.674 19.1101C159.072 18.3279 159.615 17.728 160.305 17.3104C160.994 16.8894 161.778 16.679 162.656 16.679C163.197 16.679 163.7 16.7569 164.168 16.9126C164.638 17.0651 165.061 17.2905 165.436 17.5888C165.81 17.8838 166.12 18.245 166.365 18.6726C166.61 19.0968 166.776 19.5824 166.862 20.1293ZM168.281 27V19.3636H169.718V20.5767H169.798C169.937 20.1657 170.182 19.8426 170.533 19.6072C170.888 19.3686 171.289 19.2493 171.737 19.2493C171.829 19.2493 171.939 19.2526 172.065 19.2592C172.194 19.2659 172.295 19.2741 172.368 19.2841V20.706C172.308 20.6894 172.202 20.6712 172.05 20.6513C171.897 20.6281 171.745 20.6165 171.592 20.6165C171.241 20.6165 170.928 20.6911 170.653 20.8402C170.381 20.986 170.166 21.1899 170.006 21.4517C169.847 21.7102 169.768 22.0052 169.768 22.3366V27H168.281ZM176.372 27.1541C175.62 27.1541 174.972 26.9934 174.428 26.6719C173.888 26.3471 173.47 25.8913 173.175 25.3047C172.884 24.7147 172.738 24.0237 172.738 23.2315C172.738 22.4493 172.884 21.7599 173.175 21.1634C173.47 20.5668 173.881 20.1011 174.408 19.7663C174.939 19.4316 175.558 19.2642 176.268 19.2642C176.699 19.2642 177.116 19.3355 177.521 19.478C177.925 19.6205 178.288 19.8442 178.609 20.1491C178.931 20.4541 179.184 20.8501 179.37 21.3374C179.556 21.8213 179.648 22.4096 179.648 23.1023V23.6293H173.578V22.5156H178.192C178.192 22.1245 178.112 21.7782 177.953 21.4766C177.794 21.1716 177.57 20.9313 177.282 20.7557C176.997 20.58 176.662 20.4922 176.278 20.4922C175.86 20.4922 175.495 20.5949 175.184 20.8004C174.876 21.0026 174.637 21.2678 174.468 21.5959C174.302 21.9207 174.219 22.2737 174.219 22.6548V23.5249C174.219 24.0353 174.309 24.4695 174.488 24.8274C174.67 25.1854 174.924 25.4588 175.249 25.6477C175.573 25.8333 175.953 25.9261 176.387 25.9261C176.669 25.9261 176.926 25.8864 177.158 25.8068C177.39 25.724 177.59 25.6013 177.759 25.4389C177.928 25.2765 178.057 25.076 178.147 24.8374L179.554 25.0909C179.441 25.5052 179.239 25.8681 178.947 26.1797C178.659 26.4879 178.296 26.7282 177.859 26.9006C177.424 27.0696 176.929 27.1541 176.372 27.1541ZM183.22 27.169C182.736 27.169 182.299 27.0795 181.908 26.9006C181.516 26.7183 181.207 26.4548 180.978 26.1101C180.752 25.7654 180.64 25.3428 180.64 24.8423C180.64 24.4115 180.723 24.0568 180.888 23.7784C181.054 23.5 181.278 23.2796 181.56 23.1172C181.841 22.9548 182.156 22.8321 182.504 22.7493C182.852 22.6664 183.207 22.6035 183.568 22.5604C184.025 22.5073 184.397 22.4643 184.682 22.4311C184.967 22.3946 185.174 22.3366 185.303 22.2571C185.432 22.1776 185.497 22.0483 185.497 21.8693V21.8345C185.497 21.4003 185.374 21.0639 185.129 20.8253C184.887 20.5866 184.526 20.4673 184.045 20.4673C183.545 20.4673 183.15 20.5784 182.862 20.8004C182.577 21.0192 182.38 21.2628 182.27 21.5312L180.873 21.2131C181.039 20.7491 181.281 20.3745 181.599 20.0895C181.921 19.8011 182.29 19.5923 182.708 19.4631C183.126 19.3305 183.565 19.2642 184.025 19.2642C184.33 19.2642 184.654 19.3007 184.995 19.3736C185.34 19.4432 185.661 19.5724 185.959 19.7614C186.261 19.9503 186.508 20.2204 186.7 20.5717C186.892 20.9197 186.988 21.3722 186.988 21.929V27H185.537V25.956H185.477C185.381 26.1482 185.237 26.3371 185.045 26.5227C184.852 26.7083 184.605 26.8625 184.304 26.9851C184.002 27.1077 183.641 27.169 183.22 27.169ZM183.543 25.9759C183.954 25.9759 184.305 25.8946 184.597 25.7322C184.892 25.5698 185.116 25.3577 185.268 25.0959C185.424 24.8307 185.502 24.5473 185.502 24.2457V23.2614C185.449 23.3144 185.346 23.3641 185.194 23.4105C185.045 23.4536 184.874 23.4917 184.682 23.5249C184.489 23.5547 184.302 23.5829 184.12 23.6094C183.938 23.6326 183.785 23.6525 183.663 23.669C183.374 23.7055 183.111 23.7668 182.872 23.853C182.637 23.9392 182.448 24.0634 182.305 24.2259C182.166 24.3849 182.096 24.5971 182.096 24.8622C182.096 25.2301 182.232 25.5085 182.504 25.6974C182.776 25.883 183.122 25.9759 183.543 25.9759ZM192.233 19.3636V20.5568H188.062V19.3636H192.233ZM189.181 17.5341H190.667V24.7578C190.667 25.0462 190.71 25.2633 190.796 25.4091C190.882 25.5516 190.993 25.6494 191.129 25.7024C191.269 25.7521 191.419 25.777 191.582 25.777C191.701 25.777 191.806 25.7687 191.895 25.7521C191.984 25.7356 192.054 25.7223 192.104 25.7124L192.372 26.9403C192.286 26.9735 192.163 27.0066 192.004 27.0398C191.845 27.0762 191.646 27.0961 191.408 27.0994C191.017 27.1061 190.652 27.0365 190.314 26.8906C189.976 26.7448 189.703 26.5194 189.494 26.2145C189.285 25.9096 189.181 25.5268 189.181 25.0661V17.5341ZM196.787 27.1541C196.034 27.1541 195.386 26.9934 194.843 26.6719C194.302 26.3471 193.885 25.8913 193.59 25.3047C193.298 24.7147 193.152 24.0237 193.152 23.2315C193.152 22.4493 193.298 21.7599 193.59 21.1634C193.885 20.5668 194.296 20.1011 194.823 19.7663C195.353 19.4316 195.973 19.2642 196.682 19.2642C197.113 19.2642 197.531 19.3355 197.935 19.478C198.339 19.6205 198.702 19.8442 199.024 20.1491C199.345 20.4541 199.599 20.8501 199.784 21.3374C199.97 21.8213 200.063 22.4096 200.063 23.1023V23.6293H193.993V22.5156H198.606C198.606 22.1245 198.527 21.7782 198.368 21.4766C198.208 21.1716 197.985 20.9313 197.696 20.7557C197.411 20.58 197.077 20.4922 196.692 20.4922C196.275 20.4922 195.91 20.5949 195.598 20.8004C195.29 21.0026 195.051 21.2678 194.882 21.5959C194.717 21.9207 194.634 22.2737 194.634 22.6548V23.5249C194.634 24.0353 194.723 24.4695 194.902 24.8274C195.085 25.1854 195.338 25.4588 195.663 25.6477C195.988 25.8333 196.367 25.9261 196.801 25.9261C197.083 25.9261 197.34 25.8864 197.572 25.8068C197.804 25.724 198.005 25.6013 198.174 25.4389C198.343 25.2765 198.472 25.076 198.561 24.8374L199.968 25.0909C199.856 25.5052 199.654 25.8681 199.362 26.1797C199.074 26.4879 198.711 26.7282 198.273 26.9006C197.839 27.0696 197.343 27.1541 196.787 27.1541Z" fill="#4B4B4B"/>
<defs>
<linearGradient id="paint0_linear_17_102" x1="-4.35884e-07" y1="1.06024" x2="327.299" y2="125.046" gradientUnits="userSpaceOnUse">
<stop stop-color="#BFC3FC"/>
<stop offset="1" stop-color="#A2C3FC"/>
</linearGradient>
</defs>
</svg>
