<svg width="107" height="44" viewBox="0 0 107 44" fill="none" xmlns="http://www.w3.org/2000/svg">
<rect opacity="0.1" width="44" height="44" rx="10" fill="url(#paint0_linear_45_423)"/>
<path fill-rule="evenodd" clip-rule="evenodd" d="M26.6895 12C29.0654 12 31 13.985 31 16.425V27.564C31 30.01 29.0605 32 26.6788 32H21.9201C19.5442 32 17.6106 30.015 17.6106 27.575V26.633C17.6106 26.219 17.9379 25.883 18.3412 25.883C18.7445 25.883 19.0718 26.219 19.0718 26.633V27.575C19.0718 29.187 20.3498 30.5 21.9201 30.5H26.6788C28.2559 30.5 29.5388 29.184 29.5388 27.564V16.425C29.5388 14.813 28.2598 13.5 26.6895 13.5H21.9308C20.3547 13.5 19.0718 14.816 19.0718 16.434V17.367C19.0718 17.781 18.7445 18.117 18.3412 18.117C17.9379 18.117 17.6106 17.781 17.6106 17.367V16.434C17.6106 13.989 19.5491 12 21.9308 12H26.6895ZM23.1235 18.553L25.9766 21.4698C25.9998 21.4935 26.0214 21.5188 26.0413 21.5456L25.9767 21.469C26.0156 21.5084 26.0496 21.5518 26.0785 21.5984C26.0844 21.6101 26.091 21.6215 26.0974 21.6331C26.1085 21.651 26.1179 21.67 26.1265 21.6894C26.1314 21.7032 26.137 21.7169 26.1422 21.7308C26.1505 21.7498 26.1569 21.7693 26.1626 21.7891C26.1658 21.8047 26.1697 21.8203 26.1732 21.836C26.1785 21.8551 26.1819 21.8743 26.1846 21.8936C26.1846 21.9024 26.1857 21.9116 26.1867 21.9209C26.1906 21.9473 26.192 21.9736 26.192 22L26.1849 22.079L26.184 22.1017C26.1838 22.1034 26.1836 22.1051 26.1833 22.1068L26.192 22C26.192 22.0555 26.186 22.1105 26.1744 22.1639C26.1697 22.1797 26.1658 22.1953 26.1615 22.2107C26.1569 22.2307 26.1505 22.2502 26.1433 22.2695C26.137 22.2831 26.1314 22.2968 26.1254 22.3103C26.1179 22.33 26.1085 22.349 26.0983 22.3676C26.091 22.3785 26.0844 22.3899 26.0775 22.4011C26.067 22.4202 26.0546 22.4383 26.0415 22.4558C26.0325 22.4662 26.0241 22.4768 26.0155 22.4872C26.0037 22.5025 25.9905 22.517 25.9767 22.531L23.1235 25.446C22.9812 25.592 22.7942 25.665 22.6082 25.665C22.4211 25.665 22.2331 25.592 22.0909 25.444C21.8055 25.15 21.8074 24.676 22.0928 24.384L23.6911 22.75H13.7306C13.3273 22.75 13 22.414 13 22C13 21.586 13.3273 21.25 13.7306 21.25H23.6911L22.0928 19.615C21.8074 19.323 21.8055 18.849 22.0909 18.555C22.3763 18.261 22.838 18.261 23.1235 18.553Z" fill="#4B4B4B"/>
<path d="M61.566 29V18.8182H62.7989V27.9062H67.5319V29H61.566ZM72.3841 29.1591C71.6948 29.1591 71.0899 28.995 70.5695 28.6669C70.0525 28.3388 69.6481 27.8797 69.3564 27.2898C69.0681 26.6998 68.9239 26.0104 68.9239 25.2216C68.9239 24.4261 69.0681 23.7318 69.3564 23.1385C69.6481 22.5452 70.0525 22.0845 70.5695 21.7564C71.0899 21.4283 71.6948 21.2642 72.3841 21.2642C73.0735 21.2642 73.6768 21.4283 74.1938 21.7564C74.7142 22.0845 75.1185 22.5452 75.4069 23.1385C75.6985 23.7318 75.8444 24.4261 75.8444 25.2216C75.8444 26.0104 75.6985 26.6998 75.4069 27.2898C75.1185 27.8797 74.7142 28.3388 74.1938 28.6669C73.6768 28.995 73.0735 29.1591 72.3841 29.1591ZM72.3841 28.1051C72.9078 28.1051 73.3387 27.9709 73.6768 27.7024C74.0148 27.4339 74.2651 27.081 74.4275 26.6435C74.5899 26.206 74.6711 25.732 74.6711 25.2216C74.6711 24.7112 74.5899 24.2356 74.4275 23.7947C74.2651 23.3539 74.0148 22.9976 73.6768 22.7259C73.3387 22.4541 72.9078 22.3182 72.3841 22.3182C71.8605 22.3182 71.4296 22.4541 71.0915 22.7259C70.7535 22.9976 70.5032 23.3539 70.3408 23.7947C70.1784 24.2356 70.0972 24.7112 70.0972 25.2216C70.0972 25.732 70.1784 26.206 70.3408 26.6435C70.5032 27.081 70.7535 27.4339 71.0915 27.7024C71.4296 27.9709 71.8605 28.1051 72.3841 28.1051ZM80.7178 32.0227C80.151 32.0227 79.6638 31.9498 79.2561 31.804C78.8485 31.6615 78.5087 31.4725 78.2369 31.2372C77.9685 31.0052 77.7547 30.7566 77.5956 30.4915L78.5303 29.8352C78.6363 29.9744 78.7706 30.1335 78.933 30.3125C79.0954 30.4948 79.3174 30.6522 79.5992 30.7848C79.8842 30.9207 80.2571 30.9886 80.7178 30.9886C81.3343 30.9886 81.843 30.8395 82.2441 30.5412C82.6451 30.2429 82.8456 29.7756 82.8456 29.1392V27.5881H82.7462C82.66 27.7273 82.5374 27.8996 82.3783 28.1051C82.2225 28.3073 81.9971 28.4879 81.7021 28.647C81.4105 28.8028 81.0161 28.8807 80.5189 28.8807C79.9024 28.8807 79.3489 28.7348 78.8584 28.4432C78.3712 28.1515 77.9851 27.7273 77.7 27.1705C77.4183 26.6136 77.2774 25.9375 77.2774 25.142C77.2774 24.3598 77.415 23.6787 77.6901 23.0987C77.9652 22.5154 78.348 22.0646 78.8385 21.7464C79.329 21.425 79.8958 21.2642 80.5388 21.2642C81.036 21.2642 81.4304 21.3471 81.722 21.5128C82.017 21.6752 82.2424 21.8608 82.3982 22.0696C82.5573 22.2751 82.6799 22.4441 82.7661 22.5767H82.8854V21.3636H84.0189V29.2188C84.0189 29.875 83.8698 30.4086 83.5715 30.8196C83.2765 31.2339 82.8788 31.5372 82.3783 31.7294C81.8811 31.925 81.3276 32.0227 80.7178 32.0227ZM80.678 27.8267C81.1486 27.8267 81.5464 27.719 81.8712 27.5036C82.196 27.2881 82.4429 26.9782 82.6119 26.5739C82.781 26.1695 82.8655 25.6856 82.8655 25.1222C82.8655 24.572 82.7826 24.0864 82.6169 23.6655C82.4512 23.2446 82.2059 22.9148 81.8811 22.6761C81.5563 22.4375 81.1553 22.3182 80.678 22.3182C80.1808 22.3182 79.7665 22.4441 79.4351 22.696C79.107 22.9479 78.8601 23.286 78.6943 23.7102C78.5319 24.1345 78.4507 24.6051 78.4507 25.1222C78.4507 25.6525 78.5336 26.1214 78.6993 26.5291C78.8683 26.9335 79.1169 27.2517 79.445 27.4837C79.7765 27.7124 80.1875 27.8267 80.678 27.8267ZM89.2689 29.1591C88.5795 29.1591 87.9746 28.995 87.4543 28.6669C86.9372 28.3388 86.5329 27.8797 86.2412 27.2898C85.9529 26.6998 85.8087 26.0104 85.8087 25.2216C85.8087 24.4261 85.9529 23.7318 86.2412 23.1385C86.5329 22.5452 86.9372 22.0845 87.4543 21.7564C87.9746 21.4283 88.5795 21.2642 89.2689 21.2642C89.9583 21.2642 90.5615 21.4283 91.0786 21.7564C91.5989 22.0845 92.0033 22.5452 92.2916 23.1385C92.5833 23.7318 92.7291 24.4261 92.7291 25.2216C92.7291 26.0104 92.5833 26.6998 92.2916 27.2898C92.0033 27.8797 91.5989 28.3388 91.0786 28.6669C90.5615 28.995 89.9583 29.1591 89.2689 29.1591ZM89.2689 28.1051C89.7926 28.1051 90.2235 27.9709 90.5615 27.7024C90.8996 27.4339 91.1498 27.081 91.3122 26.6435C91.4746 26.206 91.5558 25.732 91.5558 25.2216C91.5558 24.7112 91.4746 24.2356 91.3122 23.7947C91.1498 23.3539 90.8996 22.9976 90.5615 22.7259C90.2235 22.4541 89.7926 22.3182 89.2689 22.3182C88.7452 22.3182 88.3144 22.4541 87.9763 22.7259C87.6382 22.9976 87.388 23.3539 87.2256 23.7947C87.0632 24.2356 86.982 24.7112 86.982 25.2216C86.982 25.732 87.0632 26.206 87.2256 26.6435C87.388 27.081 87.6382 27.4339 87.9763 27.7024C88.3144 27.9709 88.7452 28.1051 89.2689 28.1051ZM99.3327 25.8778V21.3636H100.506V29H99.3327V27.7074H99.2531C99.0741 28.0952 98.7957 28.425 98.4179 28.6967C98.04 28.9652 97.5628 29.0994 96.9861 29.0994C96.5088 29.0994 96.0845 28.995 95.7133 28.7862C95.3421 28.5741 95.0505 28.2559 94.8383 27.8317C94.6262 27.4041 94.5202 26.8655 94.5202 26.2159V21.3636H95.6934V26.1364C95.6934 26.6932 95.8492 27.1373 96.1608 27.4688C96.4756 27.8002 96.8767 27.9659 97.3639 27.9659C97.6556 27.9659 97.9522 27.8913 98.2538 27.7422C98.5587 27.593 98.814 27.3643 99.0194 27.0561C99.2282 26.7479 99.3327 26.3551 99.3327 25.8778ZM105.976 21.3636V22.358H102.019V21.3636H105.976ZM103.172 19.5341H104.345V26.8125C104.345 27.1439 104.393 27.3925 104.489 27.5582C104.589 27.7206 104.715 27.83 104.867 27.8864C105.023 27.9394 105.187 27.9659 105.359 27.9659C105.489 27.9659 105.595 27.9593 105.678 27.946C105.761 27.9295 105.827 27.9162 105.877 27.9062L106.115 28.9602C106.036 28.9901 105.925 29.0199 105.782 29.0497C105.64 29.0829 105.459 29.0994 105.24 29.0994C104.909 29.0994 104.584 29.0282 104.266 28.8857C103.951 28.7431 103.689 28.526 103.48 28.2344C103.275 27.9427 103.172 27.5748 103.172 27.1307V19.5341Z" fill="#4B4B4B"/>
<defs>
<linearGradient id="paint0_linear_45_423" x1="-5.35724e-08" y1="1.06024" x2="45.8997" y2="3.19724" gradientUnits="userSpaceOnUse">
<stop stop-color="#BFC3FC"/>
<stop offset="1" stop-color="#A2C3FC"/>
</linearGradient>
</defs>
</svg>
