<svg width="358" height="44" viewBox="0 0 358 44" fill="none" xmlns="http://www.w3.org/2000/svg">
<rect opacity="0.1" width="44" height="44" rx="10" fill="url(#paint0_linear_45_394)"/>
<path d="M29.5141 30H14.4833C13.111 30 12 28.8619 12 27.4561V16.544C12 15.1381 13.111 14 14.4833 14H29.5141C30.8864 14 31.9974 15.1381 31.9974 16.544V27.4561C32.0628 28.8619 30.8864 30 29.5141 30Z" stroke="#4B4B4B" stroke-width="1.6" stroke-miterlimit="10" stroke-linecap="round"/>
<path d="M21.9987 22.9038L12.5881 15.3389" stroke="#4B4B4B" stroke-width="1.6" stroke-miterlimit="10" stroke-linecap="round" stroke-linejoin="round"/>
<path d="M31.4093 15.3389L21.9988 22.9038" stroke="#4B4B4B" stroke-width="1.6" stroke-miterlimit="10" stroke-linecap="round" stroke-linejoin="round"/>
<path d="M342.536 31.0002C342.46 31.0007 342.386 30.9852 342.317 30.9548C342.249 30.9244 342.187 30.8798 342.137 30.8239C342.087 30.768 342.049 30.702 342.026 30.6304C342.003 30.5587 341.995 30.483 342.003 30.4082L342.482 26.0509C342.496 25.9297 342.55 25.8167 342.637 25.7309L352.794 15.5602C352.97 15.3827 353.179 15.2418 353.41 15.1456C353.64 15.0495 353.888 15 354.138 15C354.388 15 354.635 15.0495 354.866 15.1456C355.096 15.2418 355.306 15.3827 355.482 15.5602L357.441 17.4962C357.618 17.6727 357.759 17.8825 357.855 18.1136C357.951 18.3447 358 18.5926 358 18.8429C358 19.0932 357.951 19.3411 357.855 19.5722C357.759 19.8033 357.618 20.0131 357.441 20.1896L347.263 30.3602C347.177 30.4469 347.064 30.5014 346.943 30.5149L342.594 31.0002H342.536ZM343.526 26.3496L343.137 29.8642L346.645 29.4749L356.664 19.4322C356.819 19.2745 356.906 19.0618 356.906 18.8402C356.906 18.6186 356.819 18.4059 356.664 18.2482L354.731 16.3122C354.574 16.1565 354.362 16.0692 354.14 16.0692C353.919 16.0692 353.707 16.1565 353.549 16.3122L343.526 26.3496Z" fill="#4B4B4B"/>
<path d="M355.588 21.7949C355.449 21.7943 355.315 21.7388 355.216 21.6402L351.346 17.7629C351.246 17.6604 351.191 17.5224 351.193 17.3794C351.195 17.2363 351.254 17.1 351.356 17.0002C351.459 16.9005 351.596 16.8456 351.739 16.8476C351.882 16.8496 352.018 16.9084 352.118 17.0109L355.966 20.8669C356.065 20.9668 356.121 21.102 356.121 21.2429C356.121 21.3838 356.065 21.519 355.966 21.6189C355.918 21.6722 355.86 21.7153 355.795 21.7455C355.73 21.7757 355.66 21.7925 355.588 21.7949Z" fill="#4B4B4B"/>
<path d="M351.342 20.8885L346.509 25.7308L347.261 26.485L352.095 21.6428L351.342 20.8885Z" fill="#4B4B4B"/>
<defs>
<linearGradient id="paint0_linear_45_394" x1="-5.35724e-08" y1="1.06024" x2="45.8997" y2="3.19724" gradientUnits="userSpaceOnUse">
<stop stop-color="#BFC3FC"/>
<stop offset="1" stop-color="#A2C3FC"/>
</linearGradient>
</defs>
</svg>
