<svg width="187" height="44" viewBox="0 0 187 44" fill="none" xmlns="http://www.w3.org/2000/svg">
<rect opacity="0.1" width="44" height="44" rx="10" fill="url(#paint0_linear_44_498)"/>
<path d="M60.7318 19.9119V18.8182H68.3682V19.9119H65.1665V29H63.9335V19.9119H60.7318ZM69.319 29V21.3636H70.4525V22.517H70.532C70.6713 22.1392 70.9231 21.8326 71.2877 21.5973C71.6523 21.362 72.0633 21.2443 72.5207 21.2443C72.6069 21.2443 72.7146 21.246 72.8438 21.2493C72.9731 21.2526 73.0709 21.2576 73.1372 21.2642V22.4574C73.0974 22.4474 73.0062 22.4325 72.8637 22.4126C72.7245 22.3894 72.577 22.3778 72.4213 22.3778C72.05 22.3778 71.7186 22.4557 71.4269 22.6115C71.1386 22.764 70.9099 22.9761 70.7409 23.2479C70.5751 23.5163 70.4923 23.8229 70.4923 24.1676V29H69.319ZM76.7751 29.179C76.2912 29.179 75.8521 29.0878 75.4577 28.9055C75.0632 28.7199 74.75 28.4531 74.518 28.1051C74.286 27.7538 74.17 27.3295 74.17 26.8324C74.17 26.3949 74.2562 26.0402 74.4285 25.7685C74.6009 25.4934 74.8312 25.2779 75.1196 25.1222C75.4079 24.9664 75.7261 24.8504 76.0741 24.7741C76.4255 24.6946 76.7784 24.6316 77.1331 24.5852C77.5971 24.5256 77.9733 24.4808 78.2616 24.451C78.5533 24.4179 78.7654 24.3632 78.898 24.2869C79.0339 24.2107 79.1018 24.0781 79.1018 23.8892V23.8494C79.1018 23.3589 78.9676 22.9777 78.6991 22.706C78.434 22.4342 78.0313 22.2983 77.491 22.2983C76.9309 22.2983 76.4917 22.4209 76.1736 22.6662C75.8554 22.9115 75.6317 23.1733 75.5024 23.4517L74.3888 23.054C74.5876 22.59 74.8528 22.2287 75.1842 21.9702C75.519 21.7083 75.8836 21.526 76.278 21.4233C76.6757 21.3172 77.0668 21.2642 77.4513 21.2642C77.6965 21.2642 77.9782 21.294 78.2964 21.3537C78.6179 21.41 78.9278 21.5277 79.2261 21.7067C79.5277 21.8857 79.778 22.1558 79.9768 22.517C80.1757 22.8783 80.2751 23.3622 80.2751 23.9688V29H79.1018V27.9659H79.0422C78.9626 28.1316 78.83 28.3089 78.6444 28.4979C78.4588 28.6868 78.2119 28.8475 77.9037 28.9801C77.5954 29.1127 77.2193 29.179 76.7751 29.179ZM76.9541 28.125C77.4181 28.125 77.8092 28.0339 78.1274 27.8516C78.4489 27.6693 78.6908 27.4339 78.8532 27.1456C79.019 26.8572 79.1018 26.554 79.1018 26.2358V25.1619C79.0521 25.2216 78.9427 25.2763 78.7737 25.326C78.608 25.3724 78.4157 25.4138 78.197 25.4503C77.9816 25.4834 77.7711 25.5133 77.5656 25.5398C77.3634 25.563 77.1994 25.5829 77.0734 25.5994C76.7685 25.6392 76.4835 25.7038 76.2183 25.7933C75.9565 25.8795 75.7443 26.0104 75.5819 26.1861C75.4229 26.3584 75.3433 26.5937 75.3433 26.892C75.3433 27.2997 75.4941 27.608 75.7957 27.8168C76.1006 28.0223 76.4868 28.125 76.9541 28.125ZM83.5899 24.4062V29H82.4166V21.3636H83.5502V22.5568H83.6496C83.8286 22.169 84.1003 21.8575 84.4649 21.6222C84.8295 21.3835 85.3002 21.2642 85.8769 21.2642C86.3939 21.2642 86.8463 21.3703 87.2341 21.5824C87.6219 21.7912 87.9235 22.1094 88.1389 22.5369C88.3544 22.9612 88.4621 23.4981 88.4621 24.1477V29H87.2888V24.2273C87.2888 23.6274 87.133 23.16 86.8215 22.8253C86.5099 22.4872 86.0824 22.3182 85.5388 22.3182C85.1643 22.3182 84.8295 22.3994 84.5345 22.5618C84.2429 22.7242 84.0125 22.9612 83.8435 23.2727C83.6744 23.5843 83.5899 23.9621 83.5899 24.4062ZM96.0152 23.0739L94.9612 23.3722C94.8949 23.1965 94.7971 23.0258 94.6679 22.8601C94.5419 22.6911 94.3696 22.5518 94.1508 22.4425C93.9321 22.3331 93.652 22.2784 93.3106 22.2784C92.8433 22.2784 92.4539 22.3861 92.1423 22.6016C91.8341 22.8137 91.68 23.0838 91.68 23.4119C91.68 23.7036 91.786 23.9339 91.9981 24.103C92.2103 24.272 92.5417 24.4129 92.9925 24.5256L94.126 24.804C94.8087 24.9697 95.3175 25.2232 95.6523 25.5646C95.987 25.9027 96.1544 26.3385 96.1544 26.8722C96.1544 27.3097 96.0284 27.7008 95.7765 28.0455C95.528 28.3902 95.18 28.6619 94.7325 28.8608C94.2851 29.0597 93.7647 29.1591 93.1714 29.1591C92.3925 29.1591 91.7479 28.9901 91.2375 28.652C90.7271 28.3139 90.4039 27.8201 90.268 27.1705L91.3817 26.892C91.4877 27.303 91.6882 27.6113 91.9832 27.8168C92.2815 28.0223 92.671 28.125 93.1515 28.125C93.6984 28.125 94.1326 28.009 94.4541 27.777C94.7789 27.5417 94.9413 27.2599 94.9413 26.9318C94.9413 26.6667 94.8485 26.4446 94.6629 26.2656C94.4773 26.0833 94.1923 25.9474 93.8078 25.858L92.5351 25.5597C91.8357 25.3939 91.322 25.1371 90.9939 24.7891C90.6691 24.4377 90.5067 23.9986 90.5067 23.4716C90.5067 23.0407 90.6276 22.6596 90.8696 22.3281C91.1148 21.9967 91.4479 21.7365 91.8689 21.5476C92.2931 21.3587 92.7737 21.2642 93.3106 21.2642C94.0663 21.2642 94.6596 21.4299 95.0905 21.7614C95.5247 22.0928 95.8329 22.5303 96.0152 23.0739ZM100.168 29.179C99.6838 29.179 99.2446 29.0878 98.8502 28.9055C98.4558 28.7199 98.1426 28.4531 97.9106 28.1051C97.6786 27.7538 97.5626 27.3295 97.5626 26.8324C97.5626 26.3949 97.6488 26.0402 97.8211 25.7685C97.9935 25.4934 98.2238 25.2779 98.5122 25.1222C98.8005 24.9664 99.1187 24.8504 99.4667 24.7741C99.818 24.6946 100.171 24.6316 100.526 24.5852C100.99 24.5256 101.366 24.4808 101.654 24.451C101.946 24.4179 102.158 24.3632 102.291 24.2869C102.426 24.2107 102.494 24.0781 102.494 23.8892V23.8494C102.494 23.3589 102.36 22.9777 102.092 22.706C101.827 22.4342 101.424 22.2983 100.884 22.2983C100.323 22.2983 99.8843 22.4209 99.5661 22.6662C99.248 22.9115 99.0242 23.1733 98.895 23.4517L97.7813 23.054C97.9802 22.59 98.2454 22.2287 98.5768 21.9702C98.9115 21.7083 99.2761 21.526 99.6705 21.4233C100.068 21.3172 100.459 21.2642 100.844 21.2642C101.089 21.2642 101.371 21.294 101.689 21.3537C102.011 21.41 102.32 21.5277 102.619 21.7067C102.92 21.8857 103.171 22.1558 103.369 22.517C103.568 22.8783 103.668 23.3622 103.668 23.9688V29H102.494V27.9659H102.435C102.355 28.1316 102.223 28.3089 102.037 28.4979C101.851 28.6868 101.604 28.8475 101.296 28.9801C100.988 29.1127 100.612 29.179 100.168 29.179ZM100.347 28.125C100.811 28.125 101.202 28.0339 101.52 27.8516C101.841 27.6693 102.083 27.4339 102.246 27.1456C102.412 26.8572 102.494 26.554 102.494 26.2358V25.1619C102.445 25.2216 102.335 25.2763 102.166 25.326C102.001 25.3724 101.808 25.4138 101.59 25.4503C101.374 25.4834 101.164 25.5133 100.958 25.5398C100.756 25.563 100.592 25.5829 100.466 25.5994C100.161 25.6392 99.876 25.7038 99.6109 25.7933C99.349 25.8795 99.1369 26.0104 98.9745 26.1861C98.8154 26.3584 98.7359 26.5937 98.7359 26.892C98.7359 27.2997 98.8867 27.608 99.1883 27.8168C99.4932 28.0223 99.8794 28.125 100.347 28.125ZM108.911 29.1591C108.196 29.1591 107.579 28.9901 107.062 28.652C106.545 28.3139 106.147 27.8482 105.869 27.255C105.59 26.6617 105.451 25.9839 105.451 25.2216C105.451 24.446 105.594 23.7616 105.879 23.1683C106.167 22.5717 106.568 22.1061 107.082 21.7713C107.599 21.4332 108.202 21.2642 108.892 21.2642C109.429 21.2642 109.912 21.3636 110.343 21.5625C110.774 21.7614 111.127 22.0398 111.402 22.3977C111.677 22.7557 111.848 23.1733 111.914 23.6506H110.741C110.652 23.3026 110.453 22.9943 110.144 22.7259C109.84 22.4541 109.429 22.3182 108.911 22.3182C108.454 22.3182 108.053 22.4375 107.708 22.6761C107.367 22.9115 107.1 23.2446 106.908 23.6754C106.719 24.103 106.625 24.6051 106.625 25.1818C106.625 25.7718 106.717 26.2855 106.903 26.723C107.092 27.1605 107.357 27.5002 107.698 27.7422C108.043 27.9841 108.447 28.1051 108.911 28.1051C109.216 28.1051 109.493 28.0521 109.742 27.946C109.99 27.84 110.201 27.6875 110.373 27.4886C110.545 27.2898 110.668 27.0511 110.741 26.7727H111.914C111.848 27.2235 111.684 27.6295 111.422 27.9908C111.164 28.3487 110.821 28.6338 110.393 28.8459C109.969 29.0547 109.475 29.1591 108.911 29.1591ZM116.951 21.3636V22.358H112.993V21.3636H116.951ZM114.147 19.5341H115.32V26.8125C115.32 27.1439 115.368 27.3925 115.464 27.5582C115.563 27.7206 115.689 27.83 115.842 27.8864C115.998 27.9394 116.162 27.9659 116.334 27.9659C116.463 27.9659 116.569 27.9593 116.652 27.946C116.735 27.9295 116.801 27.9162 116.851 27.9062L117.09 28.9602C117.01 28.9901 116.899 29.0199 116.757 29.0497C116.614 29.0829 116.434 29.0994 116.215 29.0994C115.883 29.0994 115.559 29.0282 115.24 28.8857C114.925 28.7431 114.664 28.526 114.455 28.2344C114.249 27.9427 114.147 27.5748 114.147 27.1307V19.5341ZM118.715 29V21.3636H119.889V29H118.715ZM119.312 20.0909C119.083 20.0909 118.886 20.013 118.72 19.8572C118.558 19.7015 118.477 19.5142 118.477 19.2955C118.477 19.0767 118.558 18.8894 118.72 18.7337C118.886 18.5779 119.083 18.5 119.312 18.5C119.541 18.5 119.736 18.5779 119.899 18.7337C120.064 18.8894 120.147 19.0767 120.147 19.2955C120.147 19.5142 120.064 19.7015 119.899 19.8572C119.736 20.013 119.541 20.0909 119.312 20.0909ZM125.14 29.1591C124.451 29.1591 123.846 28.995 123.325 28.6669C122.808 28.3388 122.404 27.8797 122.112 27.2898C121.824 26.6998 121.68 26.0104 121.68 25.2216C121.68 24.4261 121.824 23.7318 122.112 23.1385C122.404 22.5452 122.808 22.0845 123.325 21.7564C123.846 21.4283 124.451 21.2642 125.14 21.2642C125.829 21.2642 126.433 21.4283 126.95 21.7564C127.47 22.0845 127.874 22.5452 128.163 23.1385C128.454 23.7318 128.6 24.4261 128.6 25.2216C128.6 26.0104 128.454 26.6998 128.163 27.2898C127.874 27.8797 127.47 28.3388 126.95 28.6669C126.433 28.995 125.829 29.1591 125.14 29.1591ZM125.14 28.1051C125.664 28.1051 126.095 27.9709 126.433 27.7024C126.771 27.4339 127.021 27.081 127.183 26.6435C127.346 26.206 127.427 25.732 127.427 25.2216C127.427 24.7112 127.346 24.2356 127.183 23.7947C127.021 23.3539 126.771 22.9976 126.433 22.7259C126.095 22.4541 125.664 22.3182 125.14 22.3182C124.616 22.3182 124.185 22.4541 123.847 22.7259C123.509 22.9976 123.259 23.3539 123.097 23.7947C122.934 24.2356 122.853 24.7112 122.853 25.2216C122.853 25.732 122.934 26.206 123.097 26.6435C123.259 27.081 123.509 27.4339 123.847 27.7024C124.185 27.9709 124.616 28.1051 125.14 28.1051ZM131.565 24.4062V29H130.391V21.3636H131.525V22.5568H131.624C131.803 22.169 132.075 21.8575 132.44 21.6222C132.804 21.3835 133.275 21.2642 133.851 21.2642C134.369 21.2642 134.821 21.3703 135.209 21.5824C135.597 21.7912 135.898 22.1094 136.114 22.5369C136.329 22.9612 136.437 23.4981 136.437 24.1477V29H135.263V24.2273C135.263 23.6274 135.108 23.16 134.796 22.8253C134.485 22.4872 134.057 22.3182 133.513 22.3182C133.139 22.3182 132.804 22.3994 132.509 22.5618C132.217 22.7242 131.987 22.9612 131.818 23.2727C131.649 23.5843 131.565 23.9621 131.565 24.4062ZM143.691 24.4062V29H142.518V18.8182H143.691V22.5568H143.791C143.97 22.1624 144.238 21.8492 144.596 21.6172C144.958 21.3819 145.438 21.2642 146.038 21.2642C146.558 21.2642 147.014 21.3686 147.405 21.5774C147.796 21.7829 148.1 22.0994 148.315 22.527C148.534 22.9512 148.643 23.4915 148.643 24.1477V29H147.47V24.2273C147.47 23.6207 147.312 23.1518 146.998 22.8203C146.686 22.4856 146.254 22.3182 145.7 22.3182C145.316 22.3182 144.971 22.3994 144.666 22.5618C144.364 22.7242 144.126 22.9612 143.95 23.2727C143.778 23.5843 143.691 23.9621 143.691 24.4062ZM150.79 29V21.3636H151.963V29H150.79ZM151.386 20.0909C151.158 20.0909 150.96 20.013 150.795 19.8572C150.632 19.7015 150.551 19.5142 150.551 19.2955C150.551 19.0767 150.632 18.8894 150.795 18.7337C150.96 18.5779 151.158 18.5 151.386 18.5C151.615 18.5 151.811 18.5779 151.973 18.7337C152.139 18.8894 152.222 19.0767 152.222 19.2955C152.222 19.5142 152.139 19.7015 151.973 19.8572C151.811 20.013 151.615 20.0909 151.386 20.0909ZM159.521 23.0739L158.467 23.3722C158.401 23.1965 158.303 23.0258 158.174 22.8601C158.048 22.6911 157.875 22.5518 157.657 22.4425C157.438 22.3331 157.158 22.2784 156.816 22.2784C156.349 22.2784 155.96 22.3861 155.648 22.6016C155.34 22.8137 155.186 23.0838 155.186 23.4119C155.186 23.7036 155.292 23.9339 155.504 24.103C155.716 24.272 156.048 24.4129 156.498 24.5256L157.632 24.804C158.315 24.9697 158.823 25.2232 159.158 25.5646C159.493 25.9027 159.66 26.3385 159.66 26.8722C159.66 27.3097 159.534 27.7008 159.282 28.0455C159.034 28.3902 158.686 28.6619 158.238 28.8608C157.791 29.0597 157.271 29.1591 156.677 29.1591C155.898 29.1591 155.254 28.9901 154.743 28.652C154.233 28.3139 153.91 27.8201 153.774 27.1705L154.888 26.892C154.994 27.303 155.194 27.6113 155.489 27.8168C155.787 28.0223 156.177 28.125 156.657 28.125C157.204 28.125 157.638 28.009 157.96 27.777C158.285 27.5417 158.447 27.2599 158.447 26.9318C158.447 26.6667 158.354 26.4446 158.169 26.2656C157.983 26.0833 157.698 25.9474 157.314 25.858L156.041 25.5597C155.342 25.3939 154.828 25.1371 154.5 24.7891C154.175 24.4377 154.013 23.9986 154.013 23.4716C154.013 23.0407 154.133 22.6596 154.375 22.3281C154.621 21.9967 154.954 21.7365 155.375 21.5476C155.799 21.3587 156.28 21.2642 156.816 21.2642C157.572 21.2642 158.165 21.4299 158.596 21.7614C159.031 22.0928 159.339 22.5303 159.521 23.0739ZM164.747 21.3636V22.358H160.79V21.3636H164.747ZM161.943 19.5341H163.117V26.8125C163.117 27.1439 163.165 27.3925 163.261 27.5582C163.36 27.7206 163.486 27.83 163.639 27.8864C163.795 27.9394 163.959 27.9659 164.131 27.9659C164.26 27.9659 164.366 27.9593 164.449 27.946C164.532 27.9295 164.598 27.9162 164.648 27.9062L164.887 28.9602C164.807 28.9901 164.696 29.0199 164.554 29.0497C164.411 29.0829 164.23 29.0994 164.012 29.0994C163.68 29.0994 163.355 29.0282 163.037 28.8857C162.722 28.7431 162.46 28.526 162.252 28.2344C162.046 27.9427 161.943 27.5748 161.943 27.1307V19.5341ZM169.533 29.1591C168.843 29.1591 168.238 28.995 167.718 28.6669C167.201 28.3388 166.797 27.8797 166.505 27.2898C166.217 26.6998 166.072 26.0104 166.072 25.2216C166.072 24.4261 166.217 23.7318 166.505 23.1385C166.797 22.5452 167.201 22.0845 167.718 21.7564C168.238 21.4283 168.843 21.2642 169.533 21.2642C170.222 21.2642 170.825 21.4283 171.342 21.7564C171.863 22.0845 172.267 22.5452 172.555 23.1385C172.847 23.7318 172.993 24.4261 172.993 25.2216C172.993 26.0104 172.847 26.6998 172.555 27.2898C172.267 27.8797 171.863 28.3388 171.342 28.6669C170.825 28.995 170.222 29.1591 169.533 29.1591ZM169.533 28.1051C170.056 28.1051 170.487 27.9709 170.825 27.7024C171.163 27.4339 171.414 27.081 171.576 26.6435C171.738 26.206 171.82 25.732 171.82 25.2216C171.82 24.7112 171.738 24.2356 171.576 23.7947C171.414 23.3539 171.163 22.9976 170.825 22.7259C170.487 22.4541 170.056 22.3182 169.533 22.3182C169.009 22.3182 168.578 22.4541 168.24 22.7259C167.902 22.9976 167.652 23.3539 167.489 23.7947C167.327 24.2356 167.246 24.7112 167.246 25.2216C167.246 25.732 167.327 26.206 167.489 26.6435C167.652 27.081 167.902 27.4339 168.24 27.7024C168.578 27.9709 169.009 28.1051 169.533 28.1051ZM174.784 29V21.3636H175.917V22.517H175.997C176.136 22.1392 176.388 21.8326 176.753 21.5973C177.117 21.362 177.528 21.2443 177.986 21.2443C178.072 21.2443 178.179 21.246 178.309 21.2493C178.438 21.2526 178.536 21.2576 178.602 21.2642V22.4574C178.562 22.4474 178.471 22.4325 178.329 22.4126C178.189 22.3894 178.042 22.3778 177.886 22.3778C177.515 22.3778 177.183 22.4557 176.892 22.6115C176.603 22.764 176.375 22.9761 176.206 23.2479C176.04 23.5163 175.957 23.8229 175.957 24.1676V29H174.784ZM180.981 31.8636C180.782 31.8636 180.605 31.8471 180.449 31.8139C180.293 31.7841 180.185 31.7543 180.126 31.7244L180.424 30.6903C180.709 30.7633 180.961 30.7898 181.18 30.7699C181.399 30.75 181.592 30.6522 181.761 30.4766C181.934 30.3042 182.091 30.0241 182.234 29.6364L182.453 29.0398L179.629 21.3636H180.901L183.009 27.4489H183.089L185.197 21.3636H186.47L183.228 30.1136C183.082 30.508 182.902 30.8345 182.686 31.093C182.471 31.3549 182.22 31.5488 181.935 31.6747C181.654 31.8007 181.336 31.8636 180.981 31.8636Z" fill="#4B4B4B"/>
<path d="M27.25 30C27.25 30.4142 27.5858 30.75 28 30.75C28.4142 30.75 28.75 30.4142 28.75 30L27.25 30ZM28.5303 13.4697C28.2374 13.1768 27.7626 13.1768 27.4697 13.4697L22.6967 18.2426C22.4038 18.5355 22.4038 19.0104 22.6967 19.3033C22.9896 19.5962 23.4645 19.5962 23.7574 19.3033L28 15.0607L32.2426 19.3033C32.5355 19.5962 33.0104 19.5962 33.3033 19.3033C33.5962 19.0104 33.5962 18.5355 33.3033 18.2426L28.5303 13.4697ZM28.75 30L28.75 14L27.25 14L27.25 30L28.75 30Z" fill="#4B4B4B"/>
<path d="M16.75 14C16.75 13.5858 16.4142 13.25 16 13.25C15.5858 13.25 15.25 13.5858 15.25 14L16.75 14ZM15.4697 30.5303C15.7626 30.8232 16.2374 30.8232 16.5303 30.5303L21.3033 25.7574C21.5962 25.4645 21.5962 24.9896 21.3033 24.6967C21.0104 24.4038 20.5355 24.4038 20.2426 24.6967L16 28.9393L11.7574 24.6967C11.4645 24.4038 10.9896 24.4038 10.6967 24.6967C10.4038 24.9896 10.4038 25.4645 10.6967 25.7574L15.4697 30.5303ZM15.25 14L15.25 30L16.75 30L16.75 14L15.25 14Z" fill="#4B4B4B"/>
<defs>
<linearGradient id="paint0_linear_44_498" x1="-5.35724e-08" y1="1.06024" x2="45.8997" y2="3.19724" gradientUnits="userSpaceOnUse">
<stop stop-color="#BFC3FC"/>
<stop offset="1" stop-color="#A2C3FC"/>
</linearGradient>
</defs>
</svg>
