<svg width="20" height="24" viewBox="0 0 20 24" fill="none" xmlns="http://www.w3.org/2000/svg">
<path d="M4.16373 0.981463L4.16373 0.98146C4.28356 0.868895 4.43976 0.810657 4.59659 0.810657H15.2009C15.3578 0.810657 15.514 0.868895 15.6338 0.981464M4.16373 0.981463L15.6338 2.98752L15.2915 2.62309L15.6338 2.98751M4.16373 0.981463C4.04285 1.09502 3.96858 1.25597 3.96858 1.43091V2.53806C3.96858 2.71301 4.04285 2.87395 4.16373 2.98751L4.16373 2.98751M4.16373 0.981463L4.16373 2.98751M15.6338 0.981464L15.2915 1.34588L15.6338 0.981456C15.6338 0.981459 15.6338 0.981461 15.6338 0.981464ZM15.6338 0.981464C15.7547 1.09503 15.8289 1.25597 15.8289 1.43091V2.53806C15.8289 2.713 15.7547 2.87395 15.6338 2.98751M15.6338 2.98751C15.514 3.10008 15.3578 3.15832 15.2009 3.15832H4.59659C4.43976 3.15832 4.28356 3.10008 4.16373 2.98751M15.6338 2.98751L4.16373 2.98751M16.7885 1.77474C16.8 1.77307 16.8115 1.77212 16.8232 1.77192C18.3901 1.77328 19.5 2.81548 19.5 3.91116V21.3608C19.5 22.4566 18.3886 23.5 16.8201 23.5H3.17989C1.61143 23.5 0.5 22.4566 0.5 21.3608V3.90942C0.5 2.83326 1.56881 1.8105 3.09534 1.77176L3.52733 1.7608L3.57906 1.33177C3.60544 1.11293 3.71733 0.903886 3.90321 0.747724C4.08977 0.59098 4.33644 0.500387 4.59692 0.5H15.2006C15.4622 0.500331 15.7098 0.591632 15.8967 0.749477C16.0828 0.906714 16.1942 1.11704 16.2193 1.33687L16.278 1.8495L16.7885 1.77474ZM0.895163 3.91072V3.91116V21.3608C0.895163 21.922 1.2022 22.3908 1.61954 22.7017C2.03699 23.0127 2.59037 23.1905 3.17989 23.1905H16.8195C17.4094 23.1905 17.9627 23.0121 18.38 22.7009C18.797 22.39 19.1042 21.9213 19.1042 21.3608L19.1048 3.91291C19.1048 3.35144 18.7979 2.88263 18.3804 2.57169C17.9636 2.26121 17.4113 2.08372 16.8229 2.08316C16.8121 2.08301 16.8013 2.0822 16.7907 2.08076L16.2397 2.00599L16.2237 2.56182C16.217 2.79433 16.1141 3.02213 15.9258 3.19443L16.2633 3.56329L15.9258 3.19443C15.7366 3.36757 15.4769 3.46927 15.2008 3.46955C15.2007 3.46955 15.2006 3.46955 15.2005 3.46955H4.59709C4.59701 3.46955 4.59694 3.46955 4.59687 3.46955C4.32195 3.46923 4.06332 3.36838 3.87432 3.1965C3.68624 3.02545 3.58259 2.79911 3.57433 2.56764L3.55631 2.06259L3.05148 2.08601C2.49125 2.11199 1.96886 2.29847 1.5757 2.60732C1.18217 2.91646 0.895635 3.3709 0.895163 3.91072Z" stroke="#4B4B4B"/>
<path d="M8.49812 5.36914L8.49853 5.36914C8.52864 5.36912 8.55781 5.3747 8.58412 5.38492C8.61039 5.39512 8.63232 5.40935 8.64938 5.42536L8.99156 5.06079L8.64938 5.42536C8.66638 5.44132 8.67807 5.45855 8.68542 5.4752L9.14287 5.27337L8.68542 5.4752C8.69272 5.49176 8.69601 5.5083 8.69601 5.52418V8.94102C8.69601 8.97186 8.68325 9.00826 8.64926 9.0402L8.9916 9.40462L8.64925 9.0402C8.6142 9.07313 8.56033 9.09664 8.49812 9.09664H4.86159C4.79937 9.09664 4.74551 9.07313 4.71045 9.0402L4.36968 9.40294L4.71045 9.0402C4.67645 9.00826 4.6637 8.97186 4.6637 8.94102V5.52451C4.66376 5.49372 4.67655 5.4574 4.7105 5.42553C4.74557 5.39262 4.79941 5.36914 4.86159 5.36914L8.49812 5.36914ZM7.80084 8.78541H8.30084V8.28541V6.1798V5.6798H7.80084H5.55947H5.05947V6.1798V8.28541V8.78541H5.55947H7.80084Z" stroke="#4B4B4B"/>
<path d="M8.49853 15.2297H8.49812H4.86159C4.83141 15.2297 4.80219 15.2241 4.77583 15.2138L4.59501 15.6785L4.77583 15.2138C4.74951 15.2036 4.72754 15.1893 4.71045 15.1733C4.69341 15.1573 4.68169 15.14 4.67432 15.1233C4.66699 15.1066 4.6637 15.09 4.6637 15.0741V11.6578C4.6637 11.627 4.67645 11.5906 4.71045 11.5586C4.74551 11.5257 4.79937 11.5022 4.86159 11.5022H8.49812C8.56033 11.5022 8.6142 11.5257 8.64926 11.5586C8.68325 11.5906 8.69601 11.627 8.69601 11.6578V15.0741V15.0746C8.69602 15.0904 8.69275 15.107 8.68545 15.1236L9.14305 15.3251L8.68545 15.1236C8.67812 15.1402 8.66643 15.1575 8.64944 15.1734C8.63238 15.1895 8.61045 15.2037 8.58416 15.2139C8.55784 15.2241 8.52866 15.2297 8.49853 15.2297ZM7.80084 14.919H8.30084V14.419V12.3134V11.8134H7.80084H5.55947H5.05947V12.3134V14.419V14.919H5.55947H7.80084Z" stroke="#4B4B4B"/>
<path d="M11.4636 7.10678L11.4636 7.10698H11.4775H15.0599H15.0605V6.62906L15.0738 7.10678C15.1046 7.10593 15.1346 7.11092 15.1619 7.12087C15.1891 7.13081 15.212 7.14507 15.2298 7.16133L15.5667 6.79188L15.2298 7.16133C15.2476 7.17752 15.2598 7.19514 15.2675 7.21218L15.7234 7.00692L15.2675 7.21218C15.2751 7.22913 15.2785 7.24607 15.2785 7.26231C15.2785 7.27854 15.2751 7.29548 15.2675 7.31243L15.7183 7.5154L15.2675 7.31243C15.2598 7.32948 15.2476 7.3471 15.2298 7.36328L15.5667 7.73273L15.2298 7.36329C15.212 7.37954 15.1891 7.3938 15.1619 7.40374C15.1346 7.41369 15.1046 7.41869 15.0738 7.41783L15.0738 7.41764H15.0599H11.4775V7.41744L11.4636 7.41783C11.4328 7.41869 11.4028 7.41369 11.3755 7.40374C11.3483 7.3938 11.3254 7.37954 11.3076 7.36329C11.2899 7.34709 11.2776 7.32947 11.27 7.31243C11.2623 7.29549 11.2589 7.27855 11.2589 7.26231C11.2589 7.24607 11.2623 7.22913 11.27 7.21218C11.2776 7.19514 11.2899 7.17752 11.3076 7.16133C11.3254 7.14508 11.3483 7.13081 11.3755 7.12087C11.4028 7.11092 11.4328 7.10593 11.4636 7.10678Z" stroke="#4B4B4B"/>
<path d="M11.4766 13.2103H15.0589C15.1212 13.2103 15.175 13.2338 15.2101 13.2668C15.2441 13.2987 15.2568 13.3351 15.2568 13.3659C15.2568 13.3968 15.2441 13.4332 15.2101 13.4651C15.175 13.4981 15.1212 13.5216 15.0589 13.5216H11.4766C11.4144 13.5216 11.3605 13.4981 11.3254 13.4651C11.2914 13.4332 11.2787 13.3968 11.2787 13.3659C11.2787 13.3351 11.2914 13.2987 11.3254 13.2668C11.3605 13.2338 11.4144 13.2103 11.4766 13.2103Z" stroke="#4B4B4B"/>
<path d="M8.49812 17.6355L8.49853 17.6355C8.52865 17.6355 8.55782 17.6411 8.58412 17.6513C8.61039 17.6615 8.63231 17.6757 8.64938 17.6917L8.99156 17.3272L8.64938 17.6917C8.66638 17.7077 8.67807 17.7249 8.68542 17.7416L9.14029 17.5409L8.68542 17.7416C8.69272 17.7581 8.69601 17.7747 8.69601 17.7905V21.2074C8.69601 21.2382 8.68325 21.2746 8.64926 21.3066C8.6142 21.3395 8.56033 21.363 8.49812 21.363H4.86159C4.79937 21.363 4.74551 21.3395 4.71045 21.3066C4.67645 21.2746 4.6637 21.2382 4.6637 21.2074V17.7909C4.66376 17.7601 4.67655 17.7238 4.7105 17.6919C4.74557 17.659 4.79941 17.6355 4.86159 17.6355L8.49812 17.6355ZM7.80084 21.0512H8.30084V20.5512V18.4462V17.9462H7.80084H5.55947H5.05947V18.4462V20.5512V21.0512H5.55947H7.80084Z" stroke="#4B4B4B"/>
<path d="M11.4766 19.3433H15.0589C15.1212 19.3433 15.175 19.3668 15.2101 19.3997C15.2441 19.4316 15.2568 19.468 15.2568 19.4989C15.2568 19.5297 15.2441 19.5661 15.2101 19.5981C15.175 19.631 15.1212 19.6545 15.0589 19.6545H11.4766C11.4144 19.6545 11.3605 19.631 11.3254 19.5981L11.0148 19.9287L11.3254 19.5981C11.2914 19.5661 11.2787 19.5297 11.2787 19.4989C11.2787 19.468 11.2914 19.4316 11.3254 19.3997C11.3605 19.3668 11.4144 19.3433 11.4766 19.3433Z" stroke="#4B4B4B"/>
</svg>
