<svg width="24" height="24" viewBox="0 0 24 24" fill="none" xmlns="http://www.w3.org/2000/svg">
<path d="M18.5455 23.5H5.45455C4.80391 23.5 4.15964 23.3718 3.55852 23.1229C2.95741 22.8739 2.41123 22.5089 1.95115 22.0488C1.49108 21.5888 1.12613 21.0426 0.877142 20.4415C0.628153 19.8404 0.5 19.1961 0.5 18.5455V5.45455C0.5 4.14052 1.022 2.88031 1.95115 1.95115C2.88031 1.022 4.14052 0.5 5.45455 0.5H18.5455C19.1961 0.5 19.8404 0.628153 20.4415 0.877142C21.0426 1.12613 21.5888 1.49108 22.0488 1.95115C22.5089 2.41123 22.8739 2.95741 23.1229 3.55852C23.3718 4.15964 23.5 4.80391 23.5 5.45455V18.5455C23.5 19.1961 23.3718 19.8404 23.1229 20.4415C22.8739 21.0426 22.5089 21.5888 22.0488 22.0488C21.5888 22.5089 21.0426 22.8739 20.4415 23.1229C19.8404 23.3718 19.1961 23.5 18.5455 23.5ZM5.45455 1.68182C4.45396 1.68182 3.49435 2.0793 2.78682 2.78682C2.0793 3.49435 1.68182 4.45396 1.68182 5.45455V18.5455C1.68182 19.546 2.0793 20.5057 2.78682 21.2132C3.49435 21.9207 4.45396 22.3182 5.45455 22.3182H18.5455C19.546 22.3182 20.5057 21.9207 21.2132 21.2132C21.9207 20.5057 22.3182 19.546 22.3182 18.5455V5.45455C22.3182 4.45396 21.9207 3.49435 21.2132 2.78682C20.5057 2.0793 19.546 1.68182 18.5455 1.68182H5.45455Z" fill="#4B4B4B" stroke="#4B4B4B"/>
<path d="M11.9087 18.0455C11.7908 18.0455 11.668 17.9948 11.5702 17.8881L11.2016 18.2259L11.5702 17.8881C11.471 17.7799 11.4087 17.6246 11.4087 17.4545V13.0909C11.4087 12.9208 11.471 12.7655 11.5702 12.6574C11.668 12.5507 11.7908 12.5 11.9087 12.5C12.0266 12.5 12.1494 12.5507 12.2472 12.6574C12.3464 12.7655 12.4087 12.9208 12.4087 13.0909V17.4545C12.4087 17.6246 12.3464 17.7799 12.2472 17.8881C12.1494 17.9948 12.0266 18.0455 11.9087 18.0455Z" fill="#4B4B4B" stroke="#4B4B4B"/>
<path d="M6.45361 18.0454C6.33574 18.0454 6.21288 17.9948 6.11508 17.8881C6.01595 17.7799 5.95361 17.6246 5.95361 17.4545V8.72726C5.95361 8.55718 6.01595 8.40188 6.11508 8.29373C6.21288 8.18704 6.33574 8.13635 6.45361 8.13635C6.57149 8.13635 6.69434 8.18704 6.79214 8.29373C6.89128 8.40188 6.95361 8.55718 6.95361 8.72726V17.4545C6.95361 17.6246 6.89128 17.7799 6.79214 17.8881C6.69434 17.9948 6.57149 18.0454 6.45361 18.0454Z" fill="#4B4B4B" stroke="#4B4B4B"/>
<path d="M17.3638 18.0455C17.2459 18.0455 17.123 17.9948 17.0252 17.8881L16.6567 18.226L17.0252 17.8881C16.9261 17.78 16.8638 17.6247 16.8638 17.4546V6.5455C16.8638 6.37542 16.9261 6.22012 17.0252 6.11197C17.123 6.00528 17.2459 5.95459 17.3638 5.95459C17.4816 5.95459 17.6045 6.00528 17.7023 6.11197C17.8014 6.22012 17.8638 6.37542 17.8638 6.5455V17.4546C17.8638 17.6247 17.8014 17.78 17.7023 17.8881L18.0709 18.226L17.7023 17.8881C17.6045 17.9948 17.4816 18.0455 17.3638 18.0455Z" fill="#4B4B4B" stroke="#4B4B4B"/>
</svg>
