<svg width="308" height="228" viewBox="0 0 308 228" fill="none" xmlns="http://www.w3.org/2000/svg">
<g filter="url(#filter0_d_5_191)">
<g clip-path="url(#clip0_5_191)">
<path d="M151.918 219.07H140.394V128.84H149.766C150.22 128.84 150.656 129.023 150.978 129.348C151.3 129.674 151.481 130.116 151.484 130.578L151.918 219.07Z" fill="#CCCCCC"/>
<path d="M141.471 219.548H17.7148V155.289H141.471V219.548Z" fill="white"/>
<path d="M92.6926 219.309H17.9497V155.527H141.236V169.925C141.222 183.018 136.103 195.571 127.002 204.829C117.902 214.087 105.563 219.294 92.6926 219.309Z" fill="#F2F2F2"/>
<path d="M150.041 131.403C149.979 131.523 149.931 131.649 149.898 131.78L145.63 148.514L141.001 157.432H18.1847V155.211L25.177 148.514L33.334 132.642C33.6941 131.941 34.1669 131.306 34.733 130.765C36.0245 129.528 37.7311 128.84 39.5045 128.84H148.523C148.819 128.84 149.11 128.918 149.368 129.066C149.625 129.214 149.841 129.427 149.994 129.685C150.147 129.943 150.231 130.237 150.24 130.538C150.248 130.839 150.18 131.137 150.041 131.403Z" fill="#F2F2F2"/>
<path d="M141.471 219.548H17.7148V155.289H141.471V219.548ZM18.6543 218.592H140.532V156.244H18.6543V218.592Z" fill="#E6E6E6"/>
<path d="M147.91 139.963L145.63 148.514H25.1771L29.0693 141.397L147.91 139.963Z" fill="#CCCCCC"/>
<path d="M42.0065 188.961H22.2786V190.072H42.0065V188.961Z" fill="white"/>
<path d="M42.0065 192.849H22.2786V193.959H42.0065V192.849Z" fill="white"/>
<path d="M42.0065 196.736H22.2786V197.846H42.0065V196.736Z" fill="white"/>
<path d="M29.9204 176.59C33.8395 176.59 37.0165 173.358 37.0165 169.371C37.0165 165.384 33.8395 162.152 29.9204 162.152C26.0014 162.152 22.8243 165.384 22.8243 169.371C22.8243 173.358 26.0014 176.59 29.9204 176.59Z" fill="white"/>
<path d="M107.695 143.665H101.668V96.4781H106.57C106.807 96.4781 107.035 96.5737 107.203 96.7441C107.371 96.9144 107.466 97.1456 107.468 97.3871L107.695 143.665Z" fill="#CCCCCC"/>
<path d="M102.231 143.914H37.5127V110.31H102.231V143.914Z" fill="white"/>
<path d="M76.7226 143.789H37.6355V110.434H102.109V117.964C102.101 124.811 99.424 131.375 94.6648 136.217C89.9057 141.058 83.453 143.782 76.7226 143.789Z" fill="#F2F2F2"/>
<path d="M106.713 97.8185C106.681 97.8811 106.656 97.9473 106.638 98.0158L104.406 106.767L101.986 111.431H37.7583V110.269L41.415 106.767L45.6807 98.4662C45.869 98.0998 46.1163 97.768 46.4123 97.4847C47.0877 96.8381 47.9802 96.4781 48.9076 96.4781H105.919C106.074 96.4781 106.226 96.5188 106.361 96.5963C106.496 96.6737 106.608 96.7853 106.688 96.9202C106.768 97.055 106.813 97.2086 106.817 97.366C106.821 97.5234 106.786 97.6793 106.713 97.8185Z" fill="#F2F2F2"/>
<path d="M102.231 143.914H37.5127V110.31H102.231V143.914ZM38.004 143.415H101.74V110.809H38.004V143.415Z" fill="#E6E6E6"/>
<path d="M105.598 102.295L104.406 106.767H41.415L43.4504 103.045L105.598 102.295Z" fill="#CCCCCC"/>
<path d="M50.2161 127.919H39.8993V128.5H50.2161V127.919Z" fill="white"/>
<path d="M50.2161 129.952H39.8993V130.532H50.2161V129.952Z" fill="white"/>
<path d="M50.2161 131.984H39.8993V132.565H50.2161V131.984Z" fill="white"/>
<path d="M43.8956 121.449C45.9451 121.449 47.6065 119.759 47.6065 117.674C47.6065 115.589 45.9451 113.899 43.8956 113.899C41.8461 113.899 40.1847 115.589 40.1847 117.674C40.1847 119.759 41.8461 121.449 43.8956 121.449Z" fill="white"/>
<path d="M285.308 219.515L285.271 219.312C284.661 215.891 284.791 212.377 285.651 209.012C286.511 205.648 288.082 202.514 290.252 199.829C291.482 198.333 292.892 197.001 294.448 195.863L294.597 195.754L294.662 195.928C295.436 198.005 296.413 200.085 296.859 201.005L297.159 194.133L297.331 194.04C298.117 193.612 299.01 193.433 299.897 193.526C300.784 193.619 301.623 193.98 302.306 194.563C303.013 195.14 303.533 195.92 303.801 196.802C304.068 197.683 304.07 198.626 303.805 199.508C303.572 200.316 303.351 201.153 303.138 201.963C302.405 204.747 301.647 207.625 300.178 210.049C299.048 211.872 297.532 213.416 295.741 214.567C293.95 215.718 291.928 216.448 289.825 216.703L285.308 219.515Z" fill="#F2F2F2"/>
<path d="M304 219.431C304 219.506 303.986 219.58 303.958 219.649C303.93 219.718 303.889 219.781 303.837 219.834C303.785 219.887 303.723 219.929 303.655 219.957C303.587 219.986 303.514 220 303.441 220H4.55898C4.41073 220 4.26855 219.94 4.16372 219.833C4.05889 219.727 4 219.582 4 219.431C4 219.281 4.05889 219.136 4.16372 219.029C4.26855 218.923 4.41073 218.863 4.55898 218.863H303.441C303.514 218.862 303.587 218.877 303.655 218.906C303.723 218.934 303.785 218.976 303.837 219.029C303.889 219.082 303.93 219.144 303.958 219.213C303.986 219.283 304 219.357 304 219.431Z" fill="#CCCCCC"/>
<path d="M236.207 73.936L227.652 72.6894C224.758 77.6113 223.73 90.7117 223.73 90.7117L215.358 110.956C214.803 111.339 214.358 111.864 214.066 112.478C213.774 113.092 213.647 113.773 213.696 114.453C213.746 115.133 213.97 115.788 214.348 116.352C214.725 116.915 215.242 117.368 215.845 117.664C216.449 117.96 217.119 118.089 217.787 118.037C218.456 117.986 219.099 117.757 219.653 117.373C220.206 116.988 220.651 116.462 220.941 115.847C221.231 115.233 221.357 114.551 221.306 113.871L235.053 90.3079L236.207 73.936Z" fill="#FFB8B8"/>
<path d="M234.845 49.7742C236.169 49.9828 237.432 50.4858 238.543 51.2473C239.655 52.0088 240.587 53.0101 241.275 54.1799C241.963 55.3498 242.389 56.6595 242.522 58.0159C242.656 59.3722 242.494 60.7418 242.048 62.0273L240.233 67.2621C240.233 67.2621 239.245 83.0241 235.476 87.4734L223.911 86.4084C223.911 86.4084 226.025 78.4562 224.402 74.6086C223.408 72.2523 223.463 64.1139 224.443 57.4935C224.626 56.2913 225.041 55.1376 225.663 54.0987C226.286 53.0598 227.104 52.1559 228.07 51.4389C229.036 50.7219 230.132 50.2058 231.294 49.9201C232.457 49.6345 233.663 49.5849 234.845 49.7742Z" fill="#E6E6E6"/>
<path d="M263.118 213.324L257.964 213.323L255.513 193.102L263.119 193.102L263.118 213.324Z" fill="#FFB6B6"/>
<path d="M263.299 218.793L247.452 218.792V218.588C247.452 216.924 248.102 215.328 249.259 214.151C250.415 212.975 251.984 212.314 253.62 212.313H253.621L256.515 210.079L261.916 212.314L263.299 212.314L263.299 218.793Z" fill="#2F2E41"/>
<path d="M240.713 188.263L235.953 190.27L226.074 172.547L233.1 169.583L240.713 188.263Z" fill="#FFB6B6"/>
<path d="M242.941 193.243L228.302 199.419L228.225 199.23C227.599 197.693 227.598 195.966 228.223 194.428C228.849 192.89 230.049 191.668 231.56 191.03L231.56 191.03L233.393 187.839L239.223 187.798L240.501 187.259L242.941 193.243Z" fill="#2F2E41"/>
<path d="M269.01 98.2927L232.438 102.18L227.546 118.942L210.604 146.64L229.31 181.603L235.898 175.588L229.574 147.354L248.448 126.626L252.027 125.115L254.868 202.034L265.376 202.21L269.974 117.334C272.184 109.836 271.519 103.645 269.01 98.2927Z" fill="#2F2E41"/>
<path d="M255.601 45.228L249.599 38.3518L240.113 39.424L234.041 48.0698C230.808 48.8258 227.983 50.8133 226.148 53.6235C224.312 56.4337 223.604 59.8528 224.171 63.1773C226.528 76.982 234.536 90.3708 231.892 97.1821C227.878 107.521 227.633 111.738 237.242 110.289C246.851 108.839 279.042 105.497 272.801 99.1481C266.56 92.7989 265.189 82.189 265.189 82.189L264.939 57.9154C265.204 56.4514 265.169 54.9474 264.835 53.4979C264.501 52.0485 263.876 50.685 262.999 49.4933C262.122 48.3016 261.012 47.3074 259.739 46.5734C258.466 45.8393 257.057 45.3813 255.601 45.228L255.601 45.228Z" fill="#E6E6E6"/>
<path d="M243.871 36.5922C249.686 36.5922 254.4 31.7966 254.4 25.8809C254.4 19.9651 249.686 15.1695 243.871 15.1695C238.056 15.1695 233.342 19.9651 233.342 25.8809C233.342 31.7966 238.056 36.5922 243.871 36.5922Z" fill="#FFB8B8"/>
<path d="M256.844 25.2448C256.374 27.4151 255.526 29.4822 254.34 31.3485C254.025 31.9849 253.555 32.5282 252.974 32.9263C252.68 33.1182 252.329 33.1992 251.983 33.1551C251.636 33.111 251.315 32.9447 251.077 32.685L250.821 32.4727C251.323 32.1578 251.772 31.7618 252.149 31.3002C252.336 31.0686 252.465 30.795 252.527 30.5021C252.589 30.2092 252.581 29.9055 252.505 29.6163C252.414 29.3311 252.218 29.0928 251.957 28.9515C251.697 28.8103 251.394 28.777 251.11 28.8588C250.494 29.1049 250.119 30.012 249.474 29.8721C248.952 29.7562 248.843 29.0566 248.843 28.5065C248.862 25.6308 247.496 21.544 246.438 21.6695C245.37 21.7289 244.3 21.5832 243.284 21.24C242.267 20.8963 241.195 20.757 240.125 20.8299C240.05 20.8395 239.974 20.854 239.893 20.8685C239.722 20.3221 239.486 19.7988 239.191 19.31C239.224 19.9001 239.196 20.4921 239.106 21.076C238.255 21.4327 237.376 21.7151 236.478 21.9203C235.501 22.0603 233.352 25.0325 233.253 24.7285C233.081 24.1822 232.846 23.6589 232.551 23.17C232.584 23.7601 232.556 24.3521 232.466 24.936C232.461 24.9601 232.461 24.9794 232.456 25.0036C231.982 24.3618 231.692 23.5802 231.854 24.1785C230.265 20.5211 230.881 17.9011 233.381 14.8179C233.868 14.1549 234.513 13.6286 235.254 13.2883C235.626 13.1223 236.033 13.0565 236.437 13.097C236.841 13.1376 237.227 13.2832 237.559 13.5199C238.579 12.5691 239.83 11.9129 241.183 11.6193C242.535 11.3258 243.94 11.4056 245.253 11.8505C247.856 12.7721 249.863 13.3125 250.261 16.0917C252.414 15.7395 254.629 16.9843 255.815 18.842C256.996 20.7045 257.238 23.0687 256.844 25.2448Z" fill="#2F2E41"/>
<path d="M248.306 114.213H244.811V86.8508H247.653C247.791 86.8508 247.923 86.9063 248.021 87.005C248.118 87.1038 248.174 87.2379 248.174 87.3779L248.306 114.213Z" fill="#3F3D56"/>
<path d="M245.138 114.357H207.61V94.8712H245.138V114.357Z" fill="white"/>
<path d="M230.346 114.285H207.681V94.9436H245.067V99.3096C245.062 103.28 243.51 107.086 240.75 109.894C237.991 112.701 234.249 114.28 230.346 114.285Z" fill="#B4FFD8"/>
<path d="M247.737 87.628C247.718 87.6643 247.703 87.7027 247.693 87.7425L246.399 92.8168L244.996 95.5212H207.752V94.8476L209.873 92.8168L212.346 88.0036C212.456 87.7912 212.599 87.5988 212.771 87.4345C213.162 87.0596 213.68 86.8508 214.218 86.8508H247.277C247.366 86.8508 247.454 86.8744 247.533 86.9193C247.611 86.9642 247.676 87.0289 247.723 87.1071C247.769 87.1853 247.795 87.2744 247.797 87.3657C247.8 87.4569 247.779 87.5473 247.737 87.628Z" fill="#3F3D56"/>
<path d="M245.138 114.357H207.61V94.8712H245.138V114.357ZM207.895 114.068H244.853V95.161H207.895V114.068Z" fill="#3F3D56"/>
<path d="M247.09 90.2236L246.399 92.817H209.873L211.053 90.6585L247.09 90.2236Z" fill="#B4FFD8"/>
<path d="M214.976 105.082H208.994V105.419H214.976V105.082Z" fill="white"/>
<path d="M214.976 106.261H208.994V106.598H214.976V106.261Z" fill="white"/>
<path d="M214.976 107.44H208.994V107.776H214.976V107.44Z" fill="white"/>
<path d="M211.311 101.331C212.5 101.331 213.463 100.351 213.463 99.1416C213.463 97.9326 212.5 96.9525 211.311 96.9525C210.123 96.9525 209.159 97.9326 209.159 99.1416C209.159 100.351 210.123 101.331 211.311 101.331Z" fill="white"/>
<path d="M262.906 71.4343L254.351 70.1877C251.457 75.1095 250.429 88.21 250.429 88.21L242.057 108.454C241.502 108.837 241.057 109.362 240.765 109.976C240.473 110.59 240.346 111.271 240.395 111.951C240.445 112.631 240.67 113.286 241.047 113.85C241.424 114.413 241.941 114.866 242.544 115.162C243.148 115.458 243.818 115.587 244.487 115.536C245.155 115.485 245.798 115.255 246.352 114.871C246.906 114.486 247.35 113.96 247.64 113.346C247.93 112.731 248.056 112.049 248.005 111.37L261.752 87.8061L262.906 71.4343Z" fill="#FFB8B8"/>
<path d="M258.269 47.2725C259.593 47.4812 260.856 47.9841 261.967 48.7456C263.079 49.5071 264.011 50.5084 264.699 51.6782C265.387 52.8481 265.813 54.1578 265.946 55.5141C266.08 56.8705 265.918 58.2401 265.472 59.5256L263.657 64.7604C263.657 64.7604 265.944 80.5224 262.175 84.9717L250.61 83.9067C250.61 83.9067 252.724 75.9545 251.101 72.1069C250.107 69.7506 250.162 61.6123 251.142 54.9918C251.89 49.9366 253.303 46.4901 258.269 47.2725Z" fill="#E6E6E6"/>
<path d="M185.625 21.1929C181.445 23.3136 178.265 27.0365 176.783 31.5428C175.302 36.049 175.64 40.9694 177.725 45.2216C182.066 54.0762 197.752 69.1778 210.268 71.4595C204.884 54.8301 212.37 37.9271 209.245 29.2297C205.906 19.9362 194.329 16.7769 185.625 21.1929Z" fill="#B4FFD8"/>
<path d="M191.492 42.2522C194.664 42.2522 197.236 39.6361 197.236 36.4091C197.236 33.1821 194.664 30.5661 191.492 30.5661C188.32 30.5661 185.748 33.1821 185.748 36.4091C185.748 39.6361 188.32 42.2522 191.492 42.2522Z" fill="white"/>
<path d="M210.157 80.8379C212.235 80.8379 213.919 79.1245 213.919 77.0109C213.919 74.8973 212.235 73.1838 210.157 73.1838C208.08 73.1838 206.395 74.8973 206.395 77.0109C206.395 79.1245 208.08 80.8379 210.157 80.8379Z" fill="#B4FFD8"/>
<path opacity="0.2" d="M193.243 30.267C193.997 30.2404 194.749 30.3652 195.455 30.6343C196.162 30.9035 196.81 31.3117 197.362 31.8356C197.913 32.3595 198.358 32.9889 198.67 33.6877C198.983 34.3866 199.157 35.1412 199.182 35.9085C199.208 36.6758 199.084 37.4406 198.819 38.1594C198.554 38.8782 198.152 39.5367 197.637 40.0974C197.121 40.6581 196.502 41.11 195.815 41.4272C195.128 41.7444 194.386 41.9207 193.632 41.9461C194.91 41.4625 195.977 40.5318 196.643 39.3208C197.308 38.1097 197.528 36.6973 197.263 35.3363C196.998 33.9753 196.266 32.7546 195.198 31.8926C194.129 31.0306 192.794 30.5837 191.431 30.6318C192.011 30.4115 192.623 30.2884 193.243 30.267Z" fill="#231F20"/>
<path opacity="0.2" d="M209.274 29.2331C212.399 37.9305 204.913 54.8335 210.297 71.4629C209.115 71.2416 207.952 70.9318 206.815 70.5359C202.429 54.4604 209.313 38.3972 206.294 29.994C203.592 22.4729 195.495 18.9702 187.891 20.248C196.236 17.3526 206.214 20.7165 209.274 29.2331Z" fill="#231F20"/>
<path d="M32.9634 109.926C28.6367 109.821 24.4459 111.468 21.313 114.506C18.1801 117.543 16.3616 121.723 16.2578 126.124C16.0414 135.29 22.4565 154.574 31.7352 161.96C34.4093 145.967 47.7402 135.422 48.8856 126.921C50.1095 117.838 41.9733 110.147 32.9634 109.926Z" fill="#D1D3D4"/>
<path d="M31.2873 130.39C34.2265 130.39 36.6093 127.966 36.6093 124.975C36.6093 121.985 34.2265 119.561 31.2873 119.561C28.348 119.561 25.9652 121.985 25.9652 124.975C25.9652 127.966 28.348 130.39 31.2873 130.39Z" fill="white"/>
<path d="M29.2803 170.004C31.2054 170.004 32.7661 168.417 32.7661 166.458C32.7661 164.5 31.2054 162.912 29.2803 162.912C27.3551 162.912 25.7944 164.5 25.7944 166.458C25.7944 168.417 27.3551 170.004 29.2803 170.004Z" fill="#D1D3D4"/>
<path opacity="0.2" d="M35.3373 120.716C36.6065 121.345 37.5785 122.46 38.0394 123.817C38.5003 125.174 38.4124 126.662 37.7949 127.953C37.4892 128.593 37.0627 129.165 36.5397 129.636C36.0168 130.108 35.4076 130.47 34.747 130.702C33.413 131.171 31.9504 131.082 30.6812 130.454C31.9341 130.621 33.2047 130.329 34.2655 129.631C35.3263 128.932 36.1082 127.872 36.4711 126.641C36.834 125.409 36.7542 124.087 36.2461 122.91C35.738 121.733 34.8347 120.778 33.6979 120.217C34.2673 120.292 34.8209 120.461 35.3373 120.716Z" fill="#231F20"/>
<path opacity="0.2" d="M48.9079 126.937C47.7625 135.438 34.4316 145.982 31.7576 161.976C30.8843 161.274 30.0632 160.507 29.3011 159.682C32.556 144.581 45.0368 134.46 46.1435 126.247C47.134 118.895 41.9939 112.457 35.2218 110.151C43.2903 111.459 50.0295 118.613 48.9079 126.937Z" fill="#231F20"/>
<path d="M94.874 39.3824C93.6579 39.4634 92.521 40.0238 91.7049 40.9446C90.8889 41.8653 90.4583 43.0736 90.5046 44.3125C90.518 44.5641 90.5517 44.8142 90.6056 45.0602L76.7968 53.9103L84.431 57.3452L96.3737 48.4144C97.3591 48.1081 98.2171 47.4786 98.8138 46.6241C99.4105 45.7697 99.7124 44.7383 99.6723 43.6909C99.6438 43.0951 99.5003 42.5109 99.2499 41.9716C98.9996 41.4323 98.6472 40.9484 98.213 40.5476C97.7788 40.1468 97.2713 39.8369 96.7194 39.6357C96.1674 39.4344 95.582 39.3457 94.9964 39.3747C94.9555 39.3767 94.9147 39.3793 94.874 39.3824Z" fill="#FFB6B6"/>
<path d="M81.558 49.8878L84.9804 57.0713L71.4487 65.9298C70.4859 66.5655 69.3792 66.9402 68.2339 67.0183C67.0886 67.0963 65.9428 66.8751 64.9052 66.3757C63.6437 65.7615 62.6127 64.7467 61.9675 63.4844C61.3223 62.2222 61.0979 60.7807 61.3281 59.3774L65.7189 33.8766C66.0137 32.0921 66.9694 30.4903 68.3896 29.4007C69.8097 28.3111 71.5863 27.8166 73.3539 28.0187C74.2149 28.1145 75.0489 28.3819 75.8083 28.8055C76.5677 29.2292 77.2376 29.8009 77.7799 30.4879C78.3221 31.175 78.726 31.9639 78.9685 32.8098C79.211 33.6556 79.2873 34.5418 79.1932 35.4177C79.1857 35.4869 79.1772 35.5559 79.1677 35.6249C79.1345 35.8699 79.0884 36.113 79.0294 36.3529L74.2361 54.4886L81.558 49.8878Z" fill="#B4FFD8"/>
<path d="M82.5197 61.024H63.1678V80.7108H82.5197V61.024Z" fill="#FFB8B8"/>
<path d="M128.413 119.003L135.803 116.474L139.919 136.939L134.911 138.653L128.413 119.003Z" fill="#FFB6B6"/>
<path d="M115.886 117.43L123.217 114.727L127.8 135.089L122.833 136.921L115.886 117.43Z" fill="#FFB6B6"/>
<path d="M63.862 85.854C59.9833 112.16 111.635 96.6073 111.635 96.6073L127.83 119.335L137.311 117.581C137.311 117.581 133.045 103.937 125.426 85.6466C122.043 77.5239 83.6223 79.5086 83.6223 79.5086L82.8246 73.1396L60.8452 72.7011L63.862 85.854Z" fill="#2F2E41"/>
<path d="M101.173 98.3707L113.117 90.8033C121.86 108.566 124.438 116.258 124.438 116.258L116.171 118.623L101.173 98.3707Z" fill="#2F2E41"/>
<path d="M74.9172 29.0329L71.022 23.9394L65.4657 23.6943L64.9111 28.4848L62.158 29.7763C59.409 40.4009 58.9844 51.5096 60.9143 62.3193C61.2832 62.6727 61.5528 63.1199 61.6953 63.6147C61.8377 64.1094 61.8478 64.6339 61.7245 65.134L61.546 65.8579L61.5625 65.8844C62.1483 66.8248 62.3471 67.9618 62.1159 69.05L60.8011 71.4267C60.3293 72.2814 60.0461 73.2304 59.9713 74.2077C59.8965 75.185 60.0319 76.1672 60.3679 77.0859C60.704 78.0046 61.2328 78.8378 61.9175 79.5275C62.6021 80.2173 63.4263 80.747 64.3326 81.08C72.4145 84.0601 79.9905 85.1702 85.5953 76.8075L87.3577 47.6651L74.9172 29.0329Z" fill="#B4FFD8"/>
<path d="M70.8367 25.292C76.5105 25.292 81.11 20.6129 81.11 14.8409C81.11 9.06887 76.5105 4.38974 70.8367 4.38974C65.1629 4.38974 60.5634 9.06887 60.5634 14.8409C60.5634 20.6129 65.1629 25.292 70.8367 25.292Z" fill="#FFB8B8"/>
<path d="M65.6794 2.24217C61.3295 2.32719 57.8795 6.43184 57.9735 11.4102C54.7545 14.8271 53.9747 31.6338 56.6644 36.1049C61.5846 36.6859 64.5774 24.3024 68.8923 26.0926L69.4608 23.39L70.7493 26.9094C71.8458 27.4237 72.9341 27.9882 74.0141 28.6029C74.7903 24.9813 74.5978 21.461 72.5118 18.3947C70.6585 15.6706 75.1685 12.4367 78.3939 12.8937L78.3466 10.3918L79.1567 12.8788C80.414 13.8187 81.8048 13.4784 83.2309 12.7992C85.5435 0.571723 67.6385 -2.7721 65.6794 2.24217Z" fill="#2F2E41"/>
<path d="M132.635 142.115L135.927 141.677L136.109 138.436L138.02 141.399L146.754 140.238C147.172 140.183 147.562 139.992 147.867 139.695C148.172 139.398 148.375 139.01 148.448 138.586C148.52 138.163 148.458 137.728 148.27 137.343C148.081 136.959 147.777 136.646 147.402 136.449L139.798 132.476L139.388 129.279L132.109 130.699L132.635 142.115Z" fill="#2F2E41"/>
<path d="M123.938 142.144L126.925 140.668L126.089 137.536L128.824 139.73L136.746 135.816C137.126 135.629 137.437 135.323 137.634 134.943C137.83 134.563 137.902 134.128 137.839 133.704C137.776 133.279 137.582 132.886 137.283 132.582C136.985 132.278 136.599 132.079 136.182 132.014L127.733 130.694L126.349 127.793L119.887 131.485L123.938 142.144Z" fill="#2F2E41"/>
<path d="M78.8428 72.4508H82.5057V43.771H79.5267C79.3824 43.771 79.244 43.8291 79.1417 43.9327C79.0395 44.0362 78.9816 44.1767 78.9809 44.3235L78.8428 72.4508Z" fill="#CCCCCC"/>
<path d="M82.1633 52.1777H121.499V72.6026H82.1633V52.1777Z" fill="white"/>
<path d="M82.238 56.83V52.2537H121.425V72.5267H97.6677C93.5769 72.522 89.655 70.8667 86.7624 67.924C83.8698 64.9813 82.2427 60.9916 82.238 56.83Z" fill="#F2F2F2"/>
<path d="M79.4393 44.5857C79.4591 44.6237 79.4744 44.664 79.485 44.7056L80.8414 50.0244L82.3127 52.859H121.35V52.1531L119.127 50.0244L116.535 44.9794C116.42 44.7567 116.27 44.555 116.09 44.3828C115.68 43.9898 115.137 43.771 114.573 43.771H79.9219C79.8278 43.771 79.7354 43.7958 79.6535 43.8428C79.5715 43.8899 79.503 43.9577 79.4544 44.0397C79.4059 44.1217 79.379 44.215 79.3763 44.3107C79.3737 44.4063 79.3954 44.501 79.4393 44.5857Z" fill="#F2F2F2"/>
<path d="M82.1633 52.1777H121.499V72.6026H82.1633V52.1777ZM121.201 72.2988H82.4619V52.4815H121.201L121.201 72.2988Z" fill="#E6E6E6"/>
<path d="M80.1168 47.3064L80.8416 50.0244H119.128L117.89 47.7622L80.1168 47.3064Z" fill="#CCCCCC"/>
<path d="M120.049 62.8806H113.778V63.2336H120.049V62.8806Z" fill="white"/>
<path d="M120.049 64.1161H113.778V64.4691H120.049V64.1161Z" fill="white"/>
<path d="M120.049 65.3517H113.778V65.7047H120.049V65.3517Z" fill="white"/>
<path d="M117.62 58.9484C118.865 58.9484 119.875 57.9211 119.875 56.6538C119.875 55.3866 118.865 54.3593 117.62 54.3593C116.374 54.3593 115.364 55.3866 115.364 56.6538C115.364 57.9211 116.374 58.9484 117.62 58.9484Z" fill="white"/>
<path d="M99.4249 21.9839C102.076 21.9192 104.644 22.9285 106.564 24.7898C108.483 26.6511 109.597 29.212 109.661 31.909C109.794 37.5254 105.863 49.3414 100.177 53.8672C98.5388 44.0673 90.3704 37.6063 89.6686 32.3974C88.9187 26.8315 93.9041 22.1188 99.4249 21.9839Z" fill="#D1D3D4"/>
<path d="M100.452 34.5226C102.253 34.5226 103.713 33.0373 103.713 31.2051C103.713 29.3729 102.253 27.8876 100.452 27.8876C98.6509 27.8876 97.1909 29.3729 97.1909 31.2051C97.1909 33.0373 98.6509 34.5226 100.452 34.5226Z" fill="white"/>
<path d="M101.682 58.7963C102.861 58.7963 103.818 57.8234 103.818 56.6234C103.818 55.4233 102.861 54.4505 101.682 54.4505C100.502 54.4505 99.5458 55.4233 99.5458 56.6234C99.5458 57.8234 100.502 58.7963 101.682 58.7963Z" fill="#D1D3D4"/>
<path opacity="0.2" d="M97.9703 28.5955C97.5852 28.786 97.2408 29.0519 96.9567 29.3779C96.6726 29.7039 96.4545 30.0836 96.3146 30.4954C96.1748 30.9072 96.116 31.3429 96.1417 31.7778C96.1674 32.2126 96.2771 32.6381 96.4644 33.0299C96.6518 33.4216 96.9131 33.772 97.2335 34.061C97.554 34.35 97.9272 34.572 98.332 34.7142C98.7368 34.8565 99.1651 34.9163 99.5926 34.8901C100.02 34.864 100.438 34.7524 100.823 34.5618C100.056 34.6644 99.2771 34.4857 98.6271 34.0576C97.977 33.6295 97.498 32.9801 97.2756 32.2256C97.0533 31.471 97.1021 30.6606 97.4135 29.9394C97.7248 29.2181 98.2783 28.6332 98.9748 28.2891C98.6259 28.3354 98.2867 28.4389 97.9703 28.5955Z" fill="#231F20"/>
<path opacity="0.2" d="M89.655 32.4069C90.3569 37.6158 98.5253 44.0768 100.164 53.8767C100.699 53.4465 101.202 52.9767 101.669 52.4711C99.6746 43.2186 92.027 37.0167 91.3489 31.9839C90.742 27.4795 93.8916 23.5344 98.0411 22.1218C93.0972 22.9229 88.9678 27.3063 89.655 32.4069Z" fill="#231F20"/>
<path d="M93.6156 49.5708C92.4003 49.4792 91.1978 49.8737 90.2641 50.6703C89.3303 51.4669 88.7389 52.6027 88.6158 53.836C88.5946 54.0872 88.594 54.3396 88.6138 54.5908L73.731 61.4051L80.8226 65.8849L93.8683 58.7271C94.886 58.563 95.8215 58.0607 96.5291 57.2988C97.2366 56.5368 97.6763 55.558 97.7795 54.5152C97.8868 53.3155 97.5213 52.1217 96.7633 51.1962C96.0053 50.2708 94.917 49.6895 93.7378 49.5804C93.6971 49.5766 93.6564 49.5734 93.6156 49.5708Z" fill="#FFB6B6"/>
<path d="M78.9949 58.094L81.4039 65.6912L66.7945 72.553C65.7542 73.0466 64.6071 73.2614 63.4623 73.1769C62.3174 73.0925 61.2128 72.7116 60.2535 72.0705C59.088 71.2841 58.2054 70.1336 57.7387 68.7924C57.272 67.4512 57.2465 65.992 57.666 64.6348L65.494 40.0009C66.0294 38.2753 67.1945 36.824 68.7495 35.9455C70.3046 35.0671 72.1315 34.8282 73.8544 35.278C74.694 35.4945 75.4834 35.877 76.1776 36.4038C76.8719 36.9306 77.4573 37.5914 77.9005 38.3483C78.3438 39.1053 78.6361 39.9437 78.7608 40.8156C78.8856 41.6875 78.8403 42.5758 78.6275 43.4299C78.6107 43.4974 78.5929 43.5646 78.574 43.6315C78.5077 43.8695 78.4288 44.1037 78.3377 44.333L71.1161 61.6162L78.9949 58.094Z" fill="#B4FFD8"/>
</g>
</g>
<defs>
<filter id="filter0_d_5_191" x="0" y="0" width="308" height="228" filterUnits="userSpaceOnUse" color-interpolation-filters="sRGB">
<feFlood flood-opacity="0" result="BackgroundImageFix"/>
<feColorMatrix in="SourceAlpha" type="matrix" values="0 0 0 0 0 0 0 0 0 0 0 0 0 0 0 0 0 0 127 0" result="hardAlpha"/>
<feOffset dy="4"/>
<feGaussianBlur stdDeviation="2"/>
<feComposite in2="hardAlpha" operator="out"/>
<feColorMatrix type="matrix" values="0 0 0 0 0 0 0 0 0 0 0 0 0 0 0 0 0 0 0.25 0"/>
<feBlend mode="normal" in2="BackgroundImageFix" result="effect1_dropShadow_5_191"/>
<feBlend mode="normal" in="SourceGraphic" in2="effect1_dropShadow_5_191" result="shape"/>
</filter>
<clipPath id="clip0_5_191">
<rect width="300" height="220" fill="white" transform="translate(4)"/>
</clipPath>
</defs>
</svg>
