<svg width="358" height="44" viewBox="0 0 358 44" fill="none" xmlns="http://www.w3.org/2000/svg">
<rect width="358" height="44" rx="15" fill="url(#paint0_linear_12_1775)"/>
<path d="M162.303 27V16.8182H163.839V25.6776H168.452V27H162.303ZM173.002 27.1541C172.286 27.1541 171.662 26.9901 171.128 26.6619C170.594 26.3338 170.18 25.8748 169.885 25.2848C169.59 24.6948 169.443 24.0054 169.443 23.2166C169.443 22.4245 169.59 21.7318 169.885 21.1385C170.18 20.5452 170.594 20.0845 171.128 19.7564C171.662 19.4283 172.286 19.2642 173.002 19.2642C173.718 19.2642 174.343 19.4283 174.877 19.7564C175.41 20.0845 175.824 20.5452 176.119 21.1385C176.414 21.7318 176.562 22.4245 176.562 23.2166C176.562 24.0054 176.414 24.6948 176.119 25.2848C175.824 25.8748 175.41 26.3338 174.877 26.6619C174.343 26.9901 173.718 27.1541 173.002 27.1541ZM173.007 25.9062C173.471 25.9062 173.856 25.7836 174.161 25.5384C174.466 25.2931 174.691 24.9666 174.837 24.5589C174.986 24.1513 175.06 23.7022 175.06 23.2116C175.06 22.7244 174.986 22.277 174.837 21.8693C174.691 21.4583 174.466 21.1286 174.161 20.88C173.856 20.6314 173.471 20.5071 173.007 20.5071C172.54 20.5071 172.152 20.6314 171.844 20.88C171.539 21.1286 171.312 21.4583 171.163 21.8693C171.017 22.277 170.944 22.7244 170.944 23.2116C170.944 23.7022 171.017 24.1513 171.163 24.5589C171.312 24.9666 171.539 25.2931 171.844 25.5384C172.152 25.7836 172.54 25.9062 173.007 25.9062ZM181.123 30.0227C180.516 30.0227 179.994 29.9432 179.557 29.7841C179.123 29.625 178.768 29.4145 178.493 29.1527C178.218 28.8909 178.012 28.6042 177.876 28.2926L179.154 27.7656C179.244 27.9115 179.363 28.0656 179.512 28.228C179.665 28.3937 179.87 28.5346 180.129 28.6506C180.39 28.7666 180.727 28.8246 181.138 28.8246C181.701 28.8246 182.167 28.687 182.535 28.4119C182.903 28.1402 183.087 27.706 183.087 27.1094V25.608H182.992C182.903 25.7704 182.773 25.951 182.604 26.1499C182.439 26.3487 182.21 26.5211 181.918 26.6669C181.627 26.8127 181.247 26.8857 180.78 26.8857C180.177 26.8857 179.633 26.7448 179.149 26.4631C178.669 26.178 178.287 25.7588 178.006 25.2053C177.727 24.6484 177.588 23.964 177.588 23.152C177.588 22.34 177.726 21.6439 178.001 21.0639C178.279 20.4839 178.66 20.0398 179.144 19.7315C179.628 19.42 180.177 19.2642 180.79 19.2642C181.264 19.2642 181.647 19.3438 181.938 19.5028C182.23 19.6586 182.457 19.8409 182.619 20.0497C182.785 20.2585 182.913 20.4425 183.002 20.6016H183.112V19.3636H184.568V27.169C184.568 27.8253 184.416 28.3639 184.111 28.7848C183.806 29.2057 183.393 29.5173 182.873 29.7195C182.356 29.9216 181.772 30.0227 181.123 30.0227ZM181.108 25.6527C181.536 25.6527 181.897 25.5533 182.192 25.3544C182.49 25.1522 182.715 24.8639 182.868 24.4893C183.024 24.1115 183.102 23.6591 183.102 23.1321C183.102 22.6184 183.025 22.166 182.873 21.7749C182.72 21.3838 182.497 21.0788 182.202 20.8601C181.907 20.638 181.542 20.527 181.108 20.527C180.661 20.527 180.288 20.643 179.989 20.875C179.691 21.1037 179.466 21.4152 179.313 21.8097C179.164 22.2041 179.089 22.6449 179.089 23.1321C179.089 23.6326 179.166 24.0717 179.318 24.4496C179.471 24.8274 179.696 25.1224 179.994 25.3345C180.296 25.5466 180.667 25.6527 181.108 25.6527ZM186.262 27V19.3636H187.748V27H186.262ZM187.013 18.1854C186.754 18.1854 186.532 18.0992 186.346 17.9268C186.164 17.7512 186.073 17.5424 186.073 17.3004C186.073 17.0552 186.164 16.8464 186.346 16.674C186.532 16.4983 186.754 16.4105 187.013 16.4105C187.271 16.4105 187.491 16.4983 187.674 16.674C187.859 16.8464 187.952 17.0552 187.952 17.3004C187.952 17.5424 187.859 17.7512 187.674 17.9268C187.491 18.0992 187.271 18.1854 187.013 18.1854ZM190.935 22.4659V27H189.448V19.3636H190.875V20.6065H190.969C191.145 20.2022 191.42 19.8774 191.795 19.6321C192.173 19.3868 192.648 19.2642 193.222 19.2642C193.742 19.2642 194.198 19.3736 194.589 19.5923C194.98 19.8078 195.283 20.1293 195.499 20.5568C195.714 20.9844 195.822 21.513 195.822 22.1428V27H194.335V22.3217C194.335 21.7682 194.191 21.3357 193.903 21.0241C193.614 20.7093 193.218 20.5518 192.714 20.5518C192.37 20.5518 192.063 20.6264 191.795 20.7756C191.53 20.9247 191.319 21.1435 191.163 21.4318C191.011 21.7169 190.935 22.0616 190.935 22.4659Z" fill="#4B4B4B"/>
<defs>
<linearGradient id="paint0_linear_12_1775" x1="-4.35884e-07" y1="1.06024" x2="327.299" y2="125.046" gradientUnits="userSpaceOnUse">
<stop stop-color="#BFC3FC"/>
<stop offset="1" stop-color="#A2C3FC"/>
</linearGradient>
</defs>
</svg>
