<svg width="358" height="44" viewBox="0 0 358 44" fill="none" xmlns="http://www.w3.org/2000/svg">
<rect opacity="0.1" width="44" height="44" rx="10" fill="url(#paint0_linear_45_386)"/>
<path d="M24.6481 20.7355C23.8662 21.2331 22.9445 21.5 21.9998 21.5C20.7323 21.5 19.5214 21.0203 18.6323 20.1735C17.744 19.3275 17.2498 18.1854 17.2498 17C17.2498 16.1156 17.525 15.2488 18.0439 14.5093C18.5629 13.7695 19.3033 13.1892 20.1742 12.8457C21.0451 12.5021 22.0048 12.4119 22.9309 12.5873C23.8569 12.7628 24.7044 13.1952 25.3672 13.8265C26.0298 14.4576 26.4781 15.2586 26.6594 16.1268C26.8407 16.9948 26.7479 17.8947 26.3916 18.714C26.0351 19.5336 25.4297 20.2381 24.6481 20.7355ZM24.3516 13.6086C23.6534 13.1644 22.835 12.9286 21.9998 12.9286C20.8802 12.9286 19.802 13.3519 19.0033 14.1126C18.2038 14.874 17.7498 15.9121 17.7498 17C17.7498 17.8108 18.0023 18.6013 18.4724 19.2713C18.9423 19.9411 19.6075 20.4595 20.3812 20.7647C21.1548 21.0699 22.0047 21.1494 22.8244 20.9941C23.6442 20.8388 24.4004 20.4549 24.9962 19.8875C25.5923 19.3198 26.0012 18.5935 26.1671 17.799C26.3331 17.0043 26.2477 16.1808 25.9228 15.4339C25.5981 14.6872 25.05 14.0531 24.3516 13.6086Z" stroke="#4B4B4B"/>
<path d="M14.0484 30.5131L13.9829 31.0714H14.545H29.455H30.0171L29.9516 30.5131C29.752 28.8131 28.9023 27.2481 27.5723 26.1146C26.2429 24.9817 24.526 24.358 22.7502 24.3572H22.75L21.25 24.3572L21.2498 24.3572C19.474 24.358 17.7571 24.9817 16.4277 26.1146C15.0977 27.2481 14.248 28.8131 14.0484 30.5131ZM21.25 23.9286H22.75C24.8131 23.9286 26.7871 24.7093 28.2388 26.092C29.6897 27.4738 30.5 29.3426 30.5 31.2857C30.5 31.3345 30.4799 31.3865 30.4355 31.4287C30.3903 31.4718 30.324 31.5 30.25 31.5H13.75C13.676 31.5 13.6097 31.4718 13.5645 31.4287C13.5201 31.3865 13.5 31.3345 13.5 31.2857C13.5 29.3426 14.3103 27.4738 15.7612 26.092C17.2129 24.7093 19.1869 23.9286 21.25 23.9286Z" stroke="#4B4B4B"/>
<path d="M342.536 31.0002C342.46 31.0007 342.386 30.9852 342.317 30.9548C342.249 30.9244 342.187 30.8798 342.137 30.8239C342.087 30.768 342.049 30.702 342.026 30.6304C342.003 30.5587 341.995 30.483 342.003 30.4082L342.482 26.0509C342.496 25.9297 342.55 25.8167 342.637 25.7309L352.794 15.5602C352.97 15.3827 353.179 15.2418 353.41 15.1456C353.64 15.0495 353.888 15 354.138 15C354.388 15 354.635 15.0495 354.866 15.1456C355.096 15.2418 355.306 15.3827 355.482 15.5602L357.441 17.4962C357.618 17.6727 357.759 17.8825 357.855 18.1136C357.951 18.3447 358 18.5926 358 18.8429C358 19.0932 357.951 19.3411 357.855 19.5722C357.759 19.8033 357.618 20.0131 357.441 20.1896L347.263 30.3602C347.177 30.4469 347.064 30.5014 346.943 30.5149L342.594 31.0002H342.536ZM343.526 26.3496L343.137 29.8642L346.645 29.4749L356.664 19.4322C356.819 19.2745 356.906 19.0618 356.906 18.8402C356.906 18.6186 356.819 18.4059 356.664 18.2482L354.731 16.3122C354.574 16.1565 354.362 16.0692 354.14 16.0692C353.919 16.0692 353.707 16.1565 353.549 16.3122L343.526 26.3496Z" fill="#4B4B4B"/>
<path d="M355.588 21.7949C355.449 21.7943 355.315 21.7388 355.216 21.6402L351.346 17.7629C351.246 17.6604 351.191 17.5224 351.193 17.3794C351.195 17.2363 351.254 17.1 351.356 17.0002C351.459 16.9005 351.596 16.8456 351.739 16.8476C351.882 16.8496 352.018 16.9084 352.118 17.0109L355.966 20.8669C356.065 20.9668 356.121 21.102 356.121 21.2429C356.121 21.3838 356.065 21.519 355.966 21.6189C355.918 21.6722 355.86 21.7153 355.795 21.7455C355.73 21.7757 355.66 21.7925 355.588 21.7949Z" fill="#4B4B4B"/>
<path d="M351.342 20.8885L346.509 25.7308L347.261 26.485L352.095 21.6428L351.342 20.8885Z" fill="#4B4B4B"/>
<defs>
<linearGradient id="paint0_linear_45_386" x1="-5.35724e-08" y1="1.06024" x2="45.8997" y2="3.19724" gradientUnits="userSpaceOnUse">
<stop stop-color="#BFC3FC"/>
<stop offset="1" stop-color="#A2C3FC"/>
</linearGradient>
</defs>
</svg>
