<svg width="19" height="23" viewBox="0 0 19 23" fill="none" xmlns="http://www.w3.org/2000/svg">
<path d="M17.2499 19.5H0.749928C0.62208 19.4996 0.496453 19.4665 0.384977 19.404C0.273502 19.3414 0.179879 19.2513 0.113 19.1423C0.0461207 19.0334 0.00820529 18.9091 0.00285451 18.7814C-0.00249626 18.6537 0.0248953 18.5267 0.0824278 18.4125C1.00783 16.5473 1.49278 14.4946 1.49993 12.4125V9.75C1.49993 7.76088 2.2901 5.85322 3.69663 4.4467C5.10315 3.04018 7.0108 2.25 8.99993 2.25C10.9891 2.25 12.8967 3.04018 14.3032 4.4467C15.7098 5.85322 16.4999 7.76088 16.4999 9.75V12.3975C16.5071 14.4796 16.992 16.5323 17.9174 18.3975C17.9785 18.5122 18.0087 18.6408 18.0052 18.7707C18.0016 18.9006 17.9643 19.0273 17.897 19.1385C17.8297 19.2496 17.7347 19.3414 17.6213 19.4048C17.5078 19.4681 17.3799 19.501 17.2499 19.5ZM1.91243 18H16.0874C15.3722 16.2186 15.0031 14.3171 14.9999 12.3975V9.75C14.9999 8.1587 14.3678 6.63258 13.2426 5.50736C12.1174 4.38214 10.5912 3.75 8.99993 3.75C7.40863 3.75 5.88251 4.38214 4.75729 5.50736C3.63207 6.63258 2.99993 8.1587 2.99993 9.75V12.3975C2.99672 14.3171 2.62764 16.2186 1.91243 18Z" fill="#4B4B4B"/>
<path d="M8.99994 22.5C8.00538 22.5 7.05155 22.1049 6.34829 21.4017C5.64503 20.6984 5.24994 19.7446 5.24994 18.75C5.24994 18.5511 5.32896 18.3603 5.46961 18.2197C5.61026 18.079 5.80103 18 5.99994 18C6.19885 18 6.38962 18.079 6.53027 18.2197C6.67092 18.3603 6.74994 18.5511 6.74994 18.75C6.75046 19.3465 6.98786 19.9184 7.40994 20.34C7.83915 20.7473 8.40827 20.9743 8.99994 20.9743C9.59161 20.9743 10.1607 20.7473 10.5899 20.34C10.6599 20.2701 10.7429 20.2146 10.8343 20.1768C10.9256 20.1389 11.0235 20.1194 11.1224 20.1194C11.2213 20.1194 11.3193 20.1389 11.4106 20.1768C11.502 20.2146 11.585 20.2701 11.6549 20.34C11.7249 20.4099 11.7803 20.4929 11.8182 20.5843C11.856 20.6757 11.8755 20.7736 11.8755 20.8725C11.8755 20.9714 11.856 21.0693 11.8182 21.1607C11.7803 21.2521 11.7249 21.3351 11.6549 21.405C11.306 21.753 10.892 22.0288 10.4364 22.2167C9.98085 22.4046 9.49273 22.5009 8.99994 22.5Z" fill="#4B4B4B"/>
<path d="M8.99994 3.75C8.80103 3.75 8.61026 3.67098 8.46961 3.53033C8.32896 3.38968 8.24994 3.19891 8.24994 3V0.75C8.24994 0.551088 8.32896 0.360322 8.46961 0.21967C8.61026 0.0790176 8.80103 0 8.99994 0C9.19885 0 9.38962 0.0790176 9.53027 0.21967C9.67092 0.360322 9.74994 0.551088 9.74994 0.75V3C9.74994 3.19891 9.67092 3.38968 9.53027 3.53033C9.38962 3.67098 9.19885 3.75 8.99994 3.75Z" fill="#4B4B4B"/>
</svg>
