<svg width="118" height="44" viewBox="0 0 118 44" fill="none" xmlns="http://www.w3.org/2000/svg">
<rect opacity="0.1" width="44" height="44" rx="10" fill="url(#paint0_linear_44_500)"/>
<path d="M27.5 30.9375H16.5C15.5883 30.9375 14.714 30.5753 14.0693 29.9307C13.4247 29.286 13.0625 28.4117 13.0625 27.5V17.875C13.0625 17.6927 13.1349 17.5178 13.2639 17.3889C13.3928 17.2599 13.5677 17.1875 13.75 17.1875H27.5C28.4117 17.1875 29.286 17.5497 29.9307 18.1943C30.5753 18.839 30.9375 19.7133 30.9375 20.625V27.5C30.9375 28.4117 30.5753 29.286 29.9307 29.9307C29.286 30.5753 28.4117 30.9375 27.5 30.9375V30.9375ZM14.4375 18.5625V27.5C14.4375 28.047 14.6548 28.5716 15.0416 28.9584C15.4284 29.3452 15.953 29.5625 16.5 29.5625H27.5C28.047 29.5625 28.5716 29.3452 28.9584 28.9584C29.3452 28.5716 29.5625 28.047 29.5625 27.5V20.625C29.5625 20.078 29.3452 19.5534 28.9584 19.1666C28.5716 18.7798 28.047 18.5625 27.5 18.5625H14.4375Z" fill="#4B4B4B"/>
<path d="M28.8751 18.5625C28.6927 18.5625 28.5179 18.49 28.3889 18.3611C28.26 18.2322 28.1876 18.0573 28.1876 17.875V15.9843C28.2007 15.7435 28.1594 15.5028 28.0665 15.2802C27.9737 15.0576 27.8317 14.8588 27.6513 14.6987C27.4892 14.5773 27.3016 14.4943 27.1027 14.4562C26.9037 14.4181 26.6987 14.4258 26.5032 14.4787L14.9738 17.0981C14.8187 17.133 14.6805 17.2206 14.5828 17.346C14.485 17.4713 14.4337 17.6267 14.4376 17.7856C14.4376 17.9679 14.3651 18.1428 14.2362 18.2717C14.1073 18.4007 13.9324 18.4731 13.7501 18.4731C13.5677 18.4731 13.3929 18.4007 13.2639 18.2717C13.135 18.1428 13.0626 17.9679 13.0626 17.7856C13.0585 17.3156 13.2151 16.8583 13.5065 16.4895C13.7978 16.1207 14.2063 15.8624 14.6645 15.7575L26.2007 13.1381C26.5975 13.0378 27.0119 13.0296 27.4123 13.1142C27.8127 13.1988 28.1884 13.374 28.5107 13.6262C28.8514 13.9154 29.1229 14.2774 29.3049 14.6856C29.487 15.0938 29.575 15.5376 29.5626 15.9843V17.875C29.5626 18.0573 29.4901 18.2322 29.3612 18.3611C29.2323 18.49 29.0574 18.5625 28.8751 18.5625Z" fill="#4B4B4B"/>
<path d="M30.25 26.8125H25.4375C24.7082 26.8125 24.0087 26.5228 23.493 26.007C22.9772 25.4913 22.6875 24.7918 22.6875 24.0625C22.6875 23.3332 22.9772 22.6337 23.493 22.118C24.0087 21.6022 24.7082 21.3125 25.4375 21.3125H30.25C30.4323 21.3125 30.6072 21.3849 30.7361 21.5139C30.8651 21.6428 30.9375 21.8177 30.9375 22V26.125C30.9375 26.3073 30.8651 26.4822 30.7361 26.6111C30.6072 26.7401 30.4323 26.8125 30.25 26.8125ZM25.4375 22.6875C25.0728 22.6875 24.7231 22.8324 24.4652 23.0902C24.2074 23.3481 24.0625 23.6978 24.0625 24.0625C24.0625 24.4272 24.2074 24.7769 24.4652 25.0348C24.7231 25.2926 25.0728 25.4375 25.4375 25.4375H29.5625V22.6875H25.4375Z" fill="#4B4B4B"/>
<path d="M61.2896 29V18.8182H64.7299C65.5287 18.8182 66.1816 18.9624 66.6887 19.2507C67.1992 19.5357 67.577 19.9219 67.8223 20.4091C68.0675 20.8963 68.1902 21.4399 68.1902 22.0398C68.1902 22.6397 68.0675 23.1849 67.8223 23.6754C67.5803 24.166 67.2058 24.5571 66.6987 24.8487C66.1916 25.1371 65.542 25.2812 64.7498 25.2812H62.2839V24.1875H64.71C65.2569 24.1875 65.6961 24.093 66.0275 23.9041C66.359 23.7152 66.5993 23.46 66.7484 23.1385C66.9009 22.8137 66.9771 22.4474 66.9771 22.0398C66.9771 21.6321 66.9009 21.2675 66.7484 20.946C66.5993 20.6245 66.3573 20.3726 66.0225 20.1903C65.6878 20.0047 65.2437 19.9119 64.6902 19.9119H62.5225V29H61.2896ZM72.2644 29.179C71.7805 29.179 71.3413 29.0878 70.9469 28.9055C70.5525 28.7199 70.2393 28.4531 70.0073 28.1051C69.7753 27.7538 69.6593 27.3295 69.6593 26.8324C69.6593 26.3949 69.7454 26.0402 69.9178 25.7685C70.0901 25.4934 70.3205 25.2779 70.6088 25.1222C70.8972 24.9664 71.2154 24.8504 71.5634 24.7741C71.9147 24.6946 72.2677 24.6316 72.6223 24.5852C73.0864 24.5256 73.4625 24.4808 73.7509 24.451C74.0426 24.4179 74.2547 24.3632 74.3873 24.2869C74.5231 24.2107 74.5911 24.0781 74.5911 23.8892V23.8494C74.5911 23.3589 74.4569 22.9777 74.1884 22.706C73.9232 22.4342 73.5205 22.2983 72.9803 22.2983C72.4202 22.2983 71.981 22.4209 71.6628 22.6662C71.3446 22.9115 71.1209 23.1733 70.9917 23.4517L69.878 23.054C70.0769 22.59 70.342 22.2287 70.6735 21.9702C71.0082 21.7083 71.3728 21.526 71.7672 21.4233C72.165 21.3172 72.556 21.2642 72.9405 21.2642C73.1858 21.2642 73.4675 21.294 73.7857 21.3537C74.1072 21.41 74.4171 21.5277 74.7154 21.7067C75.017 21.8857 75.2672 22.1558 75.4661 22.517C75.665 22.8783 75.7644 23.3622 75.7644 23.9688V29H74.5911V27.9659H74.5314C74.4519 28.1316 74.3193 28.3089 74.1337 28.4979C73.9481 28.6868 73.7012 28.8475 73.3929 28.9801C73.0847 29.1127 72.7085 29.179 72.2644 29.179ZM72.4434 28.125C72.9074 28.125 73.2985 28.0339 73.6167 27.8516C73.9382 27.6693 74.1801 27.4339 74.3425 27.1456C74.5082 26.8572 74.5911 26.554 74.5911 26.2358V25.1619C74.5414 25.2216 74.432 25.2763 74.263 25.326C74.0972 25.3724 73.905 25.4138 73.6863 25.4503C73.4708 25.4834 73.2604 25.5133 73.0549 25.5398C72.8527 25.563 72.6886 25.5829 72.5627 25.5994C72.2578 25.6392 71.9727 25.7038 71.7076 25.7933C71.4457 25.8795 71.2336 26.0104 71.0712 26.1861C70.9121 26.3584 70.8326 26.5937 70.8326 26.892C70.8326 27.2997 70.9834 27.608 71.285 27.8168C71.5899 28.0223 71.976 28.125 72.4434 28.125ZM78.3881 31.8636C78.1893 31.8636 78.012 31.8471 77.8562 31.8139C77.7004 31.7841 77.5927 31.7543 77.533 31.7244L77.8313 30.6903C78.1164 30.7633 78.3683 30.7898 78.587 30.7699C78.8058 30.75 78.9996 30.6522 79.1687 30.4766C79.341 30.3042 79.4985 30.0241 79.641 29.6364L79.8597 29.0398L77.0359 21.3636H78.3086L80.4165 27.4489H80.4961L82.604 21.3636H83.8768L80.6353 30.1136C80.4895 30.508 80.3088 30.8345 80.0934 31.093C79.878 31.3549 79.6277 31.5488 79.3427 31.6747C79.061 31.8007 78.7428 31.8636 78.3881 31.8636ZM85.4254 29V21.3636H86.5589V22.5568H86.6584C86.8175 22.1491 87.0743 21.8326 87.429 21.6072C87.7836 21.3786 88.2095 21.2642 88.7067 21.2642C89.2105 21.2642 89.6297 21.3786 89.9645 21.6072C90.3026 21.8326 90.5661 22.1491 90.755 22.5568H90.8345C91.0301 22.1624 91.3234 21.8492 91.7145 21.6172C92.1056 21.3819 92.5746 21.2642 93.1214 21.2642C93.8042 21.2642 94.3627 21.478 94.7969 21.9055C95.2311 22.3298 95.4482 22.991 95.4482 23.8892V29H94.2749V23.8892C94.2749 23.3258 94.1207 22.9231 93.8125 22.6811C93.5043 22.4392 93.1413 22.3182 92.7237 22.3182C92.1868 22.3182 91.7708 22.4806 91.4759 22.8054C91.1809 23.1269 91.0334 23.5346 91.0334 24.0284V29H89.8402V23.7699C89.8402 23.3357 89.6993 22.986 89.4176 22.7209C89.1359 22.4524 88.773 22.3182 88.3288 22.3182C88.0239 22.3182 87.7389 22.3994 87.4737 22.5618C87.2119 22.7242 86.9998 22.9496 86.8374 23.2379C86.6783 23.523 86.5987 23.8527 86.5987 24.2273V29H85.4254ZM100.795 29.1591C100.059 29.1591 99.4246 28.9967 98.891 28.6719C98.3607 28.3438 97.9513 27.8864 97.663 27.2997C97.378 26.7098 97.2354 26.0237 97.2354 25.2415C97.2354 24.4593 97.378 23.7699 97.663 23.1733C97.9513 22.5734 98.3524 22.1061 98.8661 21.7713C99.3832 21.4332 99.9864 21.2642 100.676 21.2642C101.074 21.2642 101.466 21.3305 101.854 21.4631C102.242 21.5956 102.595 21.8111 102.913 22.1094C103.231 22.4044 103.485 22.7955 103.674 23.2827C103.863 23.7699 103.957 24.3698 103.957 25.0824V25.5795H98.0707V24.5653H102.764C102.764 24.1345 102.678 23.75 102.505 23.4119C102.336 23.0739 102.094 22.8071 101.779 22.6115C101.468 22.416 101.1 22.3182 100.676 22.3182C100.208 22.3182 99.8041 22.4342 99.4627 22.6662C99.1246 22.8949 98.8645 23.1932 98.6822 23.5611C98.4999 23.929 98.4087 24.3234 98.4087 24.7443V25.4205C98.4087 25.9972 98.5082 26.486 98.707 26.8871C98.9092 27.2848 99.1893 27.5881 99.5472 27.7969C99.9052 28.0024 100.321 28.1051 100.795 28.1051C101.103 28.1051 101.382 28.062 101.63 27.9759C101.882 27.8864 102.099 27.7538 102.282 27.5781C102.464 27.3991 102.605 27.1771 102.704 26.9119L103.838 27.2301C103.718 27.6146 103.518 27.9527 103.236 28.2443C102.954 28.5327 102.606 28.758 102.192 28.9205C101.778 29.0795 101.312 29.1591 100.795 29.1591ZM106.915 24.4062V29H105.742V21.3636H106.875V22.5568H106.975C107.154 22.169 107.426 21.8575 107.79 21.6222C108.155 21.3835 108.625 21.2642 109.202 21.2642C109.719 21.2642 110.172 21.3703 110.559 21.5824C110.947 21.7912 111.249 22.1094 111.464 22.5369C111.68 22.9612 111.787 23.4981 111.787 24.1477V29H110.614V24.2273C110.614 23.6274 110.458 23.16 110.147 22.8253C109.835 22.4872 109.408 22.3182 108.864 22.3182C108.489 22.3182 108.155 22.3994 107.86 22.5618C107.568 22.7242 107.338 22.9612 107.169 23.2727C107 23.5843 106.915 23.9621 106.915 24.4062ZM117.252 21.3636V22.358H113.295V21.3636H117.252ZM114.448 19.5341H115.622V26.8125C115.622 27.1439 115.67 27.3925 115.766 27.5582C115.865 27.7206 115.991 27.83 116.144 27.8864C116.299 27.9394 116.463 27.9659 116.636 27.9659C116.765 27.9659 116.871 27.9593 116.954 27.946C117.037 27.9295 117.103 27.9162 117.153 27.9062L117.392 28.9602C117.312 28.9901 117.201 29.0199 117.058 29.0497C116.916 29.0829 116.735 29.0994 116.517 29.0994C116.185 29.0994 115.86 29.0282 115.542 28.8857C115.227 28.7431 114.965 28.526 114.757 28.2344C114.551 27.9427 114.448 27.5748 114.448 27.1307V19.5341Z" fill="#4B4B4B"/>
<defs>
<linearGradient id="paint0_linear_44_500" x1="-5.35724e-08" y1="1.06024" x2="45.8997" y2="3.19724" gradientUnits="userSpaceOnUse">
<stop stop-color="#BFC3FC"/>
<stop offset="1" stop-color="#A2C3FC"/>
</linearGradient>
</defs>
</svg>
