<svg width="358" height="44" viewBox="0 0 358 44" fill="none" xmlns="http://www.w3.org/2000/svg">
<rect opacity="0.1" width="44" height="44" rx="10" fill="url(#paint0_linear_45_406)"/>
<path d="M32.2464 26.9279L29.5064 24.1637C29.0535 23.7106 28.4421 23.4387 27.876 23.4387C27.2646 23.4387 26.7212 23.688 26.2457 24.1637L24.6606 25.7497C24.5926 25.7044 24.502 25.6591 24.4341 25.6365C24.4341 25.6365 24.4115 25.6365 24.4115 25.6138L24.3888 25.5911C24.185 25.4552 23.9586 25.3193 23.6869 25.206C22.3056 24.345 21.0148 23.1442 19.7015 21.5355C19.0901 20.7652 18.6598 20.0855 18.3202 19.3378C18.6825 19.0433 18.9542 18.7487 19.158 18.5221L19.86 17.8198C20.4034 17.3213 20.6752 16.7549 20.6752 16.1658C20.6752 15.5541 20.4034 14.9876 19.8826 14.4439L17.7314 12.2915C17.5276 12.0875 17.3238 11.8836 17.0974 11.6797C16.6445 11.2492 16.0784 11 15.4896 11C14.833 11 14.2895 11.2266 13.7913 11.725L12.1383 13.379C11.4816 13.9907 11.0967 14.7611 11.0061 15.7127V15.7353C10.9608 16.9135 11.142 18.001 11.6401 19.3605C12.4327 21.4902 13.6328 23.484 15.4217 25.6818C17.7541 28.31 20.3808 30.3491 23.3019 31.7539L23.3698 31.7765C24.2303 32.1617 25.8607 32.8867 27.6722 33H27.9213C29.1215 33 30.0272 32.6148 30.7745 31.7992C31.0462 31.482 31.3406 31.1874 31.5897 30.9156C31.7935 30.757 31.9294 30.5984 32.0652 30.4398L32.2464 30.2585L32.2917 30.2132C33.2427 29.171 33.2427 27.9022 32.2464 26.9279ZM31.4538 29.4428L31.2274 29.6694L31.2047 29.7147C31.0915 29.8507 31.0009 29.964 30.8877 30.0546L30.8198 30.1226C30.5481 30.3944 30.231 30.7116 29.914 31.0742C29.3932 31.6406 28.8044 31.8898 27.9213 31.8898H27.7402C26.1551 31.7765 24.7058 31.1421 23.8454 30.757L23.8001 30.7343C21.0148 29.3975 18.5013 27.449 16.3048 24.9567C14.5839 22.8723 13.4517 20.9691 12.7044 18.9753C12.2515 17.7291 12.093 16.8229 12.1383 15.8033C12.2062 15.1462 12.4553 14.6251 12.9082 14.2173L14.5839 12.5407C14.8556 12.2688 15.1273 12.1555 15.467 12.1555C15.7614 12.1555 16.0331 12.2915 16.2822 12.518L16.3048 12.5407C16.5086 12.7219 16.7124 12.9258 16.9162 13.1298L19.0674 15.2822C19.475 15.69 19.543 16.0072 19.543 16.1885C19.543 16.3697 19.4977 16.6416 19.0674 17.0268L18.3428 17.7518C18.0937 18.0237 17.7994 18.3182 17.4144 18.6354L17.3691 18.6807L17.3238 18.7487C17.12 19.0206 17.0974 19.2698 17.2106 19.6323L17.2333 19.723L17.2559 19.8136C17.6409 20.6519 18.1164 21.4222 18.7957 22.2832C20.1996 24.0051 21.6036 25.2966 23.0981 26.2255L23.166 26.2709C23.3472 26.3615 23.5283 26.4521 23.6869 26.5427C23.7548 26.6107 23.8454 26.656 23.9133 26.6787C24.0039 26.724 24.0718 26.7467 24.1171 26.792L24.2756 26.9053H24.3209L24.3888 26.9279C24.5247 26.9732 24.6153 26.9732 24.6832 26.9732C24.9096 26.9732 25.1134 26.8826 25.3172 26.6787L27.0156 24.9794C27.2873 24.7075 27.5364 24.5942 27.8534 24.5942C28.1931 24.5942 28.5101 24.7981 28.6912 24.9794L31.4538 27.7436C31.9973 28.2873 32.0199 28.8538 31.4538 29.4428Z" fill="#4B4B4B"/>
<path d="M342.536 31.0002C342.46 31.0007 342.386 30.9852 342.317 30.9548C342.249 30.9244 342.187 30.8798 342.137 30.8239C342.087 30.768 342.049 30.702 342.026 30.6304C342.003 30.5587 341.995 30.483 342.003 30.4082L342.482 26.0509C342.496 25.9297 342.55 25.8167 342.637 25.7309L352.794 15.5602C352.97 15.3827 353.179 15.2418 353.41 15.1456C353.64 15.0495 353.888 15 354.138 15C354.388 15 354.635 15.0495 354.866 15.1456C355.096 15.2418 355.306 15.3827 355.482 15.5602L357.441 17.4962C357.618 17.6727 357.759 17.8825 357.855 18.1136C357.951 18.3447 358 18.5926 358 18.8429C358 19.0932 357.951 19.3411 357.855 19.5722C357.759 19.8033 357.618 20.0131 357.441 20.1896L347.263 30.3602C347.177 30.4469 347.064 30.5014 346.943 30.5149L342.594 31.0002H342.536ZM343.526 26.3496L343.137 29.8642L346.645 29.4749L356.664 19.4322C356.819 19.2745 356.906 19.0618 356.906 18.8402C356.906 18.6186 356.819 18.4059 356.664 18.2482L354.731 16.3122C354.574 16.1565 354.362 16.0692 354.14 16.0692C353.919 16.0692 353.707 16.1565 353.549 16.3122L343.526 26.3496Z" fill="#4B4B4B"/>
<path d="M355.588 21.7949C355.449 21.7943 355.315 21.7387 355.216 21.6402L351.346 17.7629C351.246 17.6603 351.191 17.5224 351.193 17.3793C351.195 17.2363 351.254 17.0999 351.356 17.0002C351.459 16.9005 351.596 16.8456 351.739 16.8476C351.882 16.8496 352.018 16.9083 352.118 17.0109L355.966 20.8669C356.065 20.9668 356.121 21.102 356.121 21.2429C356.121 21.3838 356.065 21.5189 355.966 21.6189C355.918 21.6722 355.86 21.7152 355.795 21.7455C355.73 21.7757 355.66 21.7925 355.588 21.7949Z" fill="#4B4B4B"/>
<path d="M351.342 20.8885L346.509 25.7308L347.261 26.485L352.095 21.6428L351.342 20.8885Z" fill="#4B4B4B"/>
<defs>
<linearGradient id="paint0_linear_45_406" x1="-5.35724e-08" y1="1.06024" x2="45.8997" y2="3.19724" gradientUnits="userSpaceOnUse">
<stop stop-color="#BFC3FC"/>
<stop offset="1" stop-color="#A2C3FC"/>
</linearGradient>
</defs>
</svg>
