<svg width="390" height="844" viewBox="0 0 390 844" fill="none" xmlns="http://www.w3.org/2000/svg">
<rect width="390" height="844" fill="#FCFDFF"/>
<rect opacity="0.1" x="16" y="246" width="44" height="44" rx="10" fill="url(#paint0_linear_31_1453)"/>
<path d="M76.7318 265.912V264.818H84.3682V265.912H81.1665V275H79.9335V265.912H76.7318ZM85.319 275V267.364H86.4525V268.517H86.532C86.6713 268.139 86.9231 267.833 87.2877 267.597C87.6523 267.362 88.0633 267.244 88.5207 267.244C88.6069 267.244 88.7146 267.246 88.8438 267.249C88.9731 267.253 89.0709 267.258 89.1372 267.264V268.457C89.0974 268.447 89.0062 268.433 88.8637 268.413C88.7245 268.389 88.577 268.378 88.4213 268.378C88.05 268.378 87.7186 268.456 87.4269 268.612C87.1386 268.764 86.9099 268.976 86.7409 269.248C86.5751 269.516 86.4923 269.823 86.4923 270.168V275H85.319ZM92.7751 275.179C92.2912 275.179 91.8521 275.088 91.4577 274.906C91.0632 274.72 90.75 274.453 90.518 274.105C90.286 273.754 90.17 273.33 90.17 272.832C90.17 272.395 90.2562 272.04 90.4285 271.768C90.6009 271.493 90.8312 271.278 91.1196 271.122C91.4079 270.966 91.7261 270.85 92.0741 270.774C92.4255 270.695 92.7784 270.632 93.1331 270.585C93.5971 270.526 93.9733 270.481 94.2616 270.451C94.5533 270.418 94.7654 270.363 94.898 270.287C95.0339 270.211 95.1018 270.078 95.1018 269.889V269.849C95.1018 269.359 94.9676 268.978 94.6991 268.706C94.434 268.434 94.0313 268.298 93.491 268.298C92.9309 268.298 92.4917 268.421 92.1736 268.666C91.8554 268.911 91.6317 269.173 91.5024 269.452L90.3888 269.054C90.5876 268.59 90.8528 268.229 91.1842 267.97C91.519 267.708 91.8836 267.526 92.278 267.423C92.6757 267.317 93.0668 267.264 93.4513 267.264C93.6965 267.264 93.9782 267.294 94.2964 267.354C94.6179 267.41 94.9278 267.528 95.2261 267.707C95.5277 267.886 95.778 268.156 95.9768 268.517C96.1757 268.878 96.2751 269.362 96.2751 269.969V275H95.1018V273.966H95.0422C94.9626 274.132 94.83 274.309 94.6444 274.498C94.4588 274.687 94.2119 274.848 93.9037 274.98C93.5954 275.113 93.2193 275.179 92.7751 275.179ZM92.9541 274.125C93.4181 274.125 93.8092 274.034 94.1274 273.852C94.4489 273.669 94.6908 273.434 94.8532 273.146C95.019 272.857 95.1018 272.554 95.1018 272.236V271.162C95.0521 271.222 94.9427 271.276 94.7737 271.326C94.608 271.372 94.4157 271.414 94.197 271.45C93.9816 271.483 93.7711 271.513 93.5656 271.54C93.3634 271.563 93.1994 271.583 93.0734 271.599C92.7685 271.639 92.4835 271.704 92.2183 271.793C91.9565 271.879 91.7443 272.01 91.5819 272.186C91.4229 272.358 91.3433 272.594 91.3433 272.892C91.3433 273.3 91.4941 273.608 91.7957 273.817C92.1006 274.022 92.4868 274.125 92.9541 274.125ZM99.5899 270.406V275H98.4166V267.364H99.5502V268.557H99.6496C99.8286 268.169 100.1 267.857 100.465 267.622C100.83 267.384 101.3 267.264 101.877 267.264C102.394 267.264 102.846 267.37 103.234 267.582C103.622 267.791 103.924 268.109 104.139 268.537C104.354 268.961 104.462 269.498 104.462 270.148V275H103.289V270.227C103.289 269.627 103.133 269.16 102.821 268.825C102.51 268.487 102.082 268.318 101.539 268.318C101.164 268.318 100.83 268.399 100.535 268.562C100.243 268.724 100.013 268.961 99.8435 269.273C99.6744 269.584 99.5899 269.962 99.5899 270.406ZM112.015 269.074L110.961 269.372C110.895 269.196 110.797 269.026 110.668 268.86C110.542 268.691 110.37 268.552 110.151 268.442C109.932 268.333 109.652 268.278 109.311 268.278C108.843 268.278 108.454 268.386 108.142 268.602C107.834 268.814 107.68 269.084 107.68 269.412C107.68 269.704 107.786 269.934 107.998 270.103C108.21 270.272 108.542 270.413 108.992 270.526L110.126 270.804C110.809 270.97 111.318 271.223 111.652 271.565C111.987 271.903 112.154 272.339 112.154 272.872C112.154 273.31 112.028 273.701 111.777 274.045C111.528 274.39 111.18 274.662 110.733 274.861C110.285 275.06 109.765 275.159 109.171 275.159C108.393 275.159 107.748 274.99 107.237 274.652C106.727 274.314 106.404 273.82 106.268 273.17L107.382 272.892C107.488 273.303 107.688 273.611 107.983 273.817C108.282 274.022 108.671 274.125 109.152 274.125C109.698 274.125 110.133 274.009 110.454 273.777C110.779 273.542 110.941 273.26 110.941 272.932C110.941 272.667 110.849 272.445 110.663 272.266C110.477 272.083 110.192 271.947 109.808 271.858L108.535 271.56C107.836 271.394 107.322 271.137 106.994 270.789C106.669 270.438 106.507 269.999 106.507 269.472C106.507 269.041 106.628 268.66 106.87 268.328C107.115 267.997 107.448 267.737 107.869 267.548C108.293 267.359 108.774 267.264 109.311 267.264C110.066 267.264 110.66 267.43 111.09 267.761C111.525 268.093 111.833 268.53 112.015 269.074ZM116.168 275.179C115.684 275.179 115.245 275.088 114.85 274.906C114.456 274.72 114.143 274.453 113.911 274.105C113.679 273.754 113.563 273.33 113.563 272.832C113.563 272.395 113.649 272.04 113.821 271.768C113.993 271.493 114.224 271.278 114.512 271.122C114.801 270.966 115.119 270.85 115.467 270.774C115.818 270.695 116.171 270.632 116.526 270.585C116.99 270.526 117.366 270.481 117.654 270.451C117.946 270.418 118.158 270.363 118.291 270.287C118.426 270.211 118.494 270.078 118.494 269.889V269.849C118.494 269.359 118.36 268.978 118.092 268.706C117.827 268.434 117.424 268.298 116.884 268.298C116.323 268.298 115.884 268.421 115.566 268.666C115.248 268.911 115.024 269.173 114.895 269.452L113.781 269.054C113.98 268.59 114.245 268.229 114.577 267.97C114.912 267.708 115.276 267.526 115.671 267.423C116.068 267.317 116.459 267.264 116.844 267.264C117.089 267.264 117.371 267.294 117.689 267.354C118.011 267.41 118.32 267.528 118.619 267.707C118.92 267.886 119.171 268.156 119.369 268.517C119.568 268.878 119.668 269.362 119.668 269.969V275H118.494V273.966H118.435C118.355 274.132 118.223 274.309 118.037 274.498C117.851 274.687 117.604 274.848 117.296 274.98C116.988 275.113 116.612 275.179 116.168 275.179ZM116.347 274.125C116.811 274.125 117.202 274.034 117.52 273.852C117.841 273.669 118.083 273.434 118.246 273.146C118.412 272.857 118.494 272.554 118.494 272.236V271.162C118.445 271.222 118.335 271.276 118.166 271.326C118.001 271.372 117.808 271.414 117.59 271.45C117.374 271.483 117.164 271.513 116.958 271.54C116.756 271.563 116.592 271.583 116.466 271.599C116.161 271.639 115.876 271.704 115.611 271.793C115.349 271.879 115.137 272.01 114.975 272.186C114.815 272.358 114.736 272.594 114.736 272.892C114.736 273.3 114.887 273.608 115.188 273.817C115.493 274.022 115.879 274.125 116.347 274.125ZM124.911 275.159C124.196 275.159 123.579 274.99 123.062 274.652C122.545 274.314 122.147 273.848 121.869 273.255C121.59 272.662 121.451 271.984 121.451 271.222C121.451 270.446 121.594 269.762 121.879 269.168C122.167 268.572 122.568 268.106 123.082 267.771C123.599 267.433 124.202 267.264 124.892 267.264C125.429 267.264 125.912 267.364 126.343 267.562C126.774 267.761 127.127 268.04 127.402 268.398C127.677 268.756 127.848 269.173 127.914 269.651H126.741C126.652 269.303 126.453 268.994 126.144 268.726C125.84 268.454 125.429 268.318 124.911 268.318C124.454 268.318 124.053 268.437 123.708 268.676C123.367 268.911 123.1 269.245 122.908 269.675C122.719 270.103 122.625 270.605 122.625 271.182C122.625 271.772 122.717 272.286 122.903 272.723C123.092 273.161 123.357 273.5 123.698 273.742C124.043 273.984 124.447 274.105 124.911 274.105C125.216 274.105 125.493 274.052 125.742 273.946C125.99 273.84 126.201 273.688 126.373 273.489C126.545 273.29 126.668 273.051 126.741 272.773H127.914C127.848 273.223 127.684 273.629 127.422 273.991C127.164 274.349 126.821 274.634 126.393 274.846C125.969 275.055 125.475 275.159 124.911 275.159ZM132.951 267.364V268.358H128.993V267.364H132.951ZM130.147 265.534H131.32V272.812C131.32 273.144 131.368 273.393 131.464 273.558C131.563 273.721 131.689 273.83 131.842 273.886C131.998 273.939 132.162 273.966 132.334 273.966C132.463 273.966 132.569 273.959 132.652 273.946C132.735 273.929 132.801 273.916 132.851 273.906L133.09 274.96C133.01 274.99 132.899 275.02 132.757 275.05C132.614 275.083 132.434 275.099 132.215 275.099C131.883 275.099 131.559 275.028 131.24 274.886C130.925 274.743 130.664 274.526 130.455 274.234C130.249 273.943 130.147 273.575 130.147 273.131V265.534ZM134.715 275V267.364H135.889V275H134.715ZM135.312 266.091C135.083 266.091 134.886 266.013 134.72 265.857C134.558 265.701 134.477 265.514 134.477 265.295C134.477 265.077 134.558 264.889 134.72 264.734C134.886 264.578 135.083 264.5 135.312 264.5C135.541 264.5 135.736 264.578 135.899 264.734C136.064 264.889 136.147 265.077 136.147 265.295C136.147 265.514 136.064 265.701 135.899 265.857C135.736 266.013 135.541 266.091 135.312 266.091ZM141.14 275.159C140.451 275.159 139.846 274.995 139.325 274.667C138.808 274.339 138.404 273.88 138.112 273.29C137.824 272.7 137.68 272.01 137.68 271.222C137.68 270.426 137.824 269.732 138.112 269.138C138.404 268.545 138.808 268.085 139.325 267.756C139.846 267.428 140.451 267.264 141.14 267.264C141.829 267.264 142.433 267.428 142.95 267.756C143.47 268.085 143.874 268.545 144.163 269.138C144.454 269.732 144.6 270.426 144.6 271.222C144.6 272.01 144.454 272.7 144.163 273.29C143.874 273.88 143.47 274.339 142.95 274.667C142.433 274.995 141.829 275.159 141.14 275.159ZM141.14 274.105C141.664 274.105 142.095 273.971 142.433 273.702C142.771 273.434 143.021 273.081 143.183 272.643C143.346 272.206 143.427 271.732 143.427 271.222C143.427 270.711 143.346 270.236 143.183 269.795C143.021 269.354 142.771 268.998 142.433 268.726C142.095 268.454 141.664 268.318 141.14 268.318C140.616 268.318 140.185 268.454 139.847 268.726C139.509 268.998 139.259 269.354 139.097 269.795C138.934 270.236 138.853 270.711 138.853 271.222C138.853 271.732 138.934 272.206 139.097 272.643C139.259 273.081 139.509 273.434 139.847 273.702C140.185 273.971 140.616 274.105 141.14 274.105ZM147.565 270.406V275H146.391V267.364H147.525V268.557H147.624C147.803 268.169 148.075 267.857 148.44 267.622C148.804 267.384 149.275 267.264 149.851 267.264C150.369 267.264 150.821 267.37 151.209 267.582C151.597 267.791 151.898 268.109 152.114 268.537C152.329 268.961 152.437 269.498 152.437 270.148V275H151.263V270.227C151.263 269.627 151.108 269.16 150.796 268.825C150.485 268.487 150.057 268.318 149.513 268.318C149.139 268.318 148.804 268.399 148.509 268.562C148.217 268.724 147.987 268.961 147.818 269.273C147.649 269.584 147.565 269.962 147.565 270.406ZM159.691 270.406V275H158.518V264.818H159.691V268.557H159.791C159.97 268.162 160.238 267.849 160.596 267.617C160.958 267.382 161.438 267.264 162.038 267.264C162.558 267.264 163.014 267.369 163.405 267.577C163.796 267.783 164.1 268.099 164.315 268.527C164.534 268.951 164.643 269.491 164.643 270.148V275H163.47V270.227C163.47 269.621 163.312 269.152 162.998 268.82C162.686 268.486 162.254 268.318 161.7 268.318C161.316 268.318 160.971 268.399 160.666 268.562C160.364 268.724 160.126 268.961 159.95 269.273C159.778 269.584 159.691 269.962 159.691 270.406ZM166.79 275V267.364H167.963V275H166.79ZM167.386 266.091C167.158 266.091 166.96 266.013 166.795 265.857C166.632 265.701 166.551 265.514 166.551 265.295C166.551 265.077 166.632 264.889 166.795 264.734C166.96 264.578 167.158 264.5 167.386 264.5C167.615 264.5 167.811 264.578 167.973 264.734C168.139 264.889 168.222 265.077 168.222 265.295C168.222 265.514 168.139 265.701 167.973 265.857C167.811 266.013 167.615 266.091 167.386 266.091ZM175.521 269.074L174.467 269.372C174.401 269.196 174.303 269.026 174.174 268.86C174.048 268.691 173.875 268.552 173.657 268.442C173.438 268.333 173.158 268.278 172.816 268.278C172.349 268.278 171.96 268.386 171.648 268.602C171.34 268.814 171.186 269.084 171.186 269.412C171.186 269.704 171.292 269.934 171.504 270.103C171.716 270.272 172.048 270.413 172.498 270.526L173.632 270.804C174.315 270.97 174.823 271.223 175.158 271.565C175.493 271.903 175.66 272.339 175.66 272.872C175.66 273.31 175.534 273.701 175.282 274.045C175.034 274.39 174.686 274.662 174.238 274.861C173.791 275.06 173.271 275.159 172.677 275.159C171.898 275.159 171.254 274.99 170.743 274.652C170.233 274.314 169.91 273.82 169.774 273.17L170.888 272.892C170.994 273.303 171.194 273.611 171.489 273.817C171.787 274.022 172.177 274.125 172.657 274.125C173.204 274.125 173.638 274.009 173.96 273.777C174.285 273.542 174.447 273.26 174.447 272.932C174.447 272.667 174.354 272.445 174.169 272.266C173.983 272.083 173.698 271.947 173.314 271.858L172.041 271.56C171.342 271.394 170.828 271.137 170.5 270.789C170.175 270.438 170.013 269.999 170.013 269.472C170.013 269.041 170.133 268.66 170.375 268.328C170.621 267.997 170.954 267.737 171.375 267.548C171.799 267.359 172.28 267.264 172.816 267.264C173.572 267.264 174.165 267.43 174.596 267.761C175.031 268.093 175.339 268.53 175.521 269.074ZM180.747 267.364V268.358H176.79V267.364H180.747ZM177.943 265.534H179.117V272.812C179.117 273.144 179.165 273.393 179.261 273.558C179.36 273.721 179.486 273.83 179.639 273.886C179.795 273.939 179.959 273.966 180.131 273.966C180.26 273.966 180.366 273.959 180.449 273.946C180.532 273.929 180.598 273.916 180.648 273.906L180.887 274.96C180.807 274.99 180.696 275.02 180.554 275.05C180.411 275.083 180.23 275.099 180.012 275.099C179.68 275.099 179.355 275.028 179.037 274.886C178.722 274.743 178.46 274.526 178.252 274.234C178.046 273.943 177.943 273.575 177.943 273.131V265.534ZM185.533 275.159C184.843 275.159 184.238 274.995 183.718 274.667C183.201 274.339 182.797 273.88 182.505 273.29C182.217 272.7 182.072 272.01 182.072 271.222C182.072 270.426 182.217 269.732 182.505 269.138C182.797 268.545 183.201 268.085 183.718 267.756C184.238 267.428 184.843 267.264 185.533 267.264C186.222 267.264 186.825 267.428 187.342 267.756C187.863 268.085 188.267 268.545 188.555 269.138C188.847 269.732 188.993 270.426 188.993 271.222C188.993 272.01 188.847 272.7 188.555 273.29C188.267 273.88 187.863 274.339 187.342 274.667C186.825 274.995 186.222 275.159 185.533 275.159ZM185.533 274.105C186.056 274.105 186.487 273.971 186.825 273.702C187.163 273.434 187.414 273.081 187.576 272.643C187.738 272.206 187.82 271.732 187.82 271.222C187.82 270.711 187.738 270.236 187.576 269.795C187.414 269.354 187.163 268.998 186.825 268.726C186.487 268.454 186.056 268.318 185.533 268.318C185.009 268.318 184.578 268.454 184.24 268.726C183.902 268.998 183.652 269.354 183.489 269.795C183.327 270.236 183.246 270.711 183.246 271.222C183.246 271.732 183.327 272.206 183.489 272.643C183.652 273.081 183.902 273.434 184.24 273.702C184.578 273.971 185.009 274.105 185.533 274.105ZM190.784 275V267.364H191.917V268.517H191.997C192.136 268.139 192.388 267.833 192.753 267.597C193.117 267.362 193.528 267.244 193.986 267.244C194.072 267.244 194.179 267.246 194.309 267.249C194.438 267.253 194.536 267.258 194.602 267.264V268.457C194.562 268.447 194.471 268.433 194.329 268.413C194.189 268.389 194.042 268.378 193.886 268.378C193.515 268.378 193.183 268.456 192.892 268.612C192.603 268.764 192.375 268.976 192.206 269.248C192.04 269.516 191.957 269.823 191.957 270.168V275H190.784ZM196.981 277.864C196.782 277.864 196.605 277.847 196.449 277.814C196.293 277.784 196.185 277.754 196.126 277.724L196.424 276.69C196.709 276.763 196.961 276.79 197.18 276.77C197.399 276.75 197.592 276.652 197.761 276.477C197.934 276.304 198.091 276.024 198.234 275.636L198.453 275.04L195.629 267.364H196.901L199.009 273.449H199.089L201.197 267.364H202.47L199.228 276.114C199.082 276.508 198.902 276.835 198.686 277.093C198.471 277.355 198.22 277.549 197.935 277.675C197.654 277.801 197.336 277.864 196.981 277.864Z" fill="#4B4B4B"/>
<path d="M43.25 276C43.25 276.414 43.5858 276.75 44 276.75C44.4142 276.75 44.75 276.414 44.75 276L43.25 276ZM44.5303 259.47C44.2374 259.177 43.7626 259.177 43.4697 259.47L38.6967 264.243C38.4038 264.536 38.4038 265.01 38.6967 265.303C38.9896 265.596 39.4645 265.596 39.7574 265.303L44 261.061L48.2426 265.303C48.5355 265.596 49.0104 265.596 49.3033 265.303C49.5962 265.01 49.5962 264.536 49.3033 264.243L44.5303 259.47ZM44.75 276L44.75 260L43.25 260L43.25 276L44.75 276Z" fill="#4B4B4B"/>
<path d="M32.75 260C32.75 259.586 32.4142 259.25 32 259.25C31.5858 259.25 31.25 259.586 31.25 260L32.75 260ZM31.4697 276.53C31.7626 276.823 32.2374 276.823 32.5303 276.53L37.3033 271.757C37.5962 271.464 37.5962 270.99 37.3033 270.697C37.0104 270.404 36.5355 270.404 36.2426 270.697L32 274.939L27.7574 270.697C27.4645 270.404 26.9896 270.404 26.6967 270.697C26.4038 270.99 26.4038 271.464 26.6967 271.757L31.4697 276.53ZM31.25 260L31.25 276L32.75 276L32.75 260L31.25 260Z" fill="#4B4B4B"/>
<rect opacity="0.1" x="16" y="310" width="44" height="44" rx="10" fill="url(#paint1_linear_31_1453)"/>
<path d="M43.5 340.938H32.5C31.5883 340.938 30.714 340.575 30.0693 339.931C29.4247 339.286 29.0625 338.412 29.0625 337.5V327.875C29.0625 327.693 29.1349 327.518 29.2639 327.389C29.3928 327.26 29.5677 327.188 29.75 327.188H43.5C44.4117 327.188 45.286 327.55 45.9307 328.194C46.5753 328.839 46.9375 329.713 46.9375 330.625V337.5C46.9375 338.412 46.5753 339.286 45.9307 339.931C45.286 340.575 44.4117 340.938 43.5 340.938V340.938ZM30.4375 328.562V337.5C30.4375 338.047 30.6548 338.572 31.0416 338.958C31.4284 339.345 31.953 339.562 32.5 339.562H43.5C44.047 339.562 44.5716 339.345 44.9584 338.958C45.3452 338.572 45.5625 338.047 45.5625 337.5V330.625C45.5625 330.078 45.3452 329.553 44.9584 329.167C44.5716 328.78 44.047 328.562 43.5 328.562H30.4375Z" fill="#4B4B4B"/>
<path d="M44.8751 328.562C44.6927 328.562 44.5179 328.49 44.3889 328.361C44.26 328.232 44.1876 328.057 44.1876 327.875V325.984C44.2007 325.743 44.1594 325.503 44.0665 325.28C43.9737 325.058 43.8317 324.859 43.6513 324.699C43.4892 324.577 43.3016 324.494 43.1027 324.456C42.9037 324.418 42.6987 324.426 42.5032 324.479L30.9738 327.098C30.8187 327.133 30.6805 327.221 30.5828 327.346C30.485 327.471 30.4337 327.627 30.4376 327.786C30.4376 327.968 30.3651 328.143 30.2362 328.272C30.1073 328.401 29.9324 328.473 29.7501 328.473C29.5677 328.473 29.3929 328.401 29.2639 328.272C29.135 328.143 29.0626 327.968 29.0626 327.786C29.0585 327.316 29.2151 326.858 29.5065 326.49C29.7978 326.121 30.2063 325.862 30.6645 325.757L42.2007 323.138C42.5975 323.038 43.0119 323.03 43.4123 323.114C43.8127 323.199 44.1884 323.374 44.5107 323.626C44.8514 323.915 45.1229 324.277 45.3049 324.686C45.487 325.094 45.575 325.538 45.5626 325.984V327.875C45.5626 328.057 45.4901 328.232 45.3612 328.361C45.2323 328.49 45.0574 328.562 44.8751 328.562Z" fill="#4B4B4B"/>
<path d="M46.25 336.812H41.4375C40.7082 336.812 40.0087 336.523 39.493 336.007C38.9772 335.491 38.6875 334.792 38.6875 334.062C38.6875 333.333 38.9772 332.634 39.493 332.118C40.0087 331.602 40.7082 331.312 41.4375 331.312H46.25C46.4323 331.312 46.6072 331.385 46.7361 331.514C46.8651 331.643 46.9375 331.818 46.9375 332V336.125C46.9375 336.307 46.8651 336.482 46.7361 336.611C46.6072 336.74 46.4323 336.812 46.25 336.812ZM41.4375 332.688C41.0728 332.688 40.7231 332.832 40.4652 333.09C40.2074 333.348 40.0625 333.698 40.0625 334.062C40.0625 334.427 40.2074 334.777 40.4652 335.035C40.7231 335.293 41.0728 335.438 41.4375 335.438H45.5625V332.688H41.4375Z" fill="#4B4B4B"/>
<path d="M77.2896 339V328.818H80.7299C81.5287 328.818 82.1816 328.962 82.6887 329.251C83.1992 329.536 83.577 329.922 83.8223 330.409C84.0675 330.896 84.1902 331.44 84.1902 332.04C84.1902 332.64 84.0675 333.185 83.8223 333.675C83.5803 334.166 83.2058 334.557 82.6987 334.849C82.1916 335.137 81.542 335.281 80.7498 335.281H78.2839V334.188H80.71C81.2569 334.188 81.6961 334.093 82.0275 333.904C82.359 333.715 82.5993 333.46 82.7484 333.138C82.9009 332.814 82.9771 332.447 82.9771 332.04C82.9771 331.632 82.9009 331.268 82.7484 330.946C82.5993 330.625 82.3573 330.373 82.0225 330.19C81.6878 330.005 81.2437 329.912 80.6902 329.912H78.5225V339H77.2896ZM88.2644 339.179C87.7805 339.179 87.3413 339.088 86.9469 338.906C86.5525 338.72 86.2393 338.453 86.0073 338.105C85.7753 337.754 85.6593 337.33 85.6593 336.832C85.6593 336.395 85.7454 336.04 85.9178 335.768C86.0901 335.493 86.3205 335.278 86.6088 335.122C86.8972 334.966 87.2154 334.85 87.5634 334.774C87.9147 334.695 88.2677 334.632 88.6223 334.585C89.0864 334.526 89.4625 334.481 89.7509 334.451C90.0426 334.418 90.2547 334.363 90.3873 334.287C90.5231 334.211 90.5911 334.078 90.5911 333.889V333.849C90.5911 333.359 90.4569 332.978 90.1884 332.706C89.9232 332.434 89.5205 332.298 88.9803 332.298C88.4202 332.298 87.981 332.421 87.6628 332.666C87.3446 332.911 87.1209 333.173 86.9917 333.452L85.878 333.054C86.0769 332.59 86.342 332.229 86.6735 331.97C87.0082 331.708 87.3728 331.526 87.7672 331.423C88.165 331.317 88.556 331.264 88.9405 331.264C89.1858 331.264 89.4675 331.294 89.7857 331.354C90.1072 331.41 90.4171 331.528 90.7154 331.707C91.017 331.886 91.2672 332.156 91.4661 332.517C91.665 332.878 91.7644 333.362 91.7644 333.969V339H90.5911V337.966H90.5314C90.4519 338.132 90.3193 338.309 90.1337 338.498C89.9481 338.687 89.7012 338.848 89.3929 338.98C89.0847 339.113 88.7085 339.179 88.2644 339.179ZM88.4434 338.125C88.9074 338.125 89.2985 338.034 89.6167 337.852C89.9382 337.669 90.1801 337.434 90.3425 337.146C90.5082 336.857 90.5911 336.554 90.5911 336.236V335.162C90.5414 335.222 90.432 335.276 90.263 335.326C90.0972 335.372 89.905 335.414 89.6863 335.45C89.4708 335.483 89.2604 335.513 89.0549 335.54C88.8527 335.563 88.6886 335.583 88.5627 335.599C88.2578 335.639 87.9727 335.704 87.7076 335.793C87.4457 335.879 87.2336 336.01 87.0712 336.186C86.9121 336.358 86.8326 336.594 86.8326 336.892C86.8326 337.3 86.9834 337.608 87.285 337.817C87.5899 338.022 87.976 338.125 88.4434 338.125ZM94.3881 341.864C94.1893 341.864 94.012 341.847 93.8562 341.814C93.7004 341.784 93.5927 341.754 93.533 341.724L93.8313 340.69C94.1164 340.763 94.3683 340.79 94.587 340.77C94.8058 340.75 94.9996 340.652 95.1687 340.477C95.341 340.304 95.4985 340.024 95.641 339.636L95.8597 339.04L93.0359 331.364H94.3086L96.4165 337.449H96.4961L98.604 331.364H99.8768L96.6353 340.114C96.4895 340.508 96.3088 340.835 96.0934 341.093C95.878 341.355 95.6277 341.549 95.3427 341.675C95.061 341.801 94.7428 341.864 94.3881 341.864ZM101.425 339V331.364H102.559V332.557H102.658C102.817 332.149 103.074 331.833 103.429 331.607C103.784 331.379 104.21 331.264 104.707 331.264C105.21 331.264 105.63 331.379 105.964 331.607C106.303 331.833 106.566 332.149 106.755 332.557H106.835C107.03 332.162 107.323 331.849 107.714 331.617C108.106 331.382 108.575 331.264 109.121 331.264C109.804 331.264 110.363 331.478 110.797 331.906C111.231 332.33 111.448 332.991 111.448 333.889V339H110.275V333.889C110.275 333.326 110.121 332.923 109.812 332.681C109.504 332.439 109.141 332.318 108.724 332.318C108.187 332.318 107.771 332.481 107.476 332.805C107.181 333.127 107.033 333.535 107.033 334.028V339H105.84V333.77C105.84 333.336 105.699 332.986 105.418 332.721C105.136 332.452 104.773 332.318 104.329 332.318C104.024 332.318 103.739 332.399 103.474 332.562C103.212 332.724 103 332.95 102.837 333.238C102.678 333.523 102.599 333.853 102.599 334.227V339H101.425ZM116.795 339.159C116.059 339.159 115.425 338.997 114.891 338.672C114.361 338.344 113.951 337.886 113.663 337.3C113.378 336.71 113.235 336.024 113.235 335.241C113.235 334.459 113.378 333.77 113.663 333.173C113.951 332.573 114.352 332.106 114.866 331.771C115.383 331.433 115.986 331.264 116.676 331.264C117.074 331.264 117.466 331.33 117.854 331.463C118.242 331.596 118.595 331.811 118.913 332.109C119.231 332.404 119.485 332.795 119.674 333.283C119.863 333.77 119.957 334.37 119.957 335.082V335.58H114.071V334.565H118.764C118.764 334.134 118.678 333.75 118.505 333.412C118.336 333.074 118.094 332.807 117.779 332.612C117.468 332.416 117.1 332.318 116.676 332.318C116.208 332.318 115.804 332.434 115.463 332.666C115.125 332.895 114.864 333.193 114.682 333.561C114.5 333.929 114.409 334.323 114.409 334.744V335.42C114.409 335.997 114.508 336.486 114.707 336.887C114.909 337.285 115.189 337.588 115.547 337.797C115.905 338.002 116.321 338.105 116.795 338.105C117.103 338.105 117.382 338.062 117.63 337.976C117.882 337.886 118.099 337.754 118.282 337.578C118.464 337.399 118.605 337.177 118.704 336.912L119.838 337.23C119.718 337.615 119.518 337.953 119.236 338.244C118.954 338.533 118.606 338.758 118.192 338.92C117.778 339.08 117.312 339.159 116.795 339.159ZM122.915 334.406V339H121.742V331.364H122.875V332.557H122.975C123.154 332.169 123.426 331.857 123.79 331.622C124.155 331.384 124.625 331.264 125.202 331.264C125.719 331.264 126.172 331.37 126.559 331.582C126.947 331.791 127.249 332.109 127.464 332.537C127.68 332.961 127.787 333.498 127.787 334.148V339H126.614V334.227C126.614 333.627 126.458 333.16 126.147 332.825C125.835 332.487 125.408 332.318 124.864 332.318C124.489 332.318 124.155 332.399 123.86 332.562C123.568 332.724 123.338 332.961 123.169 333.273C123 333.584 122.915 333.962 122.915 334.406ZM133.252 331.364V332.358H129.295V331.364H133.252ZM130.448 329.534H131.622V336.812C131.622 337.144 131.67 337.393 131.766 337.558C131.865 337.721 131.991 337.83 132.144 337.886C132.299 337.939 132.463 337.966 132.636 337.966C132.765 337.966 132.871 337.959 132.954 337.946C133.037 337.929 133.103 337.916 133.153 337.906L133.392 338.96C133.312 338.99 133.201 339.02 133.058 339.05C132.916 339.083 132.735 339.099 132.517 339.099C132.185 339.099 131.86 339.028 131.542 338.886C131.227 338.743 130.965 338.526 130.757 338.234C130.551 337.943 130.448 337.575 130.448 337.131V329.534Z" fill="#4B4B4B"/>
<rect opacity="0.1" x="16" y="374" width="44" height="44" rx="10" fill="url(#paint2_linear_31_1453)"/>
<path d="M43.7777 403.556H32.2222V404.444H43.7777V403.556Z" fill="#4B4B4B"/>
<path d="M38.4444 390.222H32.2222V391.111H38.4444V390.222Z" fill="#4B4B4B"/>
<path d="M43.7777 400.889H32.2222V401.778H43.7777V400.889Z" fill="#4B4B4B"/>
<path d="M38.4444 387.556H32.2222V388.444H38.4444V387.556Z" fill="#4B4B4B"/>
<path d="M41.1111 384H40.6667H31.3333C30.3555 384 29.5555 384.8 29.5555 385.778V406.222C29.5555 407.2 30.3555 408 31.3333 408H44.6667C45.6444 408 46.4444 407.2 46.4444 406.222V390.667V390.222L41.1111 384ZM41.1111 385.333L45.2889 390.222H42C41.5556 390.222 41.1111 389.778 41.1111 389.333V385.333ZM45.5555 406.222C45.5555 406.667 45.2 407.111 44.6667 407.111H31.3333C30.8889 407.111 30.4444 406.756 30.4444 406.222V385.778C30.4444 385.333 30.8 384.889 31.3333 384.889H40.2222V389.333C40.2222 390.311 41.0222 391.111 42 391.111H45.5555V406.222Z" fill="#4B4B4B"/>
<path d="M43.7777 398.222H32.2222V399.111H43.7777V398.222Z" fill="#4B4B4B"/>
<path d="M43.7777 392.889H32.2222V393.778H43.7777V392.889Z" fill="#4B4B4B"/>
<path d="M43.7777 395.556H32.2222V396.444H43.7777V395.556Z" fill="#4B4B4B"/>
<path d="M76.8832 393.912V392.818H84.5195V393.912H81.3178V403H80.0849V393.912H76.8832ZM88.3576 403.159C87.6218 403.159 86.9871 402.997 86.4535 402.672C85.9232 402.344 85.5138 401.886 85.2255 401.3C84.9405 400.71 84.7979 400.024 84.7979 399.241C84.7979 398.459 84.9405 397.77 85.2255 397.173C85.5138 396.573 85.9149 396.106 86.4286 395.771C86.9457 395.433 87.5489 395.264 88.2383 395.264C88.636 395.264 89.0288 395.33 89.4165 395.463C89.8043 395.596 90.1573 395.811 90.4755 396.109C90.7937 396.404 91.0472 396.795 91.2362 397.283C91.4251 397.77 91.5195 398.37 91.5195 399.082V399.58H85.6332V398.565H90.3263C90.3263 398.134 90.2402 397.75 90.0678 397.412C89.8988 397.074 89.6568 396.807 89.342 396.612C89.0304 396.416 88.6625 396.318 88.2383 396.318C87.771 396.318 87.3666 396.434 87.0252 396.666C86.6871 396.895 86.427 397.193 86.2447 397.561C86.0624 397.929 85.9712 398.323 85.9712 398.744V399.42C85.9712 399.997 86.0707 400.486 86.2695 400.887C86.4717 401.285 86.7518 401.588 87.1097 401.797C87.4677 402.002 87.8836 402.105 88.3576 402.105C88.6658 402.105 88.9442 402.062 89.1928 401.976C89.4447 401.886 89.6618 401.754 89.8441 401.578C90.0264 401.399 90.1673 401.177 90.2667 400.912L91.4002 401.23C91.2809 401.615 91.0804 401.953 90.7987 402.244C90.5169 402.533 90.1689 402.758 89.7546 402.92C89.3403 403.08 88.8746 403.159 88.3576 403.159ZM93.3043 403V395.364H94.4379V396.517H94.5174C94.6566 396.139 94.9085 395.833 95.2731 395.597C95.6377 395.362 96.0487 395.244 96.506 395.244C96.5922 395.244 96.6999 395.246 96.8292 395.249C96.9585 395.253 97.0562 395.258 97.1225 395.264V396.457C97.0827 396.447 96.9916 396.433 96.8491 396.413C96.7099 396.389 96.5624 396.378 96.4066 396.378C96.0354 396.378 95.704 396.456 95.4123 396.612C95.1239 396.764 94.8952 396.976 94.7262 397.248C94.5605 397.516 94.4776 397.823 94.4776 398.168V403H93.3043ZM98.5133 403V395.364H99.6468V396.557H99.7463C99.9054 396.149 100.162 395.833 100.517 395.607C100.872 395.379 101.297 395.264 101.795 395.264C102.298 395.264 102.718 395.379 103.052 395.607C103.39 395.833 103.654 396.149 103.843 396.557H103.922C104.118 396.162 104.411 395.849 104.802 395.617C105.193 395.382 105.662 395.264 106.209 395.264C106.892 395.264 107.451 395.478 107.885 395.906C108.319 396.33 108.536 396.991 108.536 397.889V403H107.363V397.889C107.363 397.326 107.209 396.923 106.9 396.681C106.592 396.439 106.229 396.318 105.812 396.318C105.275 396.318 104.859 396.481 104.564 396.805C104.269 397.127 104.121 397.535 104.121 398.028V403H102.928V397.77C102.928 397.336 102.787 396.986 102.506 396.721C102.224 396.452 101.861 396.318 101.417 396.318C101.112 396.318 100.827 396.399 100.562 396.562C100.3 396.724 100.088 396.95 99.9252 397.238C99.7662 397.523 99.6866 397.853 99.6866 398.227V403H98.5133ZM116.09 397.074L115.036 397.372C114.97 397.196 114.872 397.026 114.743 396.86C114.617 396.691 114.445 396.552 114.226 396.442C114.007 396.333 113.727 396.278 113.386 396.278C112.919 396.278 112.529 396.386 112.218 396.602C111.909 396.814 111.755 397.084 111.755 397.412C111.755 397.704 111.861 397.934 112.073 398.103C112.285 398.272 112.617 398.413 113.068 398.526L114.201 398.804C114.884 398.97 115.393 399.223 115.727 399.565C116.062 399.903 116.23 400.339 116.23 400.872C116.23 401.31 116.104 401.701 115.852 402.045C115.603 402.39 115.255 402.662 114.808 402.861C114.36 403.06 113.84 403.159 113.247 403.159C112.468 403.159 111.823 402.99 111.313 402.652C110.802 402.314 110.479 401.82 110.343 401.17L111.457 400.892C111.563 401.303 111.763 401.611 112.058 401.817C112.357 402.022 112.746 402.125 113.227 402.125C113.774 402.125 114.208 402.009 114.529 401.777C114.854 401.542 115.017 401.26 115.017 400.932C115.017 400.667 114.924 400.445 114.738 400.266C114.552 400.083 114.267 399.947 113.883 399.858L112.61 399.56C111.911 399.394 111.397 399.137 111.069 398.789C110.744 398.438 110.582 397.999 110.582 397.472C110.582 397.041 110.703 396.66 110.945 396.328C111.19 395.997 111.523 395.737 111.944 395.548C112.368 395.359 112.849 395.264 113.386 395.264C114.142 395.264 114.735 395.43 115.166 395.761C115.6 396.093 115.908 396.53 116.09 397.074ZM125.036 403.159C124.346 403.159 123.741 402.995 123.221 402.667C122.704 402.339 122.299 401.88 122.008 401.29C121.719 400.7 121.575 400.01 121.575 399.222C121.575 398.426 121.719 397.732 122.008 397.138C122.299 396.545 122.704 396.085 123.221 395.756C123.741 395.428 124.346 395.264 125.036 395.264C125.725 395.264 126.328 395.428 126.845 395.756C127.366 396.085 127.77 396.545 128.058 397.138C128.35 397.732 128.496 398.426 128.496 399.222C128.496 400.01 128.35 400.7 128.058 401.29C127.77 401.88 127.366 402.339 126.845 402.667C126.328 402.995 125.725 403.159 125.036 403.159ZM125.036 402.105C125.559 402.105 125.99 401.971 126.328 401.702C126.666 401.434 126.916 401.081 127.079 400.643C127.241 400.206 127.322 399.732 127.322 399.222C127.322 398.711 127.241 398.236 127.079 397.795C126.916 397.354 126.666 396.998 126.328 396.726C125.99 396.454 125.559 396.318 125.036 396.318C124.512 396.318 124.081 396.454 123.743 396.726C123.405 396.998 123.155 397.354 122.992 397.795C122.83 398.236 122.749 398.711 122.749 399.222C122.749 399.732 122.83 400.206 122.992 400.643C123.155 401.081 123.405 401.434 123.743 401.702C124.081 401.971 124.512 402.105 125.036 402.105ZM133.687 395.364V396.358H129.571V395.364H133.687ZM130.804 403V394.31C130.804 393.872 130.907 393.508 131.112 393.216C131.318 392.924 131.584 392.705 131.912 392.56C132.241 392.414 132.587 392.341 132.952 392.341C133.24 392.341 133.475 392.364 133.657 392.411C133.84 392.457 133.976 392.5 134.065 392.54L133.727 393.554C133.667 393.534 133.585 393.509 133.479 393.479C133.376 393.45 133.24 393.435 133.071 393.435C132.683 393.435 132.403 393.532 132.231 393.728C132.062 393.924 131.977 394.21 131.977 394.588V403H130.804ZM144.082 399.878V395.364H145.255V403H144.082V401.707H144.002C143.823 402.095 143.545 402.425 143.167 402.697C142.789 402.965 142.312 403.099 141.735 403.099C141.258 403.099 140.834 402.995 140.462 402.786C140.091 402.574 139.799 402.256 139.587 401.832C139.375 401.404 139.269 400.866 139.269 400.216V395.364H140.442V400.136C140.442 400.693 140.598 401.137 140.91 401.469C141.225 401.8 141.626 401.966 142.113 401.966C142.405 401.966 142.701 401.891 143.003 401.742C143.308 401.593 143.563 401.364 143.768 401.056C143.977 400.748 144.082 400.355 144.082 399.878ZM152.813 397.074L151.759 397.372C151.693 397.196 151.595 397.026 151.466 396.86C151.34 396.691 151.167 396.552 150.949 396.442C150.73 396.333 150.45 396.278 150.108 396.278C149.641 396.278 149.252 396.386 148.94 396.602C148.632 396.814 148.478 397.084 148.478 397.412C148.478 397.704 148.584 397.934 148.796 398.103C149.008 398.272 149.34 398.413 149.79 398.526L150.924 398.804C151.607 398.97 152.115 399.223 152.45 399.565C152.785 399.903 152.952 400.339 152.952 400.872C152.952 401.31 152.826 401.701 152.574 402.045C152.326 402.39 151.978 402.662 151.53 402.861C151.083 403.06 150.563 403.159 149.969 403.159C149.19 403.159 148.546 402.99 148.035 402.652C147.525 402.314 147.202 401.82 147.066 401.17L148.18 400.892C148.286 401.303 148.486 401.611 148.781 401.817C149.079 402.022 149.469 402.125 149.949 402.125C150.496 402.125 150.93 402.009 151.252 401.777C151.577 401.542 151.739 401.26 151.739 400.932C151.739 400.667 151.646 400.445 151.461 400.266C151.275 400.083 150.99 399.947 150.606 399.858L149.333 399.56C148.634 399.394 148.12 399.137 147.792 398.789C147.467 398.438 147.305 397.999 147.305 397.472C147.305 397.041 147.425 396.66 147.667 396.328C147.913 395.997 148.246 395.737 148.667 395.548C149.091 395.359 149.572 395.264 150.108 395.264C150.864 395.264 151.457 395.43 151.888 395.761C152.323 396.093 152.631 396.53 152.813 397.074ZM157.92 403.159C157.184 403.159 156.55 402.997 156.016 402.672C155.486 402.344 155.076 401.886 154.788 401.3C154.503 400.71 154.36 400.024 154.36 399.241C154.36 398.459 154.503 397.77 154.788 397.173C155.076 396.573 155.477 396.106 155.991 395.771C156.508 395.433 157.111 395.264 157.801 395.264C158.199 395.264 158.591 395.33 158.979 395.463C159.367 395.596 159.72 395.811 160.038 396.109C160.356 396.404 160.61 396.795 160.799 397.283C160.988 397.77 161.082 398.37 161.082 399.082V399.58H155.196V398.565H159.889C159.889 398.134 159.803 397.75 159.63 397.412C159.461 397.074 159.219 396.807 158.904 396.612C158.593 396.416 158.225 396.318 157.801 396.318C157.333 396.318 156.929 396.434 156.588 396.666C156.25 396.895 155.989 397.193 155.807 397.561C155.625 397.929 155.534 398.323 155.534 398.744V399.42C155.534 399.997 155.633 400.486 155.832 400.887C156.034 401.285 156.314 401.588 156.672 401.797C157.03 402.002 157.446 402.105 157.92 402.105C158.228 402.105 158.507 402.062 158.755 401.976C159.007 401.886 159.224 401.754 159.407 401.578C159.589 401.399 159.73 401.177 159.829 400.912L160.963 401.23C160.843 401.615 160.643 401.953 160.361 402.244C160.079 402.533 159.731 402.758 159.317 402.92C158.903 403.08 158.437 403.159 157.92 403.159Z" fill="#4B4B4B"/>
<rect opacity="0.1" x="16" y="438" width="44" height="44" rx="10" fill="url(#paint3_linear_31_1453)"/>
<path d="M49.9749 452.944C49.8995 451.294 48.6178 450 47.0094 450H28.9906C27.3571 450 26 451.396 26 453.046V462.817C26 464.416 27.2817 465.787 28.8398 465.863V468.426C28.8398 469.036 29.2168 469.619 29.7948 469.873C29.9707 469.949 30.1969 470 30.3979 470C30.8251 470 31.2021 469.848 31.5037 469.569L35.2482 465.863H47.0094C48.6429 465.863 50 464.467 50 462.817L49.9749 452.944ZM48.7183 462.817C48.7183 463.782 47.9141 464.594 46.9843 464.594H34.7204L30.6241 468.655C30.599 468.68 30.5487 468.731 30.423 468.731C30.3728 468.731 30.3476 468.731 30.3476 468.731L30.3225 468.706C30.1969 468.655 30.1215 468.553 30.1215 468.426V464.594H29.0157C28.0859 464.594 27.2817 463.756 27.2817 462.817V453.046C27.2817 452.081 28.0859 451.269 29.0157 451.269H47.0346C47.9644 451.269 48.7183 452.03 48.7435 452.97V462.817H48.7183Z" fill="#4B4B4B"/>
<path d="M35.8514 453.985H30.3729C30.0211 453.985 29.7446 454.264 29.7446 454.619C29.7446 454.975 30.0211 455.254 30.3729 455.254H35.8514C36.2033 455.254 36.4797 454.975 36.4797 454.619C36.4797 454.264 36.2033 453.985 35.8514 453.985Z" fill="#4B4B4B"/>
<path d="M36.731 456.802H30.3729C30.0211 456.802 29.7446 457.081 29.7446 457.437C29.7446 457.792 30.0211 458.071 30.3729 458.071H36.731C37.0828 458.071 37.3593 457.792 37.3593 457.437C37.3593 457.081 37.0828 456.802 36.731 456.802Z" fill="#4B4B4B"/>
<path d="M30.3729 460.99H37.6609C38.0127 460.99 38.2891 460.711 38.2891 460.355C38.2891 460 38.0127 459.721 37.6609 459.721H30.3729C30.0211 459.721 29.7446 460 29.7446 460.355C29.7446 460.711 30.0211 460.99 30.3729 460.99Z" fill="#4B4B4B"/>
<path d="M43.5666 459.645H43.4661C43.1394 459.645 42.8881 459.924 42.8881 460.228V460.431C42.8881 460.761 43.1645 461.015 43.4661 461.015H43.5666C43.8933 461.015 44.1446 460.761 44.1446 460.431V460.228C44.1446 459.898 43.8682 459.645 43.5666 459.645Z" fill="#4B4B4B"/>
<path d="M44.622 453.604C44.3205 453.477 43.9686 453.401 43.5917 453.401C43.089 453.401 42.6618 453.503 42.2848 453.731C41.9833 453.909 41.732 454.137 41.5309 454.467C41.4807 454.569 41.4304 454.67 41.3801 454.772C41.2042 455.127 41.4555 455.533 41.8576 455.558C42.0838 455.558 42.31 455.432 42.4105 455.203C42.4356 455.152 42.4608 455.076 42.511 455.025C42.7121 454.695 43.0639 454.518 43.5665 454.518C43.9938 454.518 44.2702 454.619 44.4712 454.848C44.5969 455 44.6472 455.152 44.6472 455.33C44.6472 455.508 44.5718 455.66 44.4461 455.812C44.2953 455.965 44.1445 456.117 43.9435 456.244C43.6419 456.447 43.3655 456.726 43.1896 457.056C43.0388 457.36 42.9885 457.741 42.9634 458.096C42.9383 458.426 43.1896 458.706 43.5163 458.706H43.5665C43.8681 458.706 44.1194 458.477 44.1948 458.223C44.2199 457.944 44.2451 457.614 44.3456 457.487C44.4712 457.31 44.622 457.208 44.7979 457.081C44.9739 456.929 45.1498 456.802 45.3006 456.624C45.6021 456.294 45.8032 455.838 45.8032 455.381C45.8032 454.924 45.6524 454.467 45.3257 454.112C45.1246 453.883 44.8985 453.706 44.622 453.604Z" fill="#4B4B4B"/>
<path d="M83.1752 459.364C83.1155 458.86 82.8736 458.469 82.4493 458.19C82.0251 457.912 81.5047 457.773 80.8882 457.773C80.4375 457.773 80.0431 457.846 79.705 457.991C79.3702 458.137 79.1084 458.338 78.9195 458.593C78.7339 458.848 78.6411 459.138 78.6411 459.463C78.6411 459.735 78.7057 459.969 78.835 460.164C78.9675 460.356 79.1366 460.517 79.3421 460.646C79.5476 460.772 79.763 460.877 79.9884 460.96C80.2137 461.039 80.4209 461.104 80.6098 461.153L81.6439 461.432C81.9091 461.501 82.204 461.598 82.5289 461.72C82.857 461.843 83.1702 462.01 83.4685 462.222C83.7701 462.431 84.0187 462.7 84.2142 463.028C84.4098 463.356 84.5075 463.759 84.5075 464.236C84.5075 464.786 84.3634 465.283 84.075 465.727C83.79 466.171 83.3724 466.524 82.8222 466.786C82.2753 467.048 81.6108 467.179 80.8286 467.179C80.0994 467.179 79.468 467.061 78.9344 466.826C78.4041 466.591 77.9865 466.263 77.6816 465.842C77.3799 465.421 77.2093 464.932 77.1695 464.375H78.4422C78.4753 464.759 78.6046 465.078 78.83 465.33C79.0587 465.578 79.347 465.764 79.695 465.886C80.0464 466.006 80.4242 466.065 80.8286 466.065C81.2992 466.065 81.7218 465.989 82.0963 465.837C82.4709 465.681 82.7675 465.465 82.9862 465.19C83.205 464.912 83.3144 464.587 83.3144 464.216C83.3144 463.878 83.2199 463.603 83.031 463.391C82.8421 463.179 82.5935 463.006 82.2852 462.874C81.977 462.741 81.6439 462.625 81.286 462.526L80.0331 462.168C79.2377 461.939 78.6079 461.612 78.1439 461.188C77.6799 460.764 77.4479 460.209 77.4479 459.523C77.4479 458.953 77.602 458.455 77.9102 458.031C78.2218 457.604 78.6394 457.272 79.1631 457.037C79.6901 456.798 80.2784 456.679 80.928 456.679C81.5843 456.679 82.1676 456.797 82.678 457.032C83.1884 457.264 83.5928 457.582 83.8911 457.987C84.1927 458.391 84.3518 458.85 84.3683 459.364H83.1752ZM91.1881 463.878V459.364H92.3614V467H91.1881V465.707H91.1086C90.9296 466.095 90.6512 466.425 90.2733 466.697C89.8955 466.965 89.4182 467.099 88.8415 467.099C88.3643 467.099 87.94 466.995 87.5688 466.786C87.1976 466.574 86.9059 466.256 86.6938 465.832C86.4817 465.404 86.3756 464.866 86.3756 464.216V459.364H87.5489V464.136C87.5489 464.693 87.7047 465.137 88.0162 465.469C88.3311 465.8 88.7322 465.966 89.2194 465.966C89.511 465.966 89.8077 465.891 90.1093 465.742C90.4142 465.593 90.6694 465.364 90.8749 465.056C91.0837 464.748 91.1881 464.355 91.1881 463.878ZM94.5104 469.864V459.364H95.6439V460.577H95.7831C95.8693 460.444 95.9886 460.275 96.1411 460.07C96.2968 459.861 96.5189 459.675 96.8073 459.513C97.0989 459.347 97.4933 459.264 97.9905 459.264C98.6335 459.264 99.2003 459.425 99.6908 459.746C100.181 460.068 100.564 460.524 100.839 461.114C101.114 461.704 101.252 462.4 101.252 463.202C101.252 464.01 101.114 464.711 100.839 465.305C100.564 465.895 100.183 466.352 99.6958 466.677C99.2085 466.998 98.6468 467.159 98.0104 467.159C97.5199 467.159 97.1271 467.078 96.8321 466.915C96.5371 466.75 96.3101 466.562 96.151 466.354C95.9919 466.142 95.8693 465.966 95.7831 465.827H95.6837V469.864H94.5104ZM95.6638 463.182C95.6638 463.759 95.7483 464.267 95.9173 464.708C96.0864 465.146 96.3333 465.489 96.6581 465.737C96.9829 465.982 97.3807 466.105 97.8513 466.105C98.3418 466.105 98.7512 465.976 99.0793 465.717C99.4107 465.455 99.6593 465.104 99.825 464.663C99.9941 464.219 100.079 463.725 100.079 463.182C100.079 462.645 99.9957 462.161 99.83 461.73C99.6676 461.296 99.4207 460.953 99.0892 460.701C98.7611 460.446 98.3485 460.318 97.8513 460.318C97.374 460.318 96.973 460.439 96.6482 460.681C96.3234 460.92 96.0781 461.254 95.9124 461.685C95.7467 462.113 95.6638 462.612 95.6638 463.182ZM103.042 469.864V459.364H104.175V460.577H104.314C104.401 460.444 104.52 460.275 104.672 460.07C104.828 459.861 105.05 459.675 105.339 459.513C105.63 459.347 106.025 459.264 106.522 459.264C107.165 459.264 107.732 459.425 108.222 459.746C108.713 460.068 109.095 460.524 109.37 461.114C109.646 461.704 109.783 462.4 109.783 463.202C109.783 464.01 109.646 464.711 109.37 465.305C109.095 465.895 108.714 466.352 108.227 466.677C107.74 466.998 107.178 467.159 106.542 467.159C106.051 467.159 105.658 467.078 105.363 466.915C105.068 466.75 104.841 466.562 104.682 466.354C104.523 466.142 104.401 465.966 104.314 465.827H104.215V469.864H103.042ZM104.195 463.182C104.195 463.759 104.28 464.267 104.449 464.708C104.618 465.146 104.865 465.489 105.189 465.737C105.514 465.982 105.912 466.105 106.383 466.105C106.873 466.105 107.282 465.976 107.611 465.717C107.942 465.455 108.191 465.104 108.356 464.663C108.525 464.219 108.61 463.725 108.61 463.182C108.61 462.645 108.527 462.161 108.361 461.73C108.199 461.296 107.952 460.953 107.62 460.701C107.292 460.446 106.88 460.318 106.383 460.318C105.905 460.318 105.504 460.439 105.179 460.681C104.855 460.92 104.609 461.254 104.444 461.685C104.278 462.113 104.195 462.612 104.195 463.182ZM114.675 467.159C113.986 467.159 113.381 466.995 112.861 466.667C112.343 466.339 111.939 465.88 111.647 465.29C111.359 464.7 111.215 464.01 111.215 463.222C111.215 462.426 111.359 461.732 111.647 461.138C111.939 460.545 112.343 460.085 112.861 459.756C113.381 459.428 113.986 459.264 114.675 459.264C115.365 459.264 115.968 459.428 116.485 459.756C117.005 460.085 117.41 460.545 117.698 461.138C117.99 461.732 118.135 462.426 118.135 463.222C118.135 464.01 117.99 464.7 117.698 465.29C117.41 465.88 117.005 466.339 116.485 466.667C115.968 466.995 115.365 467.159 114.675 467.159ZM114.675 466.105C115.199 466.105 115.63 465.971 115.968 465.702C116.306 465.434 116.556 465.081 116.718 464.643C116.881 464.206 116.962 463.732 116.962 463.222C116.962 462.711 116.881 462.236 116.718 461.795C116.556 461.354 116.306 460.998 115.968 460.726C115.63 460.454 115.199 460.318 114.675 460.318C114.151 460.318 113.721 460.454 113.383 460.726C113.044 460.998 112.794 461.354 112.632 461.795C112.469 462.236 112.388 462.711 112.388 463.222C112.388 463.732 112.469 464.206 112.632 464.643C112.794 465.081 113.044 465.434 113.383 465.702C113.721 465.971 114.151 466.105 114.675 466.105ZM119.926 467V459.364H121.06V460.517H121.139C121.279 460.139 121.531 459.833 121.895 459.597C122.26 459.362 122.671 459.244 123.128 459.244C123.214 459.244 123.322 459.246 123.451 459.249C123.581 459.253 123.678 459.258 123.745 459.264V460.457C123.705 460.447 123.614 460.433 123.471 460.413C123.332 460.389 123.184 460.378 123.029 460.378C122.657 460.378 122.326 460.456 122.034 460.612C121.746 460.764 121.517 460.976 121.348 461.248C121.183 461.516 121.1 461.823 121.1 462.168V467H119.926ZM128.935 459.364V460.358H124.978V459.364H128.935ZM126.131 457.534H127.304V464.812C127.304 465.144 127.352 465.393 127.448 465.558C127.548 465.721 127.674 465.83 127.826 465.886C127.982 465.939 128.146 465.966 128.318 465.966C128.448 465.966 128.554 465.959 128.637 465.946C128.719 465.929 128.786 465.916 128.835 465.906L129.074 466.96C128.995 466.99 128.884 467.02 128.741 467.05C128.599 467.083 128.418 467.099 128.199 467.099C127.868 467.099 127.543 467.028 127.225 466.886C126.91 466.743 126.648 466.526 126.439 466.234C126.234 465.943 126.131 465.575 126.131 465.131V457.534Z" fill="#4B4B4B"/>
<defs>
<linearGradient id="paint0_linear_31_1453" x1="16" y1="247.06" x2="61.8997" y2="249.197" gradientUnits="userSpaceOnUse">
<stop stop-color="#BFC3FC"/>
<stop offset="1" stop-color="#A2C3FC"/>
</linearGradient>
<linearGradient id="paint1_linear_31_1453" x1="16" y1="311.06" x2="61.8997" y2="313.197" gradientUnits="userSpaceOnUse">
<stop stop-color="#BFC3FC"/>
<stop offset="1" stop-color="#A2C3FC"/>
</linearGradient>
<linearGradient id="paint2_linear_31_1453" x1="16" y1="375.06" x2="61.8997" y2="377.197" gradientUnits="userSpaceOnUse">
<stop stop-color="#BFC3FC"/>
<stop offset="1" stop-color="#A2C3FC"/>
</linearGradient>
<linearGradient id="paint3_linear_31_1453" x1="16" y1="439.06" x2="61.8997" y2="441.197" gradientUnits="userSpaceOnUse">
<stop stop-color="#BFC3FC"/>
<stop offset="1" stop-color="#A2C3FC"/>
</linearGradient>
</defs>
</svg>
