<svg width="171" height="32" viewBox="0 0 171 32" fill="none" xmlns="http://www.w3.org/2000/svg">
<rect x="0.5" y="0.5" width="170" height="31" rx="15.5" stroke="#B4FFD8"/>
<path d="M73.6103 15.96C73.6103 15.3533 73.7129 14.7607 73.9183 14.182C74.1329 13.594 74.4409 13.062 74.8423 12.586C75.2436 12.1007 75.7383 11.718 76.3263 11.438C76.9143 11.1487 77.5816 11.004 78.3283 11.004C79.2149 11.004 79.9709 11.2093 80.5963 11.62C81.2309 12.0213 81.6976 12.5393 81.9963 13.174L81.2263 13.65C81.0116 13.2113 80.7409 12.866 80.4143 12.614C80.0876 12.3527 79.7376 12.166 79.3643 12.054C79.0003 11.942 78.6363 11.886 78.2723 11.886C77.6749 11.886 77.1476 12.0073 76.6903 12.25C76.2329 12.4833 75.8456 12.8007 75.5283 13.202C75.2203 13.594 74.9869 14.0373 74.8283 14.532C74.6696 15.0173 74.5903 15.512 74.5903 16.016C74.5903 16.5667 74.6836 17.094 74.8703 17.598C75.0569 18.102 75.3183 18.55 75.6543 18.942C75.9903 19.3247 76.3823 19.6327 76.8303 19.866C77.2876 20.09 77.7823 20.202 78.3143 20.202C78.6876 20.202 79.0703 20.1367 79.4623 20.006C79.8543 19.8753 80.2183 19.6747 80.5543 19.404C80.8996 19.1333 81.1749 18.7833 81.3803 18.354L82.1923 18.774C81.9869 19.2687 81.6696 19.6887 81.2403 20.034C80.8109 20.3793 80.3303 20.6407 79.7983 20.818C79.2756 20.9953 78.7623 21.084 78.2583 21.084C77.5769 21.084 76.9516 20.9393 76.3823 20.65C75.8129 20.3513 75.3183 19.9593 74.8983 19.474C74.4876 18.9793 74.1703 18.4287 73.9463 17.822C73.7223 17.206 73.6103 16.5853 73.6103 15.96ZM82.7819 18.9C82.7819 18.4427 82.9126 18.0507 83.1739 17.724C83.4353 17.388 83.7946 17.1313 84.2519 16.954C84.7186 16.7673 85.2553 16.674 85.8619 16.674C86.2166 16.674 86.5853 16.702 86.9679 16.758C87.3506 16.814 87.6913 16.898 87.9899 17.01V16.394C87.9899 15.778 87.8079 15.288 87.4439 14.924C87.0799 14.56 86.5759 14.378 85.9319 14.378C85.5399 14.378 85.1526 14.4527 84.7699 14.602C84.3966 14.742 84.0046 14.952 83.5939 15.232L83.2299 14.56C83.7059 14.2333 84.1726 13.9907 84.6299 13.832C85.0873 13.664 85.5539 13.58 86.0299 13.58C86.9259 13.58 87.6353 13.8367 88.1579 14.35C88.6806 14.8633 88.9419 15.5727 88.9419 16.478V19.852C88.9419 19.9827 88.9699 20.0807 89.0259 20.146C89.0819 20.202 89.1706 20.2347 89.2919 20.244V21C89.1893 21.0093 89.1006 21.0187 89.0259 21.028C88.9513 21.0373 88.8953 21.0373 88.8579 21.028C88.6246 21.0187 88.4473 20.944 88.3259 20.804C88.2046 20.664 88.1393 20.5147 88.1299 20.356L88.1159 19.824C87.7893 20.244 87.3646 20.5707 86.8419 20.804C86.3193 21.028 85.7873 21.14 85.2459 21.14C84.7793 21.14 84.3546 21.042 83.9719 20.846C83.5986 20.6407 83.3046 20.37 83.0899 20.034C82.8846 19.6887 82.7819 19.3107 82.7819 18.9ZM87.6679 19.46C87.7706 19.3293 87.8499 19.2033 87.9059 19.082C87.9619 18.9607 87.9899 18.8533 87.9899 18.76V17.696C87.6726 17.5747 87.3413 17.4813 86.9959 17.416C86.6599 17.3507 86.3193 17.318 85.9739 17.318C85.2926 17.318 84.7419 17.4533 84.3219 17.724C83.9019 17.9947 83.6919 18.3633 83.6919 18.83C83.6919 19.1007 83.7619 19.3573 83.9019 19.6C84.0419 19.8333 84.2473 20.0293 84.5179 20.188C84.7886 20.3373 85.1059 20.412 85.4699 20.412C85.9273 20.412 86.3519 20.3233 86.7439 20.146C87.1453 19.9687 87.4533 19.74 87.6679 19.46ZM90.7408 10.78H91.6928V19.348C91.6928 19.712 91.7582 19.95 91.8888 20.062C92.0195 20.174 92.1782 20.23 92.3648 20.23C92.5328 20.23 92.7008 20.2113 92.8688 20.174C93.0368 20.1367 93.1815 20.0993 93.3028 20.062L93.4708 20.832C93.2935 20.9067 93.0742 20.9673 92.8128 21.014C92.5608 21.0607 92.3415 21.084 92.1548 21.084C91.7255 21.084 91.3802 20.958 91.1188 20.706C90.8668 20.454 90.7408 20.1087 90.7408 19.67V10.78ZM94.2553 10.78H95.2073V19.348C95.2073 19.712 95.2726 19.95 95.4033 20.062C95.5339 20.174 95.6926 20.23 95.8793 20.23C96.0473 20.23 96.2153 20.2113 96.3833 20.174C96.5513 20.1367 96.6959 20.0993 96.8173 20.062L96.9853 20.832C96.8079 20.9067 96.5886 20.9673 96.3273 21.014C96.0753 21.0607 95.8559 21.084 95.6693 21.084C95.2399 21.084 94.8946 20.958 94.6333 20.706C94.3813 20.454 94.2553 20.1087 94.2553 19.67V10.78Z" fill="#474747"/>
</svg>
