<svg width="390" height="98" viewBox="0 0 390 98" fill="none" xmlns="http://www.w3.org/2000/svg">
<g filter="url(#filter0_d_20_180)">
<path d="M0 62C0 50.9543 8.95431 42 20 42H370C381.046 42 390 50.9543 390 62V98H0V62Z" fill="white"/>
</g>
<path d="M359.629 68.5705C358.703 69.1761 357.614 69.5 356.5 69.5C355.005 69.5 353.573 68.9181 352.518 67.8855C351.465 66.8532 350.875 65.4553 350.875 64C350.875 62.9145 351.203 61.8526 351.82 60.9483C352.437 60.044 353.315 59.3376 354.344 58.92C355.373 58.5025 356.506 58.3931 357.599 58.6061C358.692 58.8191 359.695 59.3446 360.481 60.1145C361.267 60.8844 361.801 61.864 362.017 62.929C362.233 63.9938 362.122 65.0977 361.698 66.1014C361.273 67.1052 360.554 67.9649 359.629 68.5705ZM359.204 60.0182C358.403 59.4937 357.462 59.2143 356.5 59.2143C355.21 59.2143 353.971 59.716 353.056 60.6124C352.141 61.509 351.625 62.7274 351.625 64C351.625 64.9489 351.912 65.8755 352.449 66.6628C352.986 67.4499 353.748 68.0618 354.637 68.4228C355.527 68.7837 356.505 68.878 357.449 68.6941C358.392 68.5103 359.261 68.0561 359.943 67.3876C360.626 66.719 361.092 65.8659 361.281 64.9356C361.469 64.0052 361.372 63.0409 361.002 62.1652C360.632 61.2896 360.006 60.5428 359.204 60.0182Z" fill="#4B4B4B" stroke="#4B4B4B"/>
<path d="M347.306 80.2291L347.242 80.7858H347.802H365.197H365.758L365.694 80.2291C365.465 78.2189 364.488 76.3641 362.952 75.0183C361.417 73.6726 359.432 72.9296 357.375 72.9286H357.375H355.625H355.625C353.568 72.9296 351.583 73.6726 350.048 75.0183C348.512 76.3641 347.535 78.2189 347.306 80.2291ZM355.625 72.2144H357.375C359.798 72.2144 362.12 73.1575 363.831 74.8331C365.541 76.5084 366.5 78.7783 366.5 81.1429C366.5 81.2343 366.463 81.324 366.394 81.3918C366.324 81.46 366.228 81.5001 366.125 81.5001H346.875C346.772 81.5001 346.676 81.46 346.606 81.3918C346.537 81.324 346.5 81.2343 346.5 81.1429C346.5 78.7783 347.459 76.5084 349.169 74.8331C350.879 73.1575 353.202 72.2144 355.625 72.2144Z" fill="#4B4B4B" stroke="#4B4B4B"/>
<path d="M134.164 58.9815L134.164 58.9815C134.283 58.8689 134.44 58.8107 134.597 58.8107H145.201C145.358 58.8107 145.514 58.8689 145.634 58.9815M134.164 58.9815L145.634 60.9875L145.291 60.6231L145.634 60.9875M134.164 58.9815C134.043 59.095 133.969 59.256 133.969 59.4309V60.5381C133.969 60.713 134.043 60.8739 134.164 60.9875L134.164 60.9875M134.164 58.9815L134.164 60.9875M145.634 58.9815L145.291 59.3459L145.634 58.9815C145.634 58.9815 145.634 58.9815 145.634 58.9815ZM145.634 58.9815C145.755 59.095 145.829 59.256 145.829 59.4309V60.5381C145.829 60.713 145.755 60.8739 145.634 60.9875M145.634 60.9875C145.514 61.1001 145.358 61.1583 145.201 61.1583H134.597C134.44 61.1583 134.283 61.1001 134.164 60.9875M145.634 60.9875L134.164 60.9875M146.788 59.7747C146.8 59.7731 146.811 59.7721 146.823 59.7719C148.39 59.7733 149.5 60.8155 149.5 61.9112V79.3608C149.5 80.4566 148.389 81.5 146.82 81.5H133.18C131.611 81.5 130.5 80.4566 130.5 79.3608V61.9094C130.5 60.8333 131.569 59.8105 133.095 59.7718L133.527 59.7608L133.579 59.3318C133.605 59.1129 133.717 58.9039 133.903 58.7477C134.09 58.591 134.336 58.5004 134.597 58.5H145.201C145.462 58.5003 145.71 58.5916 145.897 58.7495C146.083 58.9067 146.194 59.117 146.219 59.3369L146.278 59.8495L146.788 59.7747ZM130.895 61.9107V61.9112V79.3608C130.895 79.922 131.202 80.3908 131.619 80.7017C132.037 81.0127 132.59 81.1905 133.18 81.1905H146.819C147.409 81.1905 147.963 81.0121 148.38 80.7009C148.797 80.39 149.104 79.9213 149.104 79.3608L149.105 61.9129C149.105 61.3514 148.798 60.8826 148.38 60.5717C147.963 60.2612 147.411 60.0837 146.823 60.0832C146.812 60.083 146.801 60.0822 146.791 60.0808L146.24 60.006L146.224 60.5618C146.217 60.7943 146.114 61.0221 145.926 61.1944L146.263 61.5633L145.926 61.1944C145.737 61.3676 145.477 61.4693 145.201 61.4696C145.201 61.4696 145.201 61.4696 145.2 61.4696H134.597C134.597 61.4696 134.597 61.4696 134.597 61.4696C134.322 61.4692 134.063 61.3684 133.874 61.1965C133.686 61.0255 133.583 60.7991 133.574 60.5676L133.556 60.0626L133.051 60.086C132.491 60.112 131.969 60.2985 131.576 60.6073C131.182 60.9165 130.896 61.3709 130.895 61.9107Z" stroke="#4B4B4B"/>
<path d="M138.498 63.3691L138.499 63.3691C138.529 63.3691 138.558 63.3747 138.584 63.3849C138.61 63.3951 138.632 63.4093 138.649 63.4254L138.992 63.0608L138.649 63.4254C138.666 63.4413 138.678 63.4586 138.685 63.4752L139.143 63.2734L138.685 63.4752C138.693 63.4918 138.696 63.5083 138.696 63.5242V66.941C138.696 66.9719 138.683 67.0083 138.649 67.0402L138.992 67.4046L138.649 67.0402C138.614 67.0731 138.56 67.0966 138.498 67.0966H134.862C134.799 67.0966 134.746 67.0731 134.71 67.0402L134.37 67.4029L134.71 67.0402C134.676 67.0083 134.664 66.9719 134.664 66.941V63.5245C134.664 63.4937 134.677 63.4574 134.711 63.4255C134.746 63.3926 134.799 63.3691 134.862 63.3691L138.498 63.3691ZM137.801 66.7854H138.301V66.2854V64.1798V63.6798H137.801H135.559H135.059V64.1798V66.2854V66.7854H135.559H137.801Z" stroke="#4B4B4B"/>
<path d="M138.499 73.2297H138.498H134.862C134.831 73.2297 134.802 73.2241 134.776 73.2138L134.595 73.6785L134.776 73.2138C134.75 73.2036 134.728 73.1893 134.71 73.1733C134.693 73.1573 134.682 73.14 134.674 73.1233C134.667 73.1066 134.664 73.09 134.664 73.0741V69.6578C134.664 69.627 134.676 69.5906 134.71 69.5586C134.746 69.5257 134.799 69.5022 134.862 69.5022H138.498C138.56 69.5022 138.614 69.5257 138.649 69.5586C138.683 69.5906 138.696 69.627 138.696 69.6578V73.0741V73.0746C138.696 73.0904 138.693 73.107 138.685 73.1236L139.143 73.3251L138.685 73.1236C138.678 73.1402 138.666 73.1575 138.649 73.1734C138.632 73.1895 138.61 73.2037 138.584 73.2139C138.558 73.2241 138.529 73.2297 138.499 73.2297ZM137.801 72.919H138.301V72.419V70.3134V69.8134H137.801H135.559H135.059V70.3134V72.419V72.919H135.559H137.801Z" stroke="#4B4B4B"/>
<path d="M141.463 65.1068L141.463 65.107H141.477H145.06H145.06V64.6291L145.074 65.1068C145.104 65.1059 145.135 65.1109 145.162 65.1209C145.189 65.1308 145.212 65.1451 145.23 65.1613L145.567 64.7919L145.23 65.1613C145.247 65.1775 145.26 65.1951 145.267 65.2122L145.723 65.0069L145.267 65.2122C145.275 65.2291 145.278 65.2461 145.278 65.2623C145.278 65.2785 145.275 65.2955 145.267 65.3124L145.718 65.5154L145.267 65.3124C145.26 65.3295 145.247 65.3471 145.23 65.3633L145.567 65.7327L145.23 65.3633C145.212 65.3795 145.189 65.3938 145.162 65.4037C145.135 65.4137 145.104 65.4187 145.074 65.4178L145.074 65.4176H145.06H141.477V65.4174L141.463 65.4178C141.433 65.4187 141.403 65.4137 141.375 65.4037C141.348 65.3938 141.325 65.3795 141.308 65.3633C141.29 65.3471 141.278 65.3295 141.27 65.3124C141.262 65.2955 141.259 65.2785 141.259 65.2623C141.259 65.2461 141.262 65.2291 141.27 65.2122C141.278 65.1951 141.29 65.1775 141.308 65.1613C141.325 65.1451 141.348 65.1308 141.375 65.1209C141.403 65.1109 141.433 65.1059 141.463 65.1068Z" stroke="#4B4B4B"/>
<path d="M141.477 71.2103H145.059C145.121 71.2103 145.175 71.2338 145.21 71.2668C145.244 71.2987 145.257 71.3351 145.257 71.3659C145.257 71.3968 145.244 71.4332 145.21 71.4651C145.175 71.4981 145.121 71.5216 145.059 71.5216H141.477C141.414 71.5216 141.36 71.4981 141.325 71.4651C141.291 71.4332 141.279 71.3968 141.279 71.3659C141.279 71.3351 141.291 71.2987 141.325 71.2668C141.36 71.2338 141.414 71.2103 141.477 71.2103Z" stroke="#4B4B4B"/>
<path d="M138.498 75.6355L138.499 75.6355C138.529 75.6355 138.558 75.6411 138.584 75.6513C138.61 75.6615 138.632 75.6757 138.649 75.6917L138.992 75.3272L138.649 75.6917C138.666 75.7077 138.678 75.7249 138.685 75.7416L139.14 75.5409L138.685 75.7416C138.693 75.7581 138.696 75.7747 138.696 75.7905V79.2074C138.696 79.2382 138.683 79.2746 138.649 79.3066C138.614 79.3395 138.56 79.363 138.498 79.363H134.862C134.799 79.363 134.746 79.3395 134.71 79.3066C134.676 79.2746 134.664 79.2382 134.664 79.2074V75.7909C134.664 75.7601 134.677 75.7238 134.711 75.6919C134.746 75.659 134.799 75.6355 134.862 75.6355L138.498 75.6355ZM137.801 79.0512H138.301V78.5512V76.4462V75.9462H137.801H135.559H135.059V76.4462V78.5512V79.0512H135.559H137.801Z" stroke="#4B4B4B"/>
<path d="M141.477 77.3433H145.059C145.121 77.3433 145.175 77.3668 145.21 77.3997C145.244 77.4316 145.257 77.468 145.257 77.4989C145.257 77.5297 145.244 77.5661 145.21 77.5981C145.175 77.631 145.121 77.6545 145.059 77.6545H141.477C141.414 77.6545 141.36 77.631 141.325 77.5981L141.015 77.9287L141.325 77.5981C141.291 77.5661 141.279 77.5297 141.279 77.4989C141.279 77.468 141.291 77.4316 141.325 77.3997C141.36 77.3668 141.414 77.3433 141.477 77.3433Z" stroke="#4B4B4B"/>
<path d="M254.545 82H241.454C240.738 82 240.029 81.8589 239.367 81.5848C238.705 81.3107 238.104 80.9089 237.598 80.4024C237.091 79.8959 236.689 79.2946 236.415 78.6328C236.141 77.971 236 77.2618 236 76.5455V63.4545C236 62.0079 236.575 60.6205 237.598 59.5976C238.62 58.5747 240.008 58 241.454 58H254.545C255.262 58 255.971 58.1411 256.633 58.4152C257.295 58.6893 257.896 59.0911 258.402 59.5976C258.909 60.1041 259.311 60.7054 259.585 61.3672C259.859 62.029 260 62.7382 260 63.4545V76.5455C260 77.2618 259.859 77.971 259.585 78.6328C259.311 79.2946 258.909 79.8959 258.402 80.4024C257.896 80.9089 257.295 81.3107 256.633 81.5848C255.971 81.8589 255.262 82 254.545 82ZM241.454 60.1818C240.587 60.1818 239.754 60.5266 239.14 61.1404C238.527 61.7541 238.182 62.5866 238.182 63.4545V76.5455C238.182 77.4134 238.527 78.2459 239.14 78.8596C239.754 79.4734 240.587 79.8182 241.454 79.8182H254.545C255.413 79.8182 256.246 79.4734 256.86 78.8596C257.473 78.2459 257.818 77.4134 257.818 76.5455V63.4545C257.818 62.5866 257.473 61.7541 256.86 61.1404C256.246 60.5266 255.413 60.1818 254.545 60.1818H241.454Z" fill="#4B4B4B"/>
<path d="M247.909 76.0455C247.791 76.0455 247.668 75.9948 247.57 75.8881L247.202 76.2259L247.57 75.8881C247.471 75.7799 247.409 75.6246 247.409 75.4545V71.0909C247.409 70.9208 247.471 70.7655 247.57 70.6574C247.668 70.5507 247.791 70.5 247.909 70.5C248.027 70.5 248.149 70.5507 248.247 70.6574C248.346 70.7655 248.409 70.9208 248.409 71.0909V75.4545C248.409 75.6246 248.346 75.7799 248.247 75.8881C248.149 75.9948 248.027 76.0455 247.909 76.0455Z" fill="#4B4B4B" stroke="#4B4B4B"/>
<path d="M242.454 76.0454C242.336 76.0454 242.213 75.9948 242.115 75.8881C242.016 75.7799 241.954 75.6246 241.954 75.4545V66.7273C241.954 66.5572 242.016 66.4019 242.115 66.2937C242.213 66.187 242.336 66.1364 242.454 66.1364C242.571 66.1364 242.694 66.187 242.792 66.2937C242.891 66.4019 242.954 66.5572 242.954 66.7273V75.4545C242.954 75.6246 242.891 75.7799 242.792 75.8881C242.694 75.9948 242.571 76.0454 242.454 76.0454Z" fill="#4B4B4B" stroke="#4B4B4B"/>
<path d="M253.364 76.0455C253.246 76.0455 253.123 75.9948 253.025 75.8881L252.657 76.226L253.025 75.8881C252.926 75.78 252.864 75.6247 252.864 75.4546V64.5455C252.864 64.3754 252.926 64.2201 253.025 64.112C253.123 64.0053 253.246 63.9546 253.364 63.9546C253.482 63.9546 253.604 64.0053 253.702 64.112C253.801 64.2201 253.864 64.3754 253.864 64.5455V75.4546C253.864 75.6247 253.801 75.78 253.702 75.8881L254.071 76.226L253.702 75.8881C253.604 75.9948 253.482 76.0455 253.364 76.0455Z" fill="#4B4B4B" stroke="#4B4B4B"/>
<path fill-rule="evenodd" clip-rule="evenodd" d="M39.4072 81H28.6486C27.1503 81 25.7137 80.41 24.6542 79.3586C23.5946 78.3071 23 76.8816 23 75.3948C23 72.7621 23 69.6373 23 67.7257C23 66.3332 23.6541 65.021 24.7683 64.1749C26.6924 62.7152 30.1114 60.1202 32.0378 58.6594C33.1961 57.7802 34.8039 57.7802 35.9622 58.6594C37.891 60.1226 41.3159 62.7211 43.2388 64.1808C44.3483 65.0233 45 66.3308 45 67.7174C45 69.642 45 72.8022 45 75.4502C45 76.9218 44.4114 78.3343 43.3625 79.3751C42.3136 80.4159 40.8902 81 39.4072 81ZM37.8649 79.2299H39.4072C40.4181 79.2299 41.3861 78.8323 42.1008 78.123C42.8155 77.4138 43.2162 76.4533 43.2162 75.4502C43.2162 72.8022 43.2162 69.642 43.2162 67.7174C43.2162 66.8819 42.8238 66.0936 42.1555 65.5862C40.2325 64.1277 36.8077 61.528 34.8788 60.0648C34.3603 59.6718 33.6397 59.6718 33.1212 60.0648C31.1947 61.5269 27.7758 64.1218 25.8517 65.5815C25.1786 66.0925 24.7838 66.8855 24.7838 67.7257C24.7838 69.6373 24.7838 72.7621 24.7838 75.3948C24.7838 76.412 25.1905 77.3879 25.9159 78.1065C26.6401 78.8264 27.6236 79.2299 28.6486 79.2299H30.1351V74.8048C30.1351 73.6636 31.0675 72.7397 32.2162 72.7397C33.252 72.7397 34.748 72.7397 35.7838 72.7397C36.9325 72.7397 37.8649 73.6636 37.8649 74.8048V79.2299ZM36.0811 79.2299V74.8048C36.0811 74.6419 35.9479 74.5097 35.7838 74.5097C34.748 74.5097 33.252 74.5097 32.2162 74.5097C32.0521 74.5097 31.9189 74.6419 31.9189 74.8048V79.2299H36.0811Z" fill="url(#paint0_linear_20_180)"/>
<defs>
<filter id="filter0_d_20_180" x="-38" y="0" width="466" height="132" filterUnits="userSpaceOnUse" color-interpolation-filters="sRGB">
<feFlood flood-opacity="0" result="BackgroundImageFix"/>
<feColorMatrix in="SourceAlpha" type="matrix" values="0 0 0 0 0 0 0 0 0 0 0 0 0 0 0 0 0 0 127 0" result="hardAlpha"/>
<feOffset dy="-4"/>
<feGaussianBlur stdDeviation="19"/>
<feComposite in2="hardAlpha" operator="out"/>
<feColorMatrix type="matrix" values="0 0 0 0 0 0 0 0 0 0 0 0 0 0 0 0 0 0 0.02 0"/>
<feBlend mode="normal" in2="BackgroundImageFix" result="effect1_dropShadow_20_180"/>
<feBlend mode="normal" in="SourceGraphic" in2="effect1_dropShadow_20_180" result="shape"/>
</filter>
<linearGradient id="paint0_linear_20_180" x1="23" y1="58.5542" x2="45.9541" y2="59.5764" gradientUnits="userSpaceOnUse">
<stop stop-color="#BFC3FC"/>
<stop offset="1" stop-color="#A2C3FC"/>
</linearGradient>
</defs>
</svg>
