<svg width="171" height="32" viewBox="0 0 171 32" fill="none" xmlns="http://www.w3.org/2000/svg">
<rect width="171" height="32" rx="16" fill="#B4FFD8"/>
<path d="M60.3833 12.922C60.2433 12.7633 60.08 12.6233 59.8933 12.502C59.7067 12.3713 59.4967 12.2593 59.2633 12.166C59.03 12.0727 58.778 11.998 58.5073 11.942C58.246 11.886 57.966 11.858 57.6673 11.858C56.7993 11.858 56.16 12.026 55.7493 12.362C55.348 12.6887 55.1473 13.1367 55.1473 13.706C55.1473 14.098 55.2407 14.406 55.4273 14.63C55.6233 14.854 55.9267 15.036 56.3373 15.176C56.748 15.316 57.2707 15.4607 57.9053 15.61C58.6147 15.7593 59.226 15.9367 59.7393 16.142C60.2527 16.3473 60.6493 16.6273 60.9293 16.982C61.2093 17.3273 61.3493 17.7987 61.3493 18.396C61.3493 18.8533 61.2607 19.25 61.0833 19.586C60.906 19.922 60.6587 20.202 60.3413 20.426C60.024 20.65 59.646 20.818 59.2073 20.93C58.7687 21.0327 58.288 21.084 57.7653 21.084C57.252 21.084 56.7573 21.0327 56.2813 20.93C55.8147 20.818 55.3713 20.6593 54.9513 20.454C54.5313 20.2393 54.1393 19.9687 53.7753 19.642L54.2653 18.844C54.4427 19.0307 54.6527 19.208 54.8953 19.376C55.1473 19.5347 55.4227 19.6793 55.7213 19.81C56.0293 19.9407 56.356 20.0433 56.7013 20.118C57.056 20.1833 57.42 20.216 57.7933 20.216C58.5867 20.216 59.2027 20.0713 59.6413 19.782C60.0893 19.4927 60.3133 19.0633 60.3133 18.494C60.3133 18.0833 60.2013 17.7567 59.9773 17.514C59.7533 17.262 59.4173 17.0567 58.9693 16.898C58.5213 16.7393 57.9707 16.5853 57.3173 16.436C56.6267 16.2773 56.0433 16.1 55.5673 15.904C55.0913 15.708 54.732 15.4513 54.4893 15.134C54.256 14.8073 54.1393 14.378 54.1393 13.846C54.1393 13.23 54.2887 12.712 54.5873 12.292C54.8953 11.8627 55.3153 11.5407 55.8473 11.326C56.3793 11.102 56.9907 10.99 57.6813 10.99C58.12 10.99 58.526 11.0367 58.8993 11.13C59.282 11.214 59.632 11.34 59.9493 11.508C60.276 11.676 60.5793 11.886 60.8593 12.138L60.3833 12.922ZM65.7312 21.14C65.2086 21.14 64.7232 21.042 64.2752 20.846C63.8272 20.6407 63.4399 20.3653 63.1132 20.02C62.7866 19.6653 62.5299 19.2593 62.3432 18.802C62.1659 18.3447 62.0772 17.8547 62.0772 17.332C62.0772 16.6507 62.2312 16.0253 62.5392 15.456C62.8566 14.8867 63.2906 14.434 63.8412 14.098C64.3919 13.7527 65.0172 13.58 65.7172 13.58C66.4359 13.58 67.0612 13.7527 67.5932 14.098C68.1346 14.4433 68.5592 14.9007 68.8672 15.47C69.1752 16.03 69.3292 16.646 69.3292 17.318C69.3292 17.3927 69.3292 17.4673 69.3292 17.542C69.3292 17.6073 69.3246 17.6587 69.3152 17.696H63.0712C63.1179 18.2187 63.2626 18.6853 63.5052 19.096C63.7572 19.4973 64.0792 19.8193 64.4712 20.062C64.8726 20.2953 65.3066 20.412 65.7732 20.412C66.2492 20.412 66.6972 20.2907 67.1172 20.048C67.5466 19.8053 67.8452 19.488 68.0132 19.096L68.8392 19.32C68.6899 19.6653 68.4612 19.978 68.1532 20.258C67.8452 20.538 67.4812 20.7573 67.0612 20.916C66.6506 21.0653 66.2072 21.14 65.7312 21.14ZM63.0432 17.01H68.4332C68.3959 16.478 68.2512 16.0113 67.9992 15.61C67.7566 15.2087 67.4346 14.896 67.0332 14.672C66.6412 14.4387 66.2072 14.322 65.7312 14.322C65.2552 14.322 64.8212 14.4387 64.4292 14.672C64.0372 14.896 63.7152 15.2133 63.4632 15.624C63.2206 16.0253 63.0806 16.4873 63.0432 17.01ZM76.63 21H75.678V16.926C75.678 16.0673 75.552 15.442 75.3 15.05C75.048 14.6487 74.6514 14.448 74.11 14.448C73.7367 14.448 73.368 14.5413 73.004 14.728C72.64 14.9053 72.318 15.1527 72.038 15.47C71.7674 15.778 71.5714 16.1327 71.45 16.534V21H70.498V13.706H71.366V15.358C71.562 15.0033 71.8187 14.6953 72.136 14.434C72.4534 14.1633 72.8127 13.9533 73.214 13.804C73.6154 13.6547 74.0307 13.58 74.46 13.58C74.8614 13.58 75.202 13.6547 75.482 13.804C75.762 13.9533 75.986 14.168 76.154 14.448C76.322 14.7187 76.4434 15.05 76.518 15.442C76.5927 15.8247 76.63 16.254 76.63 16.73V21ZM77.8702 17.374C77.8702 16.6833 78.0102 16.0533 78.2902 15.484C78.5795 14.9053 78.9762 14.4433 79.4802 14.098C79.9842 13.7527 80.5582 13.58 81.2022 13.58C81.8088 13.58 82.3502 13.7433 82.8262 14.07C83.3115 14.3873 83.6895 14.7747 83.9602 15.232V10.78H84.9122V19.852C84.9122 19.9827 84.9402 20.0807 84.9962 20.146C85.0522 20.202 85.1362 20.2347 85.2482 20.244V21C85.0615 21.028 84.9168 21.0373 84.8142 21.028C84.6182 21.0187 84.4455 20.9393 84.2962 20.79C84.1468 20.6407 84.0722 20.4773 84.0722 20.3V19.586C83.7828 20.062 83.3908 20.44 82.8962 20.72C82.4015 21 81.8882 21.14 81.3562 21.14C80.8522 21.14 80.3855 21.0373 79.9562 20.832C79.5362 20.6267 79.1675 20.3467 78.8502 19.992C78.5422 19.6373 78.2995 19.236 78.1222 18.788C77.9542 18.3307 77.8702 17.8593 77.8702 17.374ZM83.9602 18.494V16.24C83.8388 15.904 83.6428 15.6007 83.3722 15.33C83.1015 15.05 82.7935 14.8307 82.4482 14.672C82.1122 14.504 81.7762 14.42 81.4402 14.42C81.0482 14.42 80.6935 14.504 80.3762 14.672C80.0588 14.8307 79.7835 15.05 79.5502 15.33C79.3262 15.61 79.1535 15.9273 79.0322 16.282C78.9108 16.6367 78.8502 17.0007 78.8502 17.374C78.8502 17.766 78.9155 18.1393 79.0462 18.494C79.1862 18.8487 79.3822 19.166 79.6342 19.446C79.8862 19.7167 80.1755 19.9267 80.5022 20.076C80.8288 20.2253 81.1835 20.3 81.5662 20.3C81.8088 20.3 82.0608 20.2533 82.3222 20.16C82.5835 20.0667 82.8308 19.9407 83.0642 19.782C83.3068 19.614 83.5075 19.418 83.6662 19.194C83.8248 18.97 83.9228 18.7367 83.9602 18.494ZM96.0435 12.922C95.9035 12.7633 95.7402 12.6233 95.5535 12.502C95.3668 12.3713 95.1568 12.2593 94.9235 12.166C94.6902 12.0727 94.4382 11.998 94.1675 11.942C93.9062 11.886 93.6262 11.858 93.3275 11.858C92.4595 11.858 91.8202 12.026 91.4095 12.362C91.0082 12.6887 90.8075 13.1367 90.8075 13.706C90.8075 14.098 90.9008 14.406 91.0875 14.63C91.2835 14.854 91.5868 15.036 91.9975 15.176C92.4082 15.316 92.9308 15.4607 93.5655 15.61C94.2748 15.7593 94.8862 15.9367 95.3995 16.142C95.9128 16.3473 96.3095 16.6273 96.5895 16.982C96.8695 17.3273 97.0095 17.7987 97.0095 18.396C97.0095 18.8533 96.9208 19.25 96.7435 19.586C96.5662 19.922 96.3188 20.202 96.0015 20.426C95.6842 20.65 95.3062 20.818 94.8675 20.93C94.4288 21.0327 93.9482 21.084 93.4255 21.084C92.9122 21.084 92.4175 21.0327 91.9415 20.93C91.4748 20.818 91.0315 20.6593 90.6115 20.454C90.1915 20.2393 89.7995 19.9687 89.4355 19.642L89.9255 18.844C90.1028 19.0307 90.3128 19.208 90.5555 19.376C90.8075 19.5347 91.0828 19.6793 91.3815 19.81C91.6895 19.9407 92.0162 20.0433 92.3615 20.118C92.7162 20.1833 93.0802 20.216 93.4535 20.216C94.2468 20.216 94.8628 20.0713 95.3015 19.782C95.7495 19.4927 95.9735 19.0633 95.9735 18.494C95.9735 18.0833 95.8615 17.7567 95.6375 17.514C95.4135 17.262 95.0775 17.0567 94.6295 16.898C94.1815 16.7393 93.6308 16.5853 92.9775 16.436C92.2868 16.2773 91.7035 16.1 91.2275 15.904C90.7515 15.708 90.3922 15.4513 90.1495 15.134C89.9162 14.8073 89.7995 14.378 89.7995 13.846C89.7995 13.23 89.9488 12.712 90.2475 12.292C90.5555 11.8627 90.9755 11.5407 91.5075 11.326C92.0395 11.102 92.6508 10.99 93.3415 10.99C93.7802 10.99 94.1862 11.0367 94.5595 11.13C94.9422 11.214 95.2922 11.34 95.6095 11.508C95.9362 11.676 96.2395 11.886 96.5195 12.138L96.0435 12.922ZM107.243 21V12.908L103.645 19.194H103.029L99.4174 12.908V21H98.4374V11.06H99.4454L103.323 17.864L107.229 11.06H108.223V21H107.243ZM116.225 12.922C116.085 12.7633 115.921 12.6233 115.735 12.502C115.548 12.3713 115.338 12.2593 115.105 12.166C114.871 12.0727 114.619 11.998 114.349 11.942C114.087 11.886 113.807 11.858 113.509 11.858C112.641 11.858 112.001 12.026 111.591 12.362C111.189 12.6887 110.989 13.1367 110.989 13.706C110.989 14.098 111.082 14.406 111.269 14.63C111.465 14.854 111.768 15.036 112.179 15.176C112.589 15.316 113.112 15.4607 113.747 15.61C114.456 15.7593 115.067 15.9367 115.581 16.142C116.094 16.3473 116.491 16.6273 116.771 16.982C117.051 17.3273 117.191 17.7987 117.191 18.396C117.191 18.8533 117.102 19.25 116.925 19.586C116.747 19.922 116.5 20.202 116.183 20.426C115.865 20.65 115.487 20.818 115.049 20.93C114.61 21.0327 114.129 21.084 113.607 21.084C113.093 21.084 112.599 21.0327 112.123 20.93C111.656 20.818 111.213 20.6593 110.793 20.454C110.373 20.2393 109.981 19.9687 109.617 19.642L110.107 18.844C110.284 19.0307 110.494 19.208 110.737 19.376C110.989 19.5347 111.264 19.6793 111.563 19.81C111.871 19.9407 112.197 20.0433 112.543 20.118C112.897 20.1833 113.261 20.216 113.635 20.216C114.428 20.216 115.044 20.0713 115.483 19.782C115.931 19.4927 116.155 19.0633 116.155 18.494C116.155 18.0833 116.043 17.7567 115.819 17.514C115.595 17.262 115.259 17.0567 114.811 16.898C114.363 16.7393 113.812 16.5853 113.159 16.436C112.468 16.2773 111.885 16.1 111.409 15.904C110.933 15.708 110.573 15.4513 110.331 15.134C110.097 14.8073 109.981 14.378 109.981 13.846C109.981 13.23 110.13 12.712 110.429 12.292C110.737 11.8627 111.157 11.5407 111.689 11.326C112.221 11.102 112.832 10.99 113.523 10.99C113.961 10.99 114.367 11.0367 114.741 11.13C115.123 11.214 115.473 11.34 115.791 11.508C116.117 11.676 116.421 11.886 116.701 12.138L116.225 12.922Z" fill="#474747"/>
</svg>
