<svg width="114" height="44" viewBox="0 0 114 44" fill="none" xmlns="http://www.w3.org/2000/svg">
<rect opacity="0.1" width="44" height="44" rx="10" fill="url(#paint0_linear_44_547)"/>
<path d="M33.9749 14.9442C33.8995 13.2944 32.6178 12 31.0094 12H12.9906C11.3571 12 10 13.3959 10 15.0457V24.8173C10 26.4162 11.2817 27.7868 12.8398 27.8629V30.4264C12.8398 31.0355 13.2168 31.6193 13.7948 31.8731C13.9707 31.9492 14.1969 32 14.3979 32C14.8251 32 15.2021 31.8477 15.5037 31.5685L19.2482 27.8629H31.0094C32.6429 27.8629 34 26.467 34 24.8173L33.9749 14.9442ZM32.7183 24.8173C32.7183 25.7817 31.9141 26.5939 30.9843 26.5939H18.7204L14.6241 30.6548C14.599 30.6802 14.5487 30.731 14.423 30.731C14.3728 30.731 14.3476 30.731 14.3476 30.731L14.3225 30.7056C14.1969 30.6548 14.1215 30.5533 14.1215 30.4264V26.5939H13.0157C12.0859 26.5939 11.2817 25.7563 11.2817 24.8173V15.0457C11.2817 14.0812 12.0859 13.269 13.0157 13.269H31.0346C31.9644 13.269 32.7183 14.0305 32.7435 14.9695V24.8173H32.7183Z" fill="#4B4B4B"/>
<path d="M19.8514 15.9849H14.3729C14.021 15.9849 13.7446 16.2641 13.7446 16.6194C13.7446 16.9747 14.021 17.2539 14.3729 17.2539H19.8514C20.2032 17.2539 20.4797 16.9747 20.4797 16.6194C20.4797 16.2641 20.2032 15.9849 19.8514 15.9849Z" fill="#4B4B4B"/>
<path d="M20.731 18.802H14.3729C14.021 18.802 13.7446 19.0812 13.7446 19.4365C13.7446 19.7918 14.021 20.071 14.3729 20.071H20.731C21.0828 20.071 21.3593 19.7918 21.3593 19.4365C21.3593 19.0812 21.0828 18.802 20.731 18.802Z" fill="#4B4B4B"/>
<path d="M14.3729 22.9897H21.6608C22.0127 22.9897 22.2891 22.7106 22.2891 22.3552C22.2891 21.9999 22.0127 21.7207 21.6608 21.7207H14.3729C14.021 21.7207 13.7446 21.9999 13.7446 22.3552C13.7446 22.7106 14.021 22.9897 14.3729 22.9897Z" fill="#4B4B4B"/>
<path d="M27.5665 21.6447H27.466C27.1393 21.6447 26.888 21.9238 26.888 22.2284V22.4315C26.888 22.7614 27.1644 23.0152 27.466 23.0152H27.5665C27.8932 23.0152 28.1445 22.7614 28.1445 22.4315V22.2284C28.1445 21.8985 27.8681 21.6447 27.5665 21.6447Z" fill="#4B4B4B"/>
<path d="M28.622 15.6042C28.3204 15.4773 27.9686 15.4011 27.5916 15.4011C27.089 15.4011 26.6618 15.5026 26.2848 15.7311C25.9832 15.9087 25.7319 16.1372 25.5309 16.4671C25.4806 16.5686 25.4304 16.6702 25.3801 16.7717C25.2042 17.127 25.4555 17.5331 25.8576 17.5585C26.0838 17.5585 26.3099 17.4316 26.4105 17.2032C26.4356 17.1524 26.4607 17.0763 26.511 17.0255C26.712 16.6955 27.0639 16.5179 27.5665 16.5179C27.9937 16.5179 28.2702 16.6194 28.4712 16.8478C28.5969 17.0001 28.6471 17.1524 28.6471 17.3301C28.6471 17.5077 28.5717 17.66 28.4461 17.8123C28.2953 17.9646 28.1445 18.1169 27.9435 18.2438C27.6419 18.4468 27.3654 18.726 27.1895 19.0559C27.0387 19.3605 26.9885 19.7412 26.9634 20.0966C26.9382 20.4265 27.1895 20.7057 27.5162 20.7057H27.5665C27.8681 20.7057 28.1194 20.4773 28.1948 20.2235C28.2199 19.9443 28.245 19.6143 28.3456 19.4874C28.4712 19.3098 28.622 19.2082 28.7979 19.0813C28.9738 18.929 29.1497 18.8021 29.3005 18.6245C29.6021 18.2945 29.8031 17.8377 29.8031 17.3808C29.8031 16.924 29.6524 16.4671 29.3257 16.1118C29.1246 15.8834 28.8984 15.7057 28.622 15.6042Z" fill="#4B4B4B"/>
<path d="M67.1752 21.3636C67.1155 20.8598 66.8736 20.4688 66.4493 20.1903C66.0251 19.9119 65.5047 19.7727 64.8882 19.7727C64.4375 19.7727 64.0431 19.8456 63.705 19.9915C63.3702 20.1373 63.1084 20.3378 62.9195 20.593C62.7339 20.8482 62.6411 21.1383 62.6411 21.4631C62.6411 21.7348 62.7057 21.9685 62.835 22.1641C62.9675 22.3563 63.1366 22.517 63.3421 22.6463C63.5476 22.7723 63.763 22.8767 63.9884 22.9595C64.2137 23.0391 64.4209 23.1037 64.6098 23.1534L65.6439 23.4318C65.9091 23.5014 66.204 23.5975 66.5289 23.7202C66.857 23.8428 67.1702 24.0102 67.4685 24.2223C67.7701 24.4311 68.0187 24.6996 68.2142 25.0277C68.4098 25.3558 68.5075 25.7585 68.5075 26.2358C68.5075 26.786 68.3634 27.2831 68.075 27.7273C67.79 28.1714 67.3724 28.5244 66.8222 28.7862C66.2753 29.0481 65.6108 29.179 64.8286 29.179C64.0994 29.179 63.468 29.0613 62.9344 28.826C62.4041 28.5907 61.9865 28.2625 61.6816 27.8416C61.3799 27.4207 61.2093 26.9318 61.1695 26.375H62.4422C62.4753 26.7595 62.6046 27.0777 62.83 27.3295C63.0587 27.5781 63.347 27.7637 63.695 27.8864C64.0464 28.0057 64.4242 28.0653 64.8286 28.0653C65.2992 28.0653 65.7218 27.9891 66.0963 27.8366C66.4709 27.6809 66.7675 27.4654 66.9862 27.1903C67.205 26.9119 67.3144 26.5871 67.3144 26.2159C67.3144 25.8778 67.2199 25.6027 67.031 25.3906C66.8421 25.1785 66.5935 25.0062 66.2852 24.8736C65.977 24.741 65.6439 24.625 65.286 24.5256L64.0331 24.1676C63.2377 23.9389 62.6079 23.6125 62.1439 23.1882C61.6799 22.764 61.4479 22.2088 61.4479 21.5227C61.4479 20.9527 61.602 20.4555 61.9102 20.0312C62.2218 19.6037 62.6394 19.2723 63.1631 19.0369C63.6901 18.7983 64.2784 18.679 64.928 18.679C65.5843 18.679 66.1676 18.7966 66.678 19.032C67.1884 19.264 67.5928 19.5821 67.8911 19.9865C68.1927 20.3909 68.3518 20.8499 68.3683 21.3636H67.1752ZM75.1881 25.8778V21.3636H76.3614V29H75.1881V27.7074H75.1086C74.9296 28.0952 74.6512 28.425 74.2733 28.6967C73.8955 28.9652 73.4182 29.0994 72.8415 29.0994C72.3643 29.0994 71.94 28.995 71.5688 28.7862C71.1976 28.5741 70.9059 28.2559 70.6938 27.8317C70.4817 27.4041 70.3756 26.8655 70.3756 26.2159V21.3636H71.5489V26.1364C71.5489 26.6932 71.7047 27.1373 72.0162 27.4688C72.3311 27.8002 72.7322 27.9659 73.2194 27.9659C73.511 27.9659 73.8077 27.8913 74.1093 27.7422C74.4142 27.593 74.6694 27.3643 74.8749 27.0561C75.0837 26.7479 75.1881 26.3551 75.1881 25.8778ZM78.5104 31.8636V21.3636H79.6439V22.5767H79.7831C79.8693 22.4441 79.9886 22.2751 80.1411 22.0696C80.2968 21.8608 80.5189 21.6752 80.8073 21.5128C81.0989 21.3471 81.4933 21.2642 81.9905 21.2642C82.6335 21.2642 83.2003 21.425 83.6908 21.7464C84.1813 22.0679 84.5641 22.5237 84.8392 23.1136C85.1143 23.7036 85.2519 24.3996 85.2519 25.2017C85.2519 26.0104 85.1143 26.7114 84.8392 27.3047C84.5641 27.8946 84.183 28.352 83.6958 28.6768C83.2085 28.9983 82.6468 29.1591 82.0104 29.1591C81.5199 29.1591 81.1271 29.0779 80.8321 28.9155C80.5371 28.7498 80.3101 28.5625 80.151 28.3537C79.9919 28.1416 79.8693 27.9659 79.7831 27.8267H79.6837V31.8636H78.5104ZM79.6638 25.1818C79.6638 25.7585 79.7483 26.2673 79.9173 26.7081C80.0864 27.1456 80.3333 27.4886 80.6581 27.7372C80.9829 27.9825 81.3807 28.1051 81.8513 28.1051C82.3418 28.1051 82.7512 27.9759 83.0793 27.7173C83.4107 27.4555 83.6593 27.1042 83.825 26.6634C83.9941 26.2192 84.0786 25.7254 84.0786 25.1818C84.0786 24.6449 83.9957 24.161 83.83 23.7301C83.6676 23.2959 83.4207 22.9529 83.0892 22.701C82.7611 22.4458 82.3485 22.3182 81.8513 22.3182C81.374 22.3182 80.973 22.4392 80.6482 22.6811C80.3234 22.9197 80.0781 23.2545 79.9124 23.6854C79.7467 24.1129 79.6638 24.6117 79.6638 25.1818ZM87.0416 31.8636V21.3636H88.1752V22.5767H88.3144C88.4005 22.4441 88.5199 22.2751 88.6723 22.0696C88.8281 21.8608 89.0502 21.6752 89.3385 21.5128C89.6302 21.3471 90.0246 21.2642 90.5218 21.2642C91.1647 21.2642 91.7315 21.425 92.222 21.7464C92.7126 22.0679 93.0954 22.5237 93.3705 23.1136C93.6456 23.7036 93.7831 24.3996 93.7831 25.2017C93.7831 26.0104 93.6456 26.7114 93.3705 27.3047C93.0954 27.8946 92.7142 28.352 92.227 28.6768C91.7398 28.9983 91.178 29.1591 90.5416 29.1591C90.0511 29.1591 89.6584 29.0779 89.3634 28.9155C89.0684 28.7498 88.8414 28.5625 88.6823 28.3537C88.5232 28.1416 88.4005 27.9659 88.3144 27.8267H88.2149V31.8636H87.0416ZM88.195 25.1818C88.195 25.7585 88.2796 26.2673 88.4486 26.7081C88.6176 27.1456 88.8646 27.4886 89.1894 27.7372C89.5142 27.9825 89.9119 28.1051 90.3825 28.1051C90.8731 28.1051 91.2824 27.9759 91.6105 27.7173C91.942 27.4555 92.1905 27.1042 92.3563 26.6634C92.5253 26.2192 92.6098 25.7254 92.6098 25.1818C92.6098 24.6449 92.527 24.161 92.3612 23.7301C92.1988 23.2959 91.9519 22.9529 91.6205 22.701C91.2923 22.4458 90.8797 22.3182 90.3825 22.3182C89.9053 22.3182 89.5042 22.4392 89.1794 22.6811C88.8546 22.9197 88.6093 23.2545 88.4436 23.6854C88.2779 24.1129 88.195 24.6117 88.195 25.1818ZM98.6752 29.1591C97.9858 29.1591 97.3809 28.995 96.8605 28.6669C96.3435 28.3388 95.9391 27.8797 95.6475 27.2898C95.3591 26.6998 95.2149 26.0104 95.2149 25.2216C95.2149 24.4261 95.3591 23.7318 95.6475 23.1385C95.9391 22.5452 96.3435 22.0845 96.8605 21.7564C97.3809 21.4283 97.9858 21.2642 98.6752 21.2642C99.3646 21.2642 99.9678 21.4283 100.485 21.7564C101.005 22.0845 101.41 22.5452 101.698 23.1385C101.99 23.7318 102.135 24.4261 102.135 25.2216C102.135 26.0104 101.99 26.6998 101.698 27.2898C101.41 27.8797 101.005 28.3388 100.485 28.6669C99.9678 28.995 99.3646 29.1591 98.6752 29.1591ZM98.6752 28.1051C99.1988 28.1051 99.6297 27.9709 99.9678 27.7024C100.306 27.4339 100.556 27.081 100.718 26.6435C100.881 26.206 100.962 25.732 100.962 25.2216C100.962 24.7112 100.881 24.2356 100.718 23.7947C100.556 23.3539 100.306 22.9976 99.9678 22.7259C99.6297 22.4541 99.1988 22.3182 98.6752 22.3182C98.1515 22.3182 97.7206 22.4541 97.3825 22.7259C97.0445 22.9976 96.7942 23.3539 96.6318 23.7947C96.4694 24.2356 96.3882 24.7112 96.3882 25.2216C96.3882 25.732 96.4694 26.206 96.6318 26.6435C96.7942 27.081 97.0445 27.4339 97.3825 27.7024C97.7206 27.9709 98.1515 28.1051 98.6752 28.1051ZM103.926 29V21.3636H105.06V22.517H105.139C105.279 22.1392 105.531 21.8326 105.895 21.5973C106.26 21.362 106.671 21.2443 107.128 21.2443C107.214 21.2443 107.322 21.246 107.451 21.2493C107.581 21.2526 107.678 21.2576 107.745 21.2642V22.4574C107.705 22.4474 107.614 22.4325 107.471 22.4126C107.332 22.3894 107.184 22.3778 107.029 22.3778C106.657 22.3778 106.326 22.4557 106.034 22.6115C105.746 22.764 105.517 22.9761 105.348 23.2479C105.183 23.5163 105.1 23.8229 105.1 24.1676V29H103.926ZM112.935 21.3636V22.358H108.978V21.3636H112.935ZM110.131 19.5341H111.304V26.8125C111.304 27.1439 111.352 27.3925 111.448 27.5582C111.548 27.7206 111.674 27.83 111.826 27.8864C111.982 27.9394 112.146 27.9659 112.318 27.9659C112.448 27.9659 112.554 27.9593 112.637 27.946C112.719 27.9295 112.786 27.9162 112.835 27.9062L113.074 28.9602C112.995 28.9901 112.884 29.0199 112.741 29.0497C112.599 29.0829 112.418 29.0994 112.199 29.0994C111.868 29.0994 111.543 29.0282 111.225 28.8857C110.91 28.7431 110.648 28.526 110.439 28.2344C110.234 27.9427 110.131 27.5748 110.131 27.1307V19.5341Z" fill="#4B4B4B"/>
<defs>
<linearGradient id="paint0_linear_44_547" x1="-5.35724e-08" y1="1.06024" x2="45.8997" y2="3.19724" gradientUnits="userSpaceOnUse">
<stop stop-color="#BFC3FC"/>
<stop offset="1" stop-color="#A2C3FC"/>
</linearGradient>
</defs>
</svg>
