<svg width="146" height="44" viewBox="0 0 146 44" fill="none" xmlns="http://www.w3.org/2000/svg">
<rect opacity="0.1" width="44" height="44" rx="10" fill="url(#paint0_linear_44_516)"/>
<path d="M27.7778 29.5555H16.2222V30.4444H27.7778V29.5555Z" fill="#4B4B4B"/>
<path d="M22.4444 16.2222H16.2222V17.1111H22.4444V16.2222Z" fill="#4B4B4B"/>
<path d="M27.7778 26.8889H16.2222V27.7778H27.7778V26.8889Z" fill="#4B4B4B"/>
<path d="M22.4444 13.5555H16.2222V14.4444H22.4444V13.5555Z" fill="#4B4B4B"/>
<path d="M25.1111 10H24.6667H15.3333C14.3555 10 13.5555 10.8 13.5555 11.7778V32.2222C13.5555 33.2 14.3555 34 15.3333 34H28.6667C29.6444 34 30.4444 33.2 30.4444 32.2222V16.6667V16.2223L25.1111 10ZM25.1111 11.3334L29.2889 16.2223H26C25.5556 16.2223 25.1111 15.7778 25.1111 15.3334V11.3334ZM29.5555 32.2222C29.5555 32.6666 29.2 33.1111 28.6667 33.1111H15.3333C14.8889 33.1111 14.4444 32.7556 14.4444 32.2222V11.7778C14.4444 11.3334 14.8 10.8889 15.3333 10.8889H24.2222V15.3333C24.2222 16.3111 25.0222 17.1111 26 17.1111H29.5555V32.2222Z" fill="#4B4B4B"/>
<path d="M27.7778 24.2222H16.2222V25.1111H27.7778V24.2222Z" fill="#4B4B4B"/>
<path d="M27.7778 18.8889H16.2222V19.7778H27.7778V18.8889Z" fill="#4B4B4B"/>
<path d="M27.7778 21.5555H16.2222V22.4444H27.7778V21.5555Z" fill="#4B4B4B"/>
<path d="M60.8832 19.9119V18.8182H68.5195V19.9119H65.3178V29H64.0849V19.9119H60.8832ZM72.3576 29.1591C71.6218 29.1591 70.9871 28.9967 70.4535 28.6719C69.9232 28.3438 69.5138 27.8864 69.2255 27.2997C68.9405 26.7098 68.7979 26.0237 68.7979 25.2415C68.7979 24.4593 68.9405 23.7699 69.2255 23.1733C69.5138 22.5734 69.9149 22.1061 70.4286 21.7713C70.9457 21.4332 71.5489 21.2642 72.2383 21.2642C72.636 21.2642 73.0288 21.3305 73.4165 21.4631C73.8043 21.5956 74.1573 21.8111 74.4755 22.1094C74.7937 22.4044 75.0472 22.7955 75.2362 23.2827C75.4251 23.7699 75.5195 24.3698 75.5195 25.0824V25.5795H69.6332V24.5653H74.3263C74.3263 24.1345 74.2402 23.75 74.0678 23.4119C73.8988 23.0739 73.6568 22.8071 73.342 22.6115C73.0304 22.416 72.6625 22.3182 72.2383 22.3182C71.771 22.3182 71.3666 22.4342 71.0252 22.6662C70.6871 22.8949 70.427 23.1932 70.2447 23.5611C70.0624 23.929 69.9712 24.3234 69.9712 24.7443V25.4205C69.9712 25.9972 70.0707 26.486 70.2695 26.8871C70.4717 27.2848 70.7518 27.5881 71.1097 27.7969C71.4677 28.0024 71.8836 28.1051 72.3576 28.1051C72.6658 28.1051 72.9442 28.062 73.1928 27.9759C73.4447 27.8864 73.6618 27.7538 73.8441 27.5781C74.0264 27.3991 74.1673 27.1771 74.2667 26.9119L75.4002 27.2301C75.2809 27.6146 75.0804 27.9527 74.7987 28.2443C74.5169 28.5327 74.1689 28.758 73.7546 28.9205C73.3403 29.0795 72.8746 29.1591 72.3576 29.1591ZM77.3043 29V21.3636H78.4379V22.517H78.5174C78.6566 22.1392 78.9085 21.8326 79.2731 21.5973C79.6377 21.362 80.0487 21.2443 80.506 21.2443C80.5922 21.2443 80.6999 21.246 80.8292 21.2493C80.9585 21.2526 81.0562 21.2576 81.1225 21.2642V22.4574C81.0827 22.4474 80.9916 22.4325 80.8491 22.4126C80.7099 22.3894 80.5624 22.3778 80.4066 22.3778C80.0354 22.3778 79.704 22.4557 79.4123 22.6115C79.1239 22.764 78.8952 22.9761 78.7262 23.2479C78.5605 23.5163 78.4776 23.8229 78.4776 24.1676V29H77.3043ZM82.5133 29V21.3636H83.6468V22.5568H83.7463C83.9054 22.1491 84.1622 21.8326 84.5169 21.6072C84.8715 21.3786 85.2974 21.2642 85.7946 21.2642C86.2984 21.2642 86.7176 21.3786 87.0524 21.6072C87.3904 21.8326 87.6539 22.1491 87.8429 22.5568H87.9224C88.118 22.1624 88.4113 21.8492 88.8024 21.6172C89.1935 21.3819 89.6625 21.2642 90.2093 21.2642C90.8921 21.2642 91.4506 21.478 91.8848 21.9055C92.319 22.3298 92.536 22.991 92.536 23.8892V29H91.3627V23.8892C91.3627 23.3258 91.2086 22.9231 90.9004 22.6811C90.5922 22.4392 90.2292 22.3182 89.8116 22.3182C89.2747 22.3182 88.8587 22.4806 88.5637 22.8054C88.2688 23.1269 88.1213 23.5346 88.1213 24.0284V29H86.9281V23.7699C86.9281 23.3357 86.7872 22.986 86.5055 22.7209C86.2238 22.4524 85.8609 22.3182 85.4167 22.3182C85.1118 22.3182 84.8268 22.3994 84.5616 22.5618C84.2998 22.7242 84.0877 22.9496 83.9252 23.2379C83.7662 23.523 83.6866 23.8527 83.6866 24.2273V29H82.5133ZM100.09 23.0739L99.0364 23.3722C98.9701 23.1965 98.8723 23.0258 98.7431 22.8601C98.6171 22.6911 98.4448 22.5518 98.226 22.4425C98.0073 22.3331 97.7272 22.2784 97.3858 22.2784C96.9185 22.2784 96.5291 22.3861 96.2175 22.6016C95.9093 22.8137 95.7551 23.0838 95.7551 23.4119C95.7551 23.7036 95.8612 23.9339 96.0733 24.103C96.2855 24.272 96.6169 24.4129 97.0676 24.5256L98.2012 24.804C98.8839 24.9697 99.3927 25.2232 99.7275 25.5646C100.062 25.9027 100.23 26.3385 100.23 26.8722C100.23 27.3097 100.104 27.7008 99.8517 28.0455C99.6032 28.3902 99.2551 28.6619 98.8077 28.8608C98.3603 29.0597 97.8399 29.1591 97.2466 29.1591C96.4677 29.1591 95.8231 28.9901 95.3127 28.652C94.8023 28.3139 94.4791 27.8201 94.3432 27.1705L95.4569 26.892C95.5629 27.303 95.7634 27.6113 96.0584 27.8168C96.3567 28.0223 96.7462 28.125 97.2267 28.125C97.7736 28.125 98.2078 28.009 98.5293 27.777C98.8541 27.5417 99.0165 27.2599 99.0165 26.9318C99.0165 26.6667 98.9237 26.4446 98.7381 26.2656C98.5525 26.0833 98.2675 25.9474 97.883 25.858L96.6103 25.5597C95.9109 25.3939 95.3972 25.1371 95.0691 24.7891C94.7443 24.4377 94.5819 23.9986 94.5819 23.4716C94.5819 23.0407 94.7028 22.6596 94.9448 22.3281C95.19 21.9967 95.5231 21.7365 95.9441 21.5476C96.3683 21.3587 96.8489 21.2642 97.3858 21.2642C98.1415 21.2642 98.7348 21.4299 99.1657 21.7614C99.5998 22.0928 99.9081 22.5303 100.09 23.0739ZM109.036 29.1591C108.346 29.1591 107.741 28.995 107.221 28.6669C106.704 28.3388 106.299 27.8797 106.008 27.2898C105.719 26.6998 105.575 26.0104 105.575 25.2216C105.575 24.4261 105.719 23.7318 106.008 23.1385C106.299 22.5452 106.704 22.0845 107.221 21.7564C107.741 21.4283 108.346 21.2642 109.036 21.2642C109.725 21.2642 110.328 21.4283 110.845 21.7564C111.366 22.0845 111.77 22.5452 112.058 23.1385C112.35 23.7318 112.496 24.4261 112.496 25.2216C112.496 26.0104 112.35 26.6998 112.058 27.2898C111.77 27.8797 111.366 28.3388 110.845 28.6669C110.328 28.995 109.725 29.1591 109.036 29.1591ZM109.036 28.1051C109.559 28.1051 109.99 27.9709 110.328 27.7024C110.666 27.4339 110.916 27.081 111.079 26.6435C111.241 26.206 111.322 25.732 111.322 25.2216C111.322 24.7112 111.241 24.2356 111.079 23.7947C110.916 23.3539 110.666 22.9976 110.328 22.7259C109.99 22.4541 109.559 22.3182 109.036 22.3182C108.512 22.3182 108.081 22.4541 107.743 22.7259C107.405 22.9976 107.155 23.3539 106.992 23.7947C106.83 24.2356 106.749 24.7112 106.749 25.2216C106.749 25.732 106.83 26.206 106.992 26.6435C107.155 27.081 107.405 27.4339 107.743 27.7024C108.081 27.9709 108.512 28.1051 109.036 28.1051ZM117.687 21.3636V22.358H113.571V21.3636H117.687ZM114.804 29V20.3097C114.804 19.8722 114.907 19.5076 115.112 19.2159C115.318 18.9242 115.584 18.7055 115.912 18.5597C116.241 18.4138 116.587 18.3409 116.952 18.3409C117.24 18.3409 117.475 18.3641 117.657 18.4105C117.84 18.4569 117.976 18.5 118.065 18.5398L117.727 19.554C117.667 19.5341 117.585 19.5092 117.479 19.4794C117.376 19.4496 117.24 19.4347 117.071 19.4347C116.683 19.4347 116.403 19.5324 116.231 19.728C116.062 19.9235 115.977 20.2102 115.977 20.5881V29H114.804ZM128.082 25.8778V21.3636H129.255V29H128.082V27.7074H128.002C127.823 28.0952 127.545 28.425 127.167 28.6967C126.789 28.9652 126.312 29.0994 125.735 29.0994C125.258 29.0994 124.834 28.995 124.462 28.7862C124.091 28.5741 123.799 28.2559 123.587 27.8317C123.375 27.4041 123.269 26.8655 123.269 26.2159V21.3636H124.442V26.1364C124.442 26.6932 124.598 27.1373 124.91 27.4688C125.225 27.8002 125.626 27.9659 126.113 27.9659C126.405 27.9659 126.701 27.8913 127.003 27.7422C127.308 27.593 127.563 27.3643 127.768 27.0561C127.977 26.7479 128.082 26.3551 128.082 25.8778ZM136.813 23.0739L135.759 23.3722C135.693 23.1965 135.595 23.0258 135.466 22.8601C135.34 22.6911 135.167 22.5518 134.949 22.4425C134.73 22.3331 134.45 22.2784 134.108 22.2784C133.641 22.2784 133.252 22.3861 132.94 22.6016C132.632 22.8137 132.478 23.0838 132.478 23.4119C132.478 23.7036 132.584 23.9339 132.796 24.103C133.008 24.272 133.34 24.4129 133.79 24.5256L134.924 24.804C135.607 24.9697 136.115 25.2232 136.45 25.5646C136.785 25.9027 136.952 26.3385 136.952 26.8722C136.952 27.3097 136.826 27.7008 136.574 28.0455C136.326 28.3902 135.978 28.6619 135.53 28.8608C135.083 29.0597 134.563 29.1591 133.969 29.1591C133.19 29.1591 132.546 28.9901 132.035 28.652C131.525 28.3139 131.202 27.8201 131.066 27.1705L132.18 26.892C132.286 27.303 132.486 27.6113 132.781 27.8168C133.079 28.0223 133.469 28.125 133.949 28.125C134.496 28.125 134.93 28.009 135.252 27.777C135.577 27.5417 135.739 27.2599 135.739 26.9318C135.739 26.6667 135.646 26.4446 135.461 26.2656C135.275 26.0833 134.99 25.9474 134.606 25.858L133.333 25.5597C132.634 25.3939 132.12 25.1371 131.792 24.7891C131.467 24.4377 131.305 23.9986 131.305 23.4716C131.305 23.0407 131.425 22.6596 131.667 22.3281C131.913 21.9967 132.246 21.7365 132.667 21.5476C133.091 21.3587 133.572 21.2642 134.108 21.2642C134.864 21.2642 135.457 21.4299 135.888 21.7614C136.323 22.0928 136.631 22.5303 136.813 23.0739ZM141.92 29.1591C141.184 29.1591 140.55 28.9967 140.016 28.6719C139.486 28.3438 139.076 27.8864 138.788 27.2997C138.503 26.7098 138.36 26.0237 138.36 25.2415C138.36 24.4593 138.503 23.7699 138.788 23.1733C139.076 22.5734 139.477 22.1061 139.991 21.7713C140.508 21.4332 141.111 21.2642 141.801 21.2642C142.199 21.2642 142.591 21.3305 142.979 21.4631C143.367 21.5956 143.72 21.8111 144.038 22.1094C144.356 22.4044 144.61 22.7955 144.799 23.2827C144.988 23.7699 145.082 24.3698 145.082 25.0824V25.5795H139.196V24.5653H143.889C143.889 24.1345 143.803 23.75 143.63 23.4119C143.461 23.0739 143.219 22.8071 142.904 22.6115C142.593 22.416 142.225 22.3182 141.801 22.3182C141.333 22.3182 140.929 22.4342 140.588 22.6662C140.25 22.8949 139.989 23.1932 139.807 23.5611C139.625 23.929 139.534 24.3234 139.534 24.7443V25.4205C139.534 25.9972 139.633 26.486 139.832 26.8871C140.034 27.2848 140.314 27.5881 140.672 27.7969C141.03 28.0024 141.446 28.1051 141.92 28.1051C142.228 28.1051 142.507 28.062 142.755 27.9759C143.007 27.8864 143.224 27.7538 143.407 27.5781C143.589 27.3991 143.73 27.1771 143.829 26.9119L144.963 27.2301C144.843 27.6146 144.643 27.9527 144.361 28.2443C144.079 28.5327 143.731 28.758 143.317 28.9205C142.903 29.0795 142.437 29.1591 141.92 29.1591Z" fill="#4B4B4B"/>
<defs>
<linearGradient id="paint0_linear_44_516" x1="-5.35724e-08" y1="1.06024" x2="45.8997" y2="3.19724" gradientUnits="userSpaceOnUse">
<stop stop-color="#BFC3FC"/>
<stop offset="1" stop-color="#A2C3FC"/>
</linearGradient>
</defs>
</svg>
