<svg width="358" height="44" viewBox="0 0 358 44" fill="none" xmlns="http://www.w3.org/2000/svg">
<rect opacity="0.1" width="44" height="44" rx="10" fill="url(#paint0_linear_45_435)"/>
<path d="M22.0001 12C26.4184 12 30.0001 15.5817 30.0001 20C30.0001 23.1288 28.0847 26.921 24.2963 31.4266C24.1852 31.5587 24.0629 31.681 23.9308 31.7921C22.6626 32.8584 20.7702 32.6948 19.7039 31.4266C15.9156 26.921 14.0001 23.1288 14.0001 20C14.0001 15.5817 17.5818 12 22.0001 12ZM22.0001 13.5C18.4103 13.5 15.5001 16.4101 15.5001 20C15.5001 22.6972 17.2699 26.201 20.852 30.4613C21.3852 31.0954 22.3314 31.1772 22.9655 30.644C23.0315 30.5885 23.0927 30.5273 23.1482 30.4613C26.7303 26.201 28.5001 22.6972 28.5001 20C28.5001 16.4101 25.59 13.5 22.0001 13.5ZM22.0001 16.5C23.9325 16.5 25.5001 18.0676 25.5001 20C25.5001 21.9324 23.9325 23.5 22.0001 23.5C20.0677 23.5 18.5001 21.9324 18.5001 20C18.5001 18.0676 20.0677 16.5 22.0001 16.5ZM22.0001 18C20.8961 18 20.0001 18.896 20.0001 20C20.0001 21.104 20.8961 22 22.0001 22C23.1041 22 24.0001 21.104 24.0001 20C24.0001 18.896 23.1041 18 22.0001 18Z" fill="#4B4B4B"/>
<path d="M68.2478 17.8182H69.4807V24.5597C69.4807 25.2557 69.3167 25.8771 68.9885 26.424C68.6637 26.9676 68.2047 27.3968 67.6114 27.7116C67.0181 28.0232 66.3221 28.179 65.5233 28.179C64.7246 28.179 64.0286 28.0232 63.4353 27.7116C62.842 27.3968 62.3813 26.9676 62.0532 26.424C61.7284 25.8771 61.566 25.2557 61.566 24.5597V17.8182H62.7989V24.4602C62.7989 24.9574 62.9083 25.3999 63.127 25.7876C63.3458 26.1721 63.6573 26.4754 64.0617 26.6974C64.4694 26.9162 64.9566 27.0256 65.5233 27.0256C66.0901 27.0256 66.5773 26.9162 66.985 26.6974C67.3927 26.4754 67.7042 26.1721 67.9197 25.7876C68.1384 25.3999 68.2478 24.9574 68.2478 24.4602V17.8182ZM72.9571 23.4062V28H71.7838V20.3636H72.9173V21.5568H73.0168C73.1958 21.169 73.4675 20.8575 73.8321 20.6222C74.1967 20.3835 74.6673 20.2642 75.2441 20.2642C75.7611 20.2642 76.2135 20.3703 76.6013 20.5824C76.9891 20.7912 77.2907 21.1094 77.5061 21.5369C77.7216 21.9612 77.8293 22.4981 77.8293 23.1477V28H76.656V23.2273C76.656 22.6274 76.5002 22.16 76.1887 21.8253C75.8771 21.4872 75.4495 21.3182 74.906 21.3182C74.5315 21.3182 74.1967 21.3994 73.9017 21.5618C73.6101 21.7242 73.3797 21.9612 73.2107 22.2727C73.0416 22.5843 72.9571 22.9621 72.9571 23.4062ZM79.9733 28V20.3636H81.1466V28H79.9733ZM80.5699 19.0909C80.3412 19.0909 80.144 19.013 79.9782 18.8572C79.8158 18.7015 79.7346 18.5142 79.7346 18.2955C79.7346 18.0767 79.8158 17.8894 79.9782 17.7337C80.144 17.5779 80.3412 17.5 80.5699 17.5C80.7986 17.5 80.9941 17.5779 81.1565 17.7337C81.3222 17.8894 81.4051 18.0767 81.4051 18.2955C81.4051 18.5142 81.3222 18.7015 81.1565 18.8572C80.9941 19.013 80.7986 19.0909 80.5699 19.0909ZM86.6166 20.3636V21.358H82.6592V20.3636H86.6166ZM83.8126 18.5341H84.9859V25.8125C84.9859 26.1439 85.0339 26.3925 85.1301 26.5582C85.2295 26.7206 85.3554 26.83 85.5079 26.8864C85.6637 26.9394 85.8277 26.9659 86.0001 26.9659C86.1294 26.9659 86.2354 26.9593 86.3183 26.946C86.4011 26.9295 86.4674 26.9162 86.5171 26.9062L86.7558 27.9602C86.6762 27.9901 86.5652 28.0199 86.4227 28.0497C86.2802 28.0829 86.0995 28.0994 85.8808 28.0994C85.5493 28.0994 85.2245 28.0282 84.9063 27.8857C84.5915 27.7431 84.3296 27.526 84.1208 27.2344C83.9153 26.9427 83.8126 26.5748 83.8126 26.1307V18.5341ZM91.5012 28.1591C90.7654 28.1591 90.1307 27.9967 89.597 27.6719C89.0667 27.3438 88.6574 26.8864 88.3691 26.2997C88.084 25.7098 87.9415 25.0237 87.9415 24.2415C87.9415 23.4593 88.084 22.7699 88.3691 22.1733C88.6574 21.5734 89.0584 21.1061 89.5722 20.7713C90.0892 20.4332 90.6924 20.2642 91.3818 20.2642C91.7796 20.2642 92.1723 20.3305 92.5601 20.4631C92.9479 20.5956 93.3009 20.8111 93.6191 21.1094C93.9372 21.4044 94.1908 21.7955 94.3797 22.2827C94.5686 22.7699 94.6631 23.3698 94.6631 24.0824V24.5795H88.7767V23.5653H93.4699C93.4699 23.1345 93.3837 22.75 93.2114 22.4119C93.0423 22.0739 92.8004 21.8071 92.4855 21.6115C92.174 21.416 91.8061 21.3182 91.3818 21.3182C90.9145 21.3182 90.5102 21.4342 90.1688 21.6662C89.8307 21.8949 89.5705 22.1932 89.3882 22.5611C89.2059 22.929 89.1148 23.3234 89.1148 23.7443V24.4205C89.1148 24.9972 89.2142 25.486 89.4131 25.8871C89.6153 26.2848 89.8953 26.5881 90.2533 26.7969C90.6112 27.0024 91.0272 27.1051 91.5012 27.1051C91.8094 27.1051 92.0878 27.062 92.3364 26.9759C92.5883 26.8864 92.8054 26.7538 92.9877 26.5781C93.17 26.3991 93.3108 26.1771 93.4102 25.9119L94.5438 26.2301C94.4244 26.6146 94.2239 26.9527 93.9422 27.2443C93.6605 27.5327 93.3125 27.758 92.8982 27.9205C92.4839 28.0795 92.0182 28.1591 91.5012 28.1591ZM99.3314 28.1591C98.695 28.1591 98.1333 27.9983 97.646 27.6768C97.1588 27.352 96.7777 26.8946 96.5026 26.3047C96.2275 25.7114 96.0899 25.0104 96.0899 24.2017C96.0899 23.3996 96.2275 22.7036 96.5026 22.1136C96.7777 21.5237 97.1605 21.0679 97.651 20.7464C98.1415 20.425 98.7083 20.2642 99.3513 20.2642C99.8485 20.2642 100.241 20.3471 100.53 20.5128C100.821 20.6752 101.043 20.8608 101.196 21.0696C101.352 21.2751 101.473 21.4441 101.559 21.5767H101.658V17.8182H102.831V28H101.698V26.8267H101.559C101.473 26.9659 101.35 27.1416 101.191 27.3537C101.032 27.5625 100.805 27.7498 100.51 27.9155C100.215 28.0779 99.8219 28.1591 99.3314 28.1591ZM99.4905 27.1051C99.9611 27.1051 100.359 26.9825 100.684 26.7372C101.008 26.4886 101.255 26.1456 101.424 25.7081C101.593 25.2673 101.678 24.7585 101.678 24.1818C101.678 23.6117 101.595 23.1129 101.429 22.6854C101.264 22.2545 101.018 21.9197 100.694 21.6811C100.369 21.4392 99.9678 21.3182 99.4905 21.3182C98.9933 21.3182 98.579 21.4458 98.2476 21.701C97.9195 21.9529 97.6726 22.2959 97.5068 22.7301C97.3444 23.161 97.2632 23.6449 97.2632 24.1818C97.2632 24.7254 97.3461 25.2192 97.5118 25.6634C97.6808 26.1042 97.9294 26.4555 98.2575 26.7173C98.589 26.9759 99 27.1051 99.4905 27.1051ZM114.808 20.3636C114.748 19.8598 114.506 19.4688 114.082 19.1903C113.658 18.9119 113.138 18.7727 112.521 18.7727C112.07 18.7727 111.676 18.8456 111.338 18.9915C111.003 19.1373 110.741 19.3378 110.552 19.593C110.367 19.8482 110.274 20.1383 110.274 20.4631C110.274 20.7348 110.339 20.9685 110.468 21.1641C110.6 21.3563 110.769 21.517 110.975 21.6463C111.18 21.7723 111.396 21.8767 111.621 21.9595C111.847 22.0391 112.054 22.1037 112.243 22.1534L113.277 22.4318C113.542 22.5014 113.837 22.5975 114.162 22.7202C114.49 22.8428 114.803 23.0102 115.101 23.2223C115.403 23.4311 115.651 23.6996 115.847 24.0277C116.043 24.3558 116.14 24.7585 116.14 25.2358C116.14 25.786 115.996 26.2831 115.708 26.7273C115.423 27.1714 115.005 27.5244 114.455 27.7862C113.908 28.0481 113.244 28.179 112.461 28.179C111.732 28.179 111.101 28.0613 110.567 27.826C110.037 27.5907 109.619 27.2625 109.314 26.8416C109.013 26.4207 108.842 25.9318 108.802 25.375H110.075C110.108 25.7595 110.237 26.0777 110.463 26.3295C110.691 26.5781 110.98 26.7637 111.328 26.8864C111.679 27.0057 112.057 27.0653 112.461 27.0653C112.932 27.0653 113.355 26.9891 113.729 26.8366C114.104 26.6809 114.4 26.4654 114.619 26.1903C114.838 25.9119 114.947 25.5871 114.947 25.2159C114.947 24.8778 114.853 24.6027 114.664 24.3906C114.475 24.1785 114.226 24.0062 113.918 23.8736C113.61 23.741 113.277 23.625 112.919 23.5256L111.666 23.1676C110.87 22.9389 110.241 22.6125 109.777 22.1882C109.313 21.764 109.081 21.2088 109.081 20.5227C109.081 19.9527 109.235 19.4555 109.543 19.0312C109.855 18.6037 110.272 18.2723 110.796 18.0369C111.323 17.7983 111.911 17.679 112.561 17.679C113.217 17.679 113.8 17.7966 114.311 18.032C114.821 18.264 115.226 18.5821 115.524 18.9865C115.825 19.3909 115.985 19.8499 116.001 20.3636H114.808ZM121.329 20.3636V21.358H117.372V20.3636H121.329ZM118.525 18.5341H119.699V25.8125C119.699 26.1439 119.747 26.3925 119.843 26.5582C119.942 26.7206 120.068 26.83 120.221 26.8864C120.377 26.9394 120.541 26.9659 120.713 26.9659C120.842 26.9659 120.948 26.9593 121.031 26.946C121.114 26.9295 121.18 26.9162 121.23 26.9062L121.469 27.9602C121.389 27.9901 121.278 28.0199 121.136 28.0497C120.993 28.0829 120.812 28.0994 120.594 28.0994C120.262 28.0994 119.937 28.0282 119.619 27.8857C119.304 27.7431 119.043 27.526 118.834 27.2344C118.628 26.9427 118.525 26.5748 118.525 26.1307V18.5341ZM125.342 28.179C124.858 28.179 124.418 28.0878 124.024 27.9055C123.63 27.7199 123.316 27.4531 123.084 27.1051C122.852 26.7538 122.736 26.3295 122.736 25.8324C122.736 25.3949 122.823 25.0402 122.995 24.7685C123.167 24.4934 123.398 24.2779 123.686 24.1222C123.974 23.9664 124.293 23.8504 124.641 23.7741C124.992 23.6946 125.345 23.6316 125.699 23.5852C126.164 23.5256 126.54 23.4808 126.828 23.451C127.12 23.4179 127.332 23.3632 127.464 23.2869C127.6 23.2107 127.668 23.0781 127.668 22.8892V22.8494C127.668 22.3589 127.534 21.9777 127.266 21.706C127 21.4342 126.598 21.2983 126.057 21.2983C125.497 21.2983 125.058 21.4209 124.74 21.6662C124.422 21.9115 124.198 22.1733 124.069 22.4517L122.955 22.054C123.154 21.59 123.419 21.2287 123.751 20.9702C124.085 20.7083 124.45 20.526 124.844 20.4233C125.242 20.3172 125.633 20.2642 126.018 20.2642C126.263 20.2642 126.545 20.294 126.863 20.3537C127.184 20.41 127.494 20.5277 127.793 20.7067C128.094 20.8857 128.344 21.1558 128.543 21.517C128.742 21.8783 128.842 22.3622 128.842 22.9688V28H127.668V26.9659H127.609C127.529 27.1316 127.396 27.3089 127.211 27.4979C127.025 27.6868 126.778 27.8475 126.47 27.9801C126.162 28.1127 125.786 28.179 125.342 28.179ZM125.521 27.125C125.985 27.125 126.376 27.0339 126.694 26.8516C127.015 26.6693 127.257 26.4339 127.42 26.1456C127.585 25.8572 127.668 25.554 127.668 25.2358V24.1619C127.619 24.2216 127.509 24.2763 127.34 24.326C127.174 24.3724 126.982 24.4138 126.763 24.4503C126.548 24.4834 126.338 24.5133 126.132 24.5398C125.93 24.563 125.766 24.5829 125.64 24.5994C125.335 24.6392 125.05 24.7038 124.785 24.7933C124.523 24.8795 124.311 25.0104 124.148 25.1861C123.989 25.3584 123.91 25.5937 123.91 25.892C123.91 26.2997 124.061 26.608 124.362 26.8168C124.667 27.0223 125.053 27.125 125.521 27.125ZM134.304 20.3636V21.358H130.347V20.3636H134.304ZM131.5 18.5341H132.673V25.8125C132.673 26.1439 132.721 26.3925 132.818 26.5582C132.917 26.7206 133.043 26.83 133.195 26.8864C133.351 26.9394 133.515 26.9659 133.688 26.9659C133.817 26.9659 133.923 26.9593 134.006 26.946C134.089 26.9295 134.155 26.9162 134.205 26.9062L134.443 27.9602C134.364 27.9901 134.253 28.0199 134.11 28.0497C133.968 28.0829 133.787 28.0994 133.568 28.0994C133.237 28.0994 132.912 28.0282 132.594 27.8857C132.279 27.7431 132.017 27.526 131.808 27.2344C131.603 26.9427 131.5 26.5748 131.5 26.1307V18.5341ZM139.189 28.1591C138.453 28.1591 137.818 27.9967 137.285 27.6719C136.754 27.3438 136.345 26.8864 136.057 26.2997C135.772 25.7098 135.629 25.0237 135.629 24.2415C135.629 23.4593 135.772 22.7699 136.057 22.1733C136.345 21.5734 136.746 21.1061 137.26 20.7713C137.777 20.4332 138.38 20.2642 139.069 20.2642C139.467 20.2642 139.86 20.3305 140.248 20.4631C140.635 20.5956 140.988 20.8111 141.307 21.1094C141.625 21.4044 141.878 21.7955 142.067 22.2827C142.256 22.7699 142.351 23.3698 142.351 24.0824V24.5795H136.464V23.5653H141.157C141.157 23.1345 141.071 22.75 140.899 22.4119C140.73 22.0739 140.488 21.8071 140.173 21.6115C139.861 21.416 139.494 21.3182 139.069 21.3182C138.602 21.3182 138.198 21.4342 137.856 21.6662C137.518 21.8949 137.258 22.1932 137.076 22.5611C136.893 22.929 136.802 23.3234 136.802 23.7443V24.4205C136.802 24.9972 136.902 25.486 137.101 25.8871C137.303 26.2848 137.583 26.5881 137.941 26.7969C138.299 27.0024 138.715 27.1051 139.189 27.1051C139.497 27.1051 139.775 27.062 140.024 26.9759C140.276 26.8864 140.493 26.7538 140.675 26.5781C140.857 26.3991 140.998 26.1771 141.098 25.9119L142.231 26.2301C142.112 26.6146 141.911 26.9527 141.63 27.2443C141.348 27.5327 141 27.758 140.586 27.9205C140.171 28.0795 139.706 28.1591 139.189 28.1591ZM149.544 22.0739L148.491 22.3722C148.424 22.1965 148.326 22.0258 148.197 21.8601C148.071 21.6911 147.899 21.5518 147.68 21.4425C147.461 21.3331 147.181 21.2784 146.84 21.2784C146.373 21.2784 145.983 21.3861 145.672 21.6016C145.363 21.8137 145.209 22.0838 145.209 22.4119C145.209 22.7036 145.315 22.9339 145.527 23.103C145.74 23.272 146.071 23.4129 146.522 23.5256L147.655 23.804C148.338 23.9697 148.847 24.2232 149.182 24.5646C149.516 24.9027 149.684 25.3385 149.684 25.8722C149.684 26.3097 149.558 26.7008 149.306 27.0455C149.057 27.3902 148.709 27.6619 148.262 27.8608C147.814 28.0597 147.294 28.1591 146.701 28.1591C145.922 28.1591 145.277 27.9901 144.767 27.652C144.256 27.3139 143.933 26.8201 143.797 26.1705L144.911 25.892C145.017 26.303 145.218 26.6113 145.513 26.8168C145.811 27.0223 146.2 27.125 146.681 27.125C147.228 27.125 147.662 27.009 147.983 26.777C148.308 26.5417 148.471 26.2599 148.471 25.9318C148.471 25.6667 148.378 25.4446 148.192 25.2656C148.007 25.0833 147.722 24.9474 147.337 24.858L146.064 24.5597C145.365 24.3939 144.851 24.1371 144.523 23.7891C144.198 23.4377 144.036 22.9986 144.036 22.4716C144.036 22.0407 144.157 21.6596 144.399 21.3281C144.644 20.9967 144.977 20.7365 145.398 20.5476C145.822 20.3587 146.303 20.2642 146.84 20.2642C147.596 20.2642 148.189 20.4299 148.62 20.7614C149.054 21.0928 149.362 21.5303 149.544 22.0739ZM158.49 28.1591C157.8 28.1591 157.195 27.995 156.675 27.6669C156.158 27.3388 155.754 26.8797 155.462 26.2898C155.174 25.6998 155.029 25.0104 155.029 24.2216C155.029 23.4261 155.174 22.7318 155.462 22.1385C155.754 21.5452 156.158 21.0845 156.675 20.7564C157.195 20.4283 157.8 20.2642 158.49 20.2642C159.179 20.2642 159.782 20.4283 160.299 20.7564C160.82 21.0845 161.224 21.5452 161.512 22.1385C161.804 22.7318 161.95 23.4261 161.95 24.2216C161.95 25.0104 161.804 25.6998 161.512 26.2898C161.224 26.8797 160.82 27.3388 160.299 27.6669C159.782 27.995 159.179 28.1591 158.49 28.1591ZM158.49 27.1051C159.013 27.1051 159.444 26.9709 159.782 26.7024C160.12 26.4339 160.371 26.081 160.533 25.6435C160.695 25.206 160.777 24.732 160.777 24.2216C160.777 23.7112 160.695 23.2356 160.533 22.7947C160.371 22.3539 160.12 21.9976 159.782 21.7259C159.444 21.4541 159.013 21.3182 158.49 21.3182C157.966 21.3182 157.535 21.4541 157.197 21.7259C156.859 21.9976 156.609 22.3539 156.446 22.7947C156.284 23.2356 156.203 23.7112 156.203 24.2216C156.203 24.732 156.284 25.206 156.446 25.6435C156.609 26.081 156.859 26.4339 157.197 26.7024C157.535 26.9709 157.966 27.1051 158.49 27.1051ZM167.141 20.3636V21.358H163.025V20.3636H167.141ZM164.258 28V19.3097C164.258 18.8722 164.361 18.5076 164.566 18.2159C164.772 17.9242 165.038 17.7055 165.367 17.5597C165.695 17.4138 166.041 17.3409 166.406 17.3409C166.694 17.3409 166.929 17.3641 167.112 17.4105C167.294 17.4569 167.43 17.5 167.519 17.5398L167.181 18.554C167.122 18.5341 167.039 18.5092 166.933 18.4794C166.83 18.4496 166.694 18.4347 166.525 18.4347C166.137 18.4347 165.857 18.5324 165.685 18.728C165.516 18.9235 165.431 19.2102 165.431 19.5881V28H164.258ZM173.3 28H172.007L175.746 17.8182H177.019L180.757 28H179.465L176.422 19.429H176.343L173.3 28ZM173.777 24.0227H178.987V25.1165H173.777V24.0227ZM182.184 28V20.3636H183.318V21.5568H183.417C183.576 21.1491 183.833 20.8326 184.188 20.6072C184.542 20.3786 184.968 20.2642 185.465 20.2642C185.969 20.2642 186.389 20.3786 186.723 20.6072C187.061 20.8326 187.325 21.1491 187.514 21.5568H187.593C187.789 21.1624 188.082 20.8492 188.473 20.6172C188.864 20.3819 189.333 20.2642 189.88 20.2642C190.563 20.2642 191.121 20.478 191.556 20.9055C191.99 21.3298 192.207 21.991 192.207 22.8892V28H191.034V22.8892C191.034 22.3258 190.88 21.9231 190.571 21.6811C190.263 21.4392 189.9 21.3182 189.483 21.3182C188.946 21.3182 188.53 21.4806 188.235 21.8054C187.94 22.1269 187.792 22.5346 187.792 23.0284V28H186.599V22.7699C186.599 22.3357 186.458 21.986 186.176 21.7209C185.895 21.4524 185.532 21.3182 185.088 21.3182C184.783 21.3182 184.498 21.3994 184.233 21.5618C183.971 21.7242 183.759 21.9496 183.596 22.2379C183.437 22.523 183.358 22.8527 183.358 23.2273V28H182.184ZM197.554 28.1591C196.818 28.1591 196.183 27.9967 195.65 27.6719C195.119 27.3438 194.71 26.8864 194.422 26.2997C194.137 25.7098 193.994 25.0237 193.994 24.2415C193.994 23.4593 194.137 22.7699 194.422 22.1733C194.71 21.5734 195.111 21.1061 195.625 20.7713C196.142 20.4332 196.745 20.2642 197.435 20.2642C197.832 20.2642 198.225 20.3305 198.613 20.4631C199.001 20.5956 199.354 20.8111 199.672 21.1094C199.99 21.4044 200.244 21.7955 200.432 22.2827C200.621 22.7699 200.716 23.3698 200.716 24.0824V24.5795H194.829V23.5653H199.523C199.523 23.1345 199.436 22.75 199.264 22.4119C199.095 22.0739 198.853 21.8071 198.538 21.6115C198.227 21.416 197.859 21.3182 197.435 21.3182C196.967 21.3182 196.563 21.4342 196.222 21.6662C195.883 21.8949 195.623 22.1932 195.441 22.5611C195.259 22.929 195.168 23.3234 195.168 23.7443V24.4205C195.168 24.9972 195.267 25.486 195.466 25.8871C195.668 26.2848 195.948 26.5881 196.306 26.7969C196.664 27.0024 197.08 27.1051 197.554 27.1051C197.862 27.1051 198.141 27.062 198.389 26.9759C198.641 26.8864 198.858 26.7538 199.04 26.5781C199.223 26.3991 199.364 26.1771 199.463 25.9119L200.597 26.2301C200.477 26.6146 200.277 26.9527 199.995 27.2443C199.713 27.5327 199.365 27.758 198.951 27.9205C198.537 28.0795 198.071 28.1591 197.554 28.1591ZM202.501 28V20.3636H203.634V21.517H203.714C203.853 21.1392 204.105 20.8326 204.469 20.5973C204.834 20.362 205.245 20.2443 205.702 20.2443C205.789 20.2443 205.896 20.246 206.025 20.2493C206.155 20.2526 206.253 20.2576 206.319 20.2642V21.4574C206.279 21.4474 206.188 21.4325 206.045 21.4126C205.906 21.3894 205.759 21.3778 205.603 21.3778C205.232 21.3778 204.9 21.4557 204.609 21.6115C204.32 21.764 204.092 21.9761 203.922 22.2479C203.757 22.5163 203.674 22.8229 203.674 23.1676V28H202.501ZM207.71 28V20.3636H208.883V28H207.71ZM208.306 19.0909C208.078 19.0909 207.88 19.013 207.715 18.8572C207.552 18.7015 207.471 18.5142 207.471 18.2955C207.471 18.0767 207.552 17.8894 207.715 17.7337C207.88 17.5779 208.078 17.5 208.306 17.5C208.535 17.5 208.73 17.5779 208.893 17.7337C209.059 17.8894 209.141 18.0767 209.141 18.2955C209.141 18.5142 209.059 18.7015 208.893 18.8572C208.73 19.013 208.535 19.0909 208.306 19.0909ZM214.134 28.1591C213.418 28.1591 212.802 27.9901 212.285 27.652C211.768 27.3139 211.37 26.8482 211.092 26.255C210.813 25.6617 210.674 24.9839 210.674 24.2216C210.674 23.446 210.816 22.7616 211.101 22.1683C211.39 21.5717 211.791 21.1061 212.305 20.7713C212.822 20.4332 213.425 20.2642 214.114 20.2642C214.651 20.2642 215.135 20.3636 215.566 20.5625C215.997 20.7614 216.35 21.0398 216.625 21.3977C216.9 21.7557 217.071 22.1733 217.137 22.6506H215.964C215.874 22.3026 215.675 21.9943 215.367 21.7259C215.062 21.4541 214.651 21.3182 214.134 21.3182C213.677 21.3182 213.276 21.4375 212.931 21.6761C212.59 21.9115 212.323 22.2446 212.131 22.6754C211.942 23.103 211.847 23.6051 211.847 24.1818C211.847 24.7718 211.94 25.2855 212.126 25.723C212.315 26.1605 212.58 26.5002 212.921 26.7422C213.266 26.9841 213.67 27.1051 214.134 27.1051C214.439 27.1051 214.716 27.0521 214.964 26.946C215.213 26.84 215.423 26.6875 215.596 26.4886C215.768 26.2898 215.891 26.0511 215.964 25.7727H217.137C217.071 26.2235 216.907 26.6295 216.645 26.9908C216.386 27.3487 216.043 27.6338 215.616 27.8459C215.191 28.0547 214.698 28.1591 214.134 28.1591ZM221.099 28.179C220.615 28.179 220.176 28.0878 219.782 27.9055C219.387 27.7199 219.074 27.4531 218.842 27.1051C218.61 26.7538 218.494 26.3295 218.494 25.8324C218.494 25.3949 218.58 25.0402 218.753 24.7685C218.925 24.4934 219.155 24.2779 219.444 24.1222C219.732 23.9664 220.05 23.8504 220.398 23.7741C220.75 23.6946 221.103 23.6316 221.457 23.5852C221.921 23.5256 222.297 23.4808 222.586 23.451C222.878 23.4179 223.09 23.3632 223.222 23.2869C223.358 23.2107 223.426 23.0781 223.426 22.8892V22.8494C223.426 22.3589 223.292 21.9777 223.023 21.706C222.758 21.4342 222.355 21.2983 221.815 21.2983C221.255 21.2983 220.816 21.4209 220.498 21.6662C220.18 21.9115 219.956 22.1733 219.827 22.4517L218.713 22.054C218.912 21.59 219.177 21.2287 219.508 20.9702C219.843 20.7083 220.208 20.526 220.602 20.4233C221 20.3172 221.391 20.2642 221.775 20.2642C222.021 20.2642 222.302 20.294 222.621 20.3537C222.942 20.41 223.252 20.5277 223.55 20.7067C223.852 20.8857 224.102 21.1558 224.301 21.517C224.5 21.8783 224.599 22.3622 224.599 22.9688V28H223.426V26.9659H223.366C223.287 27.1316 223.154 27.3089 222.969 27.4979C222.783 27.6868 222.536 27.8475 222.228 27.9801C221.92 28.1127 221.543 28.179 221.099 28.179ZM221.278 27.125C221.742 27.125 222.133 27.0339 222.452 26.8516C222.773 26.6693 223.015 26.4339 223.177 26.1456C223.343 25.8572 223.426 25.554 223.426 25.2358V24.1619C223.376 24.2216 223.267 24.2763 223.098 24.326C222.932 24.3724 222.74 24.4138 222.521 24.4503C222.306 24.4834 222.095 24.5133 221.89 24.5398C221.688 24.563 221.524 24.5829 221.398 24.5994C221.093 24.6392 220.808 24.7038 220.543 24.7933C220.281 24.8795 220.069 25.0104 219.906 25.1861C219.747 25.3584 219.668 25.5937 219.668 25.892C219.668 26.2997 219.818 26.608 220.12 26.8168C220.425 27.0223 220.811 27.125 221.278 27.125Z" fill="#4B4B4B"/>
<path d="M342.536 31.0002C342.46 31.0007 342.386 30.9852 342.317 30.9548C342.249 30.9244 342.187 30.8798 342.137 30.8239C342.087 30.768 342.049 30.702 342.026 30.6304C342.003 30.5587 341.995 30.483 342.003 30.4082L342.482 26.0509C342.496 25.9297 342.55 25.8167 342.637 25.7309L352.794 15.5602C352.97 15.3827 353.179 15.2418 353.41 15.1456C353.64 15.0495 353.888 15 354.138 15C354.388 15 354.635 15.0495 354.866 15.1456C355.096 15.2418 355.306 15.3827 355.482 15.5602L357.441 17.4962C357.618 17.6727 357.759 17.8825 357.855 18.1136C357.951 18.3447 358 18.5926 358 18.8429C358 19.0932 357.951 19.3411 357.855 19.5722C357.759 19.8033 357.618 20.0131 357.441 20.1896L347.263 30.3602C347.177 30.4469 347.064 30.5014 346.943 30.5149L342.594 31.0002H342.536ZM343.526 26.3496L343.137 29.8642L346.645 29.4749L356.664 19.4322C356.819 19.2745 356.906 19.0618 356.906 18.8402C356.906 18.6186 356.819 18.4059 356.664 18.2482L354.731 16.3122C354.574 16.1565 354.362 16.0692 354.14 16.0692C353.919 16.0692 353.707 16.1565 353.549 16.3122L343.526 26.3496Z" fill="#4B4B4B"/>
<path d="M355.588 21.7949C355.449 21.7943 355.315 21.7387 355.216 21.6402L351.346 17.7629C351.246 17.6603 351.191 17.5224 351.193 17.3793C351.195 17.2363 351.254 17.0999 351.356 17.0002C351.459 16.9005 351.596 16.8456 351.739 16.8476C351.882 16.8496 352.018 16.9083 352.118 17.0109L355.966 20.8669C356.065 20.9668 356.121 21.102 356.121 21.2429C356.121 21.3838 356.065 21.5189 355.966 21.6189C355.918 21.6722 355.86 21.7152 355.795 21.7455C355.73 21.7757 355.66 21.7925 355.588 21.7949Z" fill="#4B4B4B"/>
<path d="M351.342 20.8885L346.509 25.7308L347.261 26.485L352.095 21.6428L351.342 20.8885Z" fill="#4B4B4B"/>
<defs>
<linearGradient id="paint0_linear_45_435" x1="-5.35724e-08" y1="1.06024" x2="45.8997" y2="3.19724" gradientUnits="userSpaceOnUse">
<stop stop-color="#BFC3FC"/>
<stop offset="1" stop-color="#A2C3FC"/>
</linearGradient>
</defs>
</svg>
